<svg width="295" height="292" viewBox="0 0 295 292" fill="none" xmlns="http://www.w3.org/2000/svg">
<path fill-rule="evenodd" clip-rule="evenodd" d="M265.679 122.598C266.453 124.054 265.901 125.862 264.445 126.636C262.989 127.41 261.181 126.857 260.407 125.402C259.633 123.946 260.186 122.138 261.642 121.364C263.097 120.59 264.905 121.143 265.679 122.598Z" fill="#007BFF"/>
<path fill-rule="evenodd" clip-rule="evenodd" d="M269.737 193.021L263.969 191.258L265.732 185.489L271.501 187.253L269.737 193.021Z" fill="#BCD5FF"/>
<path fill-rule="evenodd" clip-rule="evenodd" d="M169.361 120.475C171.986 126.151 179.013 147.087 182.105 162.859C183.126 168.037 183.722 172.659 183.59 176.003C183.58 176.362 183.565 176.708 183.531 177.04L171.328 182.317C171.092 179.865 170.838 177.354 170.56 174.78C170.083 170.424 169.53 165.91 168.852 161.293C167.028 148.865 164.289 135.719 159.665 123.069L169.361 120.475Z" fill="#FF5C33"/>
<path fill-rule="evenodd" clip-rule="evenodd" d="M183.529 176.562L171.203 174.762C170.647 170.963 170.032 167.042 169.329 163.033C170.144 162.69 170.667 162.412 170.667 162.412L170.874 161.071C174.551 160.986 178.119 161.69 181.55 163.334C182.74 168.564 183.505 173.219 183.529 176.562Z" fill="#C8482C"/>
<path fill-rule="evenodd" clip-rule="evenodd" d="M182.19 43.2904L207.303 122.937L125.648 148.62L116.75 120.397C114.991 122.436 112.648 124.036 109.871 124.91C102.089 127.358 93.8449 123.193 91.4523 115.603C89.0582 108.013 93.4247 99.8822 101.208 97.434C103.984 96.5608 106.82 96.5254 109.434 97.1958L100.535 68.9735L129.334 59.9153C127.365 58.2419 125.839 56.0261 125.014 53.4057C122.623 45.8221 126.993 37.6825 134.77 35.2368C142.553 32.7886 150.799 36.9599 153.19 44.5435C154.015 47.1639 154.037 49.8528 153.39 52.3493L182.19 43.2904Z" fill="#007BFF"/>
<path fill-rule="evenodd" clip-rule="evenodd" d="M133.714 69.8332C139.082 68.1522 142.615 63.4306 146.034 58.8615C146.775 57.8698 147.543 56.8434 148.312 55.8761C149.345 54.573 150.419 53.355 151.524 52.2173C151.557 52.0268 151.581 51.8338 151.606 51.6418C150.379 52.8805 149.189 54.216 148.046 55.6557C147.276 56.6263 146.505 57.6549 145.762 58.6489C142.376 63.1757 138.874 67.8575 133.607 69.5037C127.501 71.4129 120.977 68.4155 116.509 63.8759L116.146 63.9883C118.003 65.9108 120.16 67.5144 122.468 68.6402C126.317 70.5178 130.205 70.9303 133.714 69.8332Z" fill="white"/>
<path fill-rule="evenodd" clip-rule="evenodd" d="M179.463 78.0554C175.874 80.4196 172.163 82.8636 169.419 86.1057C163.083 93.5905 162.349 105.591 167.633 115.289C171.086 121.629 176.807 126.947 184.107 130.724L184.57 130.578C177.182 126.825 171.395 121.498 167.927 115.129C162.708 105.551 163.428 93.7064 169.674 86.3259C172.388 83.1197 176.079 80.6885 179.648 78.338C182.462 76.4845 185.325 74.5938 187.699 72.313L187.591 71.9722C185.265 74.2306 182.41 76.1143 179.463 78.0554Z" fill="white"/>
<path fill-rule="evenodd" clip-rule="evenodd" d="M107.116 124.353C109.356 118.577 113.337 114.032 118.32 111.921C121.318 110.65 124.667 110.212 127.905 109.789C131.947 109.26 136.123 108.715 139.622 106.534C144.762 103.329 147.364 97.2629 149.454 92.3891L169.375 45.9356L168.949 46.0691L149.144 92.2532C146.599 98.1859 144.113 103.333 139.441 106.247C136.015 108.385 131.867 108.928 127.86 109.452C124.599 109.878 121.227 110.319 118.187 111.608C113.084 113.772 109.01 118.446 106.745 124.377C106.869 124.371 106.992 124.362 107.116 124.353Z" fill="white"/>
<path fill-rule="evenodd" clip-rule="evenodd" d="M140.151 136.598C134.305 136.336 128.398 137.627 123.101 140.184L123.2 140.498C128.456 137.952 134.323 136.665 140.131 136.924C144.785 137.133 149.347 138.337 153.498 140.348L153.958 140.201C149.687 138.079 144.966 136.813 140.151 136.598Z" fill="white"/>
<path fill-rule="evenodd" clip-rule="evenodd" d="M135.073 255.006L136.036 259.885L129.706 269.8L148.289 264.403L142.753 251.639L135.073 255.006Z" fill="#001F40"/>
<path fill-rule="evenodd" clip-rule="evenodd" d="M140.581 262.759L136.566 260.469L136.852 259.911L140.867 262.2L140.581 262.759Z" fill="white"/>
<path fill-rule="evenodd" clip-rule="evenodd" d="M178.165 198.978C178.165 198.978 178.075 204.111 174.542 209.57C171.768 213.864 166.865 218.363 158.201 220.726L152.202 222.175L149.592 222.807L146.493 223.554L138.902 225.391L138.936 225.541L145.111 251.356L143.342 252.043L135.256 255.182L132.73 256.159L119.849 224.321L153.719 201.066L163.669 194.234L164.185 193.875L167.304 195.011L174.412 197.606L178.165 198.978Z" fill="#FFB900"/>
<path fill-rule="evenodd" clip-rule="evenodd" d="M175.303 197.192C175.303 197.192 175.31 197.574 175.251 198.253C175.092 200.162 174.466 204.389 171.998 208.924C169.056 214.313 163.509 220.137 153.013 222.991C152.174 223.22 151.303 223.429 150.391 223.62C150.042 223.697 149.682 223.765 149.323 223.832L147.279 224.363L139.689 226.343L125.229 230.113L123.641 232.789L105.654 263.07L93.7507 255.491L110.765 222.266C111.854 220.14 113.439 218.317 115.383 216.959C116.306 216.313 117.295 215.779 118.343 215.369L143.151 205.532L150.523 200.044L159.123 193.64L164.44 194.808L168.096 195.606L175.303 197.192Z" fill="#FFB900"/>
<path fill-rule="evenodd" clip-rule="evenodd" d="M165.833 218.352C165.439 218.562 165.039 218.766 164.627 218.966C159.055 221.691 127.513 229.685 125.258 230.255L119.283 239.626L118.942 239.429L125.007 229.916L125.09 229.895C125.426 229.811 158.842 221.364 164.459 218.617C170.048 215.881 174.063 212.331 176.045 208.346L176.407 208.507C174.528 212.279 170.887 215.665 165.833 218.352Z" fill="#001F40"/>
<path fill-rule="evenodd" clip-rule="evenodd" d="M175.351 210.515C174.214 210.282 173.072 210.015 171.926 209.719C172.026 209.551 172.123 209.385 172.218 209.219C174.847 204.585 175.565 200.294 175.761 198.358L179.648 199.713C179.648 199.713 179.501 204.567 176.159 209.946C176.284 209.719 176.401 209.49 176.513 209.26L176.135 209.087C175.901 209.57 175.64 210.047 175.351 210.515ZM168.399 195.796L164.628 195.048L165.17 194.674L168.399 195.796Z" fill="#E5A907"/>
<path fill-rule="evenodd" clip-rule="evenodd" d="M171.243 209.472C164.484 207.522 157.559 204.389 150.472 200.107L158.833 193.851L164.035 195.035L167.612 195.845L174.663 197.452C174.663 197.452 174.672 197.829 174.619 198.498C174.475 200.378 173.89 204.539 171.508 208.992C171.422 209.152 171.334 209.312 171.243 209.472Z" fill="#E5A907"/>
<path fill-rule="evenodd" clip-rule="evenodd" d="M175.443 210.327C175.304 210.296 175.163 210.263 175.023 210.23C175.32 209.721 175.588 209.202 175.827 208.674L176.235 208.874C176.121 209.126 176.001 209.375 175.874 209.622C175.737 209.856 175.593 210.092 175.443 210.327Z" fill="#001F40"/>
<path fill-rule="evenodd" clip-rule="evenodd" d="M171.954 158.506L173.095 170.098L164.06 170.914L163.617 168.207L162.484 161.249L168.625 161.253L171.954 158.506Z" fill="#FFBA9A"/>
<path fill-rule="evenodd" clip-rule="evenodd" d="M168.56 161.268L168.975 162.369C167.717 164.813 165.901 166.733 163.486 168.078L162.48 161.367L168.56 161.268Z" fill="#001F40"/>
<path fill-rule="evenodd" clip-rule="evenodd" d="M158.159 152.693C158.159 152.693 158.034 163.032 161.185 164.189C164.338 165.348 169.667 162.514 169.667 162.514L171.225 153.419L165.216 150.828L158.159 152.693Z" fill="#FFBA9A"/>
<path fill-rule="evenodd" clip-rule="evenodd" d="M158.653 156.39C157.454 158.091 156.633 159.7 157.355 160.153C158.331 160.763 159.609 160.712 159.609 160.712L158.653 156.39Z" fill="#FFBA9A"/>
<path fill-rule="evenodd" clip-rule="evenodd" d="M153.813 149.801C155.661 153.058 157.514 155.364 162.579 152.852C163.304 152.92 165.787 155.942 165.572 156.834L171.269 161.774C174.079 156.451 175.195 150.42 169.545 148.63C169.545 148.63 165.531 144.079 161.207 146.973C156.954 149.816 153.813 149.801 153.813 149.801Z" fill="#001F40"/>
<path fill-rule="evenodd" clip-rule="evenodd" d="M168.454 157.283C168.111 158.551 167.03 159.382 166.035 159.137C165.04 158.893 164.511 157.668 164.852 156.399C165.194 155.13 166.277 154.3 167.27 154.543C168.265 154.787 168.794 156.015 168.454 157.283Z" fill="#FFBA9A"/>
<path fill-rule="evenodd" clip-rule="evenodd" d="M167.316 157.823L166.833 158.036C166.513 157.329 166.514 156.47 166.836 155.893C167.051 155.508 167.389 155.296 167.789 155.29L167.836 155.857C167.612 155.86 167.434 155.977 167.306 156.205C167.074 156.621 167.078 157.3 167.316 157.823Z" fill="#001F40"/>
<path fill-rule="evenodd" clip-rule="evenodd" d="M163.502 160.455C162.565 160.953 161.404 160.598 160.906 159.661C160.409 158.726 160.763 157.564 161.7 157.066C162.635 156.568 163.798 156.924 164.295 157.859C164.794 158.796 164.437 159.958 163.502 160.455Z" fill="#FFA785"/>
<path fill-rule="evenodd" clip-rule="evenodd" d="M150.64 193.431L156.109 172.468C156.313 171.683 156.818 171.005 157.512 170.588C162.456 167.613 165.136 167.369 169.723 166.944C171.712 166.759 173.722 166.979 175.627 167.59C180.411 169.126 183.549 173.738 183.229 178.76L181.831 200.624C181.687 202.869 179.519 204.399 177.361 203.78L153.019 197.119C151.405 196.678 150.378 195.084 150.64 193.431Z" fill="#FF5C33"/>
<path fill-rule="evenodd" clip-rule="evenodd" d="M137.414 122.941C137.342 123.022 137.272 123.11 137.204 123.205C136.626 122.6 134.814 122.873 134.379 124.623C134.063 123.575 132.268 124.134 131.3 125.432C128.416 129.092 128.054 135.14 129.569 141.974L140.238 136.699C139.15 132.328 138.912 128.064 139.986 124.293C140.414 122.788 138.477 121.741 137.414 122.941Z" fill="#FFBA9A"/>
<path fill-rule="evenodd" clip-rule="evenodd" d="M153.849 182.088L164.584 171.625C159.103 169.937 144.648 152.869 140.663 137.218L129.089 138.736C131.18 155.278 141.828 171.842 153.849 182.088Z" fill="#FF5C33"/>
<path fill-rule="evenodd" clip-rule="evenodd" d="M241.352 146.322L233.884 148.241L232.348 137.584L233.11 137.472L234.524 147.283L241.162 145.577L241.352 146.322Z" fill="#95BEFF"/>
<path fill-rule="evenodd" clip-rule="evenodd" d="M96.7339 254.853L93.5135 258.944L81.7566 260.365L97.6739 272.189L104.204 258.974L96.7339 254.853Z" fill="#001F40"/>
</svg>
