<svg width="175" height="228" viewBox="0 0 175 228" fill="none" xmlns="http://www.w3.org/2000/svg">
<path fill-rule="evenodd" clip-rule="evenodd" d="M20.2661 67.0416C20.299 68.9259 18.7981 70.4801 16.9138 70.513C15.0297 70.5459 13.4755 69.045 13.4426 67.1607C13.4097 65.2764 14.9106 63.7224 16.7947 63.6895C18.679 63.6566 20.2332 65.1573 20.2661 67.0416Z" fill="#007BFF"/>
<path fill-rule="evenodd" clip-rule="evenodd" d="M49.9658 187.672L50.3373 190.402L83.5205 207.192L115.08 202.168L137.993 170.246L136.363 167.726L101.844 190.63L49.9658 187.672Z" fill="#BCD5FF"/>
<path fill-rule="evenodd" clip-rule="evenodd" d="M112.481 174.089L111.539 175.063L83.9986 203.528L83.3826 204.161L50.0763 187.285L77.8388 158.085L112.481 174.089Z" fill="white"/>
<path fill-rule="evenodd" clip-rule="evenodd" d="M112.58 173.574L136.764 166.791L113.873 198.901L83.2147 204.263L112.58 173.574Z" fill="#E2EDFF"/>
<path fill-rule="evenodd" clip-rule="evenodd" d="M136.764 166.791L112.58 173.574L83.2147 204.263L113.873 198.901L136.764 166.791ZM133.334 169.201L113.074 197.625L87.1575 202.156L113.321 174.814L133.334 169.201Z" fill="white"/>
<path fill-rule="evenodd" clip-rule="evenodd" d="M135.276 62.9698C132.569 70.643 136.812 79.0955 144.754 81.8499C147.591 82.8338 150.515 82.958 153.227 82.3596L143.158 110.9L59.7929 81.9826L70.1083 52.7417C67.0503 53.6989 63.6413 53.7141 60.3505 52.5726C52.4099 49.8183 48.1662 41.3656 50.873 33.6926C53.58 26.0194 62.2119 22.0329 70.1525 24.7874C73.4433 25.9289 76.0993 28.0479 77.8887 30.6865L88.2043 1.44558L171.569 30.3629L161.502 58.9032C159.757 56.7593 157.393 55.0485 154.556 54.0647C146.614 51.3103 137.984 55.2967 135.276 62.9698Z" fill="#FFB900"/>
<path fill-rule="evenodd" clip-rule="evenodd" d="M62.0272 82.9478L61.0332 81.7606L60.8126 82.374L61.0006 82.5986L62.0272 82.9478Z" fill="white"/>
<path fill-rule="evenodd" clip-rule="evenodd" d="M69.8063 53.1759C69.9217 53.1431 70.0372 53.1105 70.1517 53.0746L60.9615 40.8837L60.7082 41.1071L69.8063 53.1759Z" fill="white"/>
<path fill-rule="evenodd" clip-rule="evenodd" d="M52.8884 32.0275C52.8277 32.1276 52.7665 32.2273 52.7083 32.3292L60.2243 41.1341L60.487 40.9295L52.8884 32.0275Z" fill="white"/>
<path fill-rule="evenodd" clip-rule="evenodd" d="M106.505 98.6748L107.132 98.8886L92.6455 81.4752L92.3772 81.6898L106.505 98.6748Z" fill="white"/>
<path fill-rule="evenodd" clip-rule="evenodd" d="M69.7213 53.3055L69.5815 53.6966L75.8535 61.2286L76.1331 61.0055L69.7213 53.3055Z" fill="white"/>
<path fill-rule="evenodd" clip-rule="evenodd" d="M76.9692 62.2203L76.7 62.4377L92.8289 82.0187L93.0982 81.8015L76.9692 62.2203Z" fill="white"/>
<path fill-rule="evenodd" clip-rule="evenodd" d="M128.96 84.8288L129.228 84.6112L113.1 65.0304L112.83 65.2478L128.96 84.8288Z" fill="white"/>
<path fill-rule="evenodd" clip-rule="evenodd" d="M145.819 105.302L146.089 105.085L129.959 85.5036L129.69 85.7211L145.819 105.302Z" fill="white"/>
<path fill-rule="evenodd" clip-rule="evenodd" d="M96.3707 45.5771L112.5 65.1579L112.769 64.9405L96.6401 45.3595L96.3707 45.5771Z" fill="white"/>
<path fill-rule="evenodd" clip-rule="evenodd" d="M80.5283 25.2769L80.3696 25.4046L80.3137 25.5622L96.4402 45.0744L96.7107 44.8568L80.5283 25.2769Z" fill="white"/>
<path fill-rule="evenodd" clip-rule="evenodd" d="M146.12 105.439L146.313 104.633L145.919 105.091L146.12 105.439Z" fill="white"/>
<path fill-rule="evenodd" clip-rule="evenodd" d="M116.111 28.6154L116.381 28.398L100.253 8.81701L99.9832 9.03442L116.111 28.6154Z" fill="white"/>
<path fill-rule="evenodd" clip-rule="evenodd" d="M97.1113 4.91871L96.5022 4.69727L99.9266 9.05404L100.188 8.83304L97.1113 4.91871Z" fill="white"/>
<path fill-rule="evenodd" clip-rule="evenodd" d="M140.093 57.6086C140.183 57.535 140.276 57.4636 140.368 57.3921L133.283 49.2958L133.003 49.5081L140.093 57.6086Z" fill="white"/>
<path fill-rule="evenodd" clip-rule="evenodd" d="M132.571 48.6872L132.841 48.4699L116.712 28.8888L116.442 29.1062L132.571 48.6872Z" fill="white"/>
<path fill-rule="evenodd" clip-rule="evenodd" d="M143.408 21.2061L152.581 32.6896L152.84 32.4749L144.01 21.4209L143.408 21.2061Z" fill="white"/>
<path fill-rule="evenodd" clip-rule="evenodd" d="M165.585 47.9107L165.721 47.5267L152.882 32.0723L152.607 32.2915L165.585 47.9107Z" fill="white"/>
<path fill-rule="evenodd" clip-rule="evenodd" d="M138.746 110.16L139.138 110.312L145.378 104.71L145.64 104.476L145.862 103.771L145.429 104.16L145.154 104.407L138.746 110.16Z" fill="white"/>
<path fill-rule="evenodd" clip-rule="evenodd" d="M109.977 99.9247L110.359 100.056L128.637 85.4231L128.903 85.209L137.703 78.1646C137.628 78.0783 137.56 77.9887 137.487 77.901L128.686 84.947L128.42 85.161L109.977 99.9247Z" fill="white"/>
<path fill-rule="evenodd" clip-rule="evenodd" d="M161.826 58.8777L162.532 58.3174L162.768 57.6567L161.58 58.6008C161.665 58.6914 161.745 58.7852 161.826 58.8777Z" fill="white"/>
<path fill-rule="evenodd" clip-rule="evenodd" d="M132.659 48.7648L132.391 48.9832L112.756 65.0352L112.489 65.2537L81.8323 90.3162L82.2143 90.4502L92.8052 81.792L93.0723 81.5735L112.707 65.5218L112.975 65.3032L132.609 49.2514L132.877 49.0327L152.511 32.981L152.779 32.7625L159.823 27.0031L159.441 26.8691L152.561 32.4944L152.293 32.713L132.659 48.7648Z" fill="white"/>
<path fill-rule="evenodd" clip-rule="evenodd" d="M97.0519 45.7377L97.321 45.518L117.088 29.3861L117.357 29.1665L132.195 17.0581L131.81 16.9234L117.138 28.8971L116.869 29.1167L77.0651 61.6001L76.796 61.8195L64.721 71.6739L64.5017 72.3013L77.0156 62.0891L77.2846 61.8695L97.0519 45.7377Z" fill="white"/>
<path fill-rule="evenodd" clip-rule="evenodd" d="M53.1325 47.0188L76.3132 28.7893C76.2289 28.7109 76.1503 28.6276 76.0638 28.5509L52.9377 46.7373C53.0023 46.8314 53.0655 46.9261 53.1325 47.0188Z" fill="white"/>
<path fill-rule="evenodd" clip-rule="evenodd" d="M100.016 9.23123L102.81 7.01233L102.43 6.88263L80.4551 24.3305L80.2372 24.9362L80.394 24.8117L100.016 9.23123Z" fill="white"/>
<path fill-rule="evenodd" clip-rule="evenodd" d="M96.3001 120.229L97.0586 133.94L89.1544 134.406L88.3959 120.696L96.3001 120.229Z" fill="#974245"/>
<path fill-rule="evenodd" clip-rule="evenodd" d="M96.5603 120.239L97.012 128.261C94.7635 127.577 91.8134 124.774 90.0733 121.78L94.5645 120.355L96.5603 120.239Z" fill="#4A191B"/>
<path fill-rule="evenodd" clip-rule="evenodd" d="M99.9261 116.676C101.379 119.068 101.439 121.01 99.3542 120.018C97.2697 119.027 99.9261 116.676 99.9261 116.676Z" fill="#974245"/>
<path fill-rule="evenodd" clip-rule="evenodd" d="M99.6281 114.273C99.6281 114.273 100.6 124.825 96.5688 125.062C92.5375 125.299 88.5998 122.027 88.5998 122.027L88.4438 114.029L94.9964 110.641L99.6281 114.273Z" fill="#974245"/>
<path fill-rule="evenodd" clip-rule="evenodd" d="M93.1507 116.626C93.5703 115.063 94.7282 113.882 96.8268 113.19C96.8268 113.19 99.7123 116.685 101.787 115.19C104.716 113.078 101.563 107.986 96.8754 109.01C94.4395 106.344 91.8379 107.261 89.1509 110.014C84.1418 110.94 83.6073 113.789 84.997 117.465C81.9751 117.491 80.9949 119.003 81.4897 121.588L90.3449 123.938L92.1608 117.378L93.1507 116.626Z" fill="#4A191B"/>
<path fill-rule="evenodd" clip-rule="evenodd" d="M91.3167 107.259C91.4159 109.03 90.0608 110.549 88.29 110.652C86.5192 110.755 85.0034 109.404 84.904 107.633C84.8048 105.862 86.1599 104.343 87.9307 104.24C89.7015 104.137 91.2175 105.488 91.3167 107.259Z" fill="#4A191B"/>
<path fill-rule="evenodd" clip-rule="evenodd" d="M97.1731 121.095C96.2087 121.112 95.395 120.364 95.3394 119.392C95.2825 118.396 96.0439 117.542 97.0401 117.485C97.0643 117.484 97.0887 117.483 97.1128 117.483C98.0773 117.466 98.891 118.214 98.9464 119.186C99.0035 120.182 98.2421 121.036 97.246 121.092C97.2217 121.094 97.1974 121.095 97.1731 121.095Z" fill="#803638"/>
<path fill-rule="evenodd" clip-rule="evenodd" d="M94.5729 115.971C95.1798 117.078 95.0253 118.382 94.2278 118.884C93.4303 119.386 92.2916 118.896 91.6846 117.789C91.0775 116.682 91.232 115.378 92.0295 114.876C92.8272 114.374 93.9658 114.864 94.5729 115.971Z" fill="#974245"/>
<path fill-rule="evenodd" clip-rule="evenodd" d="M93.4168 117.879C93.34 116.973 92.9266 116.439 92.1163 116.199L92.3251 115.489C93.434 115.817 94.0489 116.6 94.1521 117.816L93.4168 117.879Z" fill="#4A191B"/>
<path fill-rule="evenodd" clip-rule="evenodd" d="M115.538 122.894C112.135 126.614 107.047 128.371 102.07 127.601C94.5659 126.439 85.2977 127.013 80.1491 132.731L78.5737 164.153C78.5081 165.462 79.7702 166.431 81.0142 166.027L104.934 158.269C105.744 158.006 106.274 157.227 106.223 156.376L105.497 144.311C117.739 142.511 129.55 123.38 135.068 111.646L126.854 105.084C123.157 112.418 119.403 118.67 115.538 122.894Z" fill="#007BFF"/>
<path fill-rule="evenodd" clip-rule="evenodd" d="M137.886 99.8838C138.434 99.1604 136.978 97.7593 136.105 98.7094C136.897 97.2755 135.239 96.1569 134.375 96.5888C134.249 94.9901 133.482 94.5958 132.076 95.4054C130.553 98.7771 129.024 102.023 127.483 105.078L135.427 111.421C138.425 105.047 139.558 100.099 137.886 99.8838Z" fill="#974245"/>
<path fill-rule="evenodd" clip-rule="evenodd" d="M113.272 174.585L83.637 204.838L81.0152 166.748L105.396 159.49L113.272 174.585Z" fill="#FF5C33"/>
<path fill-rule="evenodd" clip-rule="evenodd" d="M82.1365 172.694L81.6922 166.037L105.455 158.636L106.909 161.554L82.1365 172.694Z" fill="#C8482C"/>
<path fill-rule="evenodd" clip-rule="evenodd" d="M87.2196 136.335L81.3412 151.109C80.54 150.127 79.7521 149.128 78.9913 148.124C76.9398 145.429 75.0234 142.656 73.3025 139.77C64.6924 125.384 60.7745 108.331 68.1145 85.8949L78.3047 88.0764C73.5821 101.497 77.2708 116.332 81.6108 126.314C82.2571 127.795 82.915 129.166 83.557 130.407C84.9045 132.991 86.1947 135.032 87.2196 136.335Z" fill="#007BFF"/>
<path fill-rule="evenodd" clip-rule="evenodd" d="M77.4434 73.4173C77.6771 72.5164 79.7507 72.7953 79.5425 74.102C80.1951 72.552 82.1692 73.1726 82.3753 74.1423C83.7529 73.2263 84.5661 73.5913 84.8145 75.2373C82.6478 79.4085 80.6404 83.468 78.9054 87.3362L68.526 85.1573C72.1027 77.3188 76.0438 72.0666 77.4434 73.4173Z" fill="#974245"/>
<path fill-rule="evenodd" clip-rule="evenodd" d="M79.7843 147.985C77.7354 145.3 75.8215 142.538 74.103 139.663C75.9035 133.587 78.3703 128.617 82.4015 126.258C83.0469 127.734 83.7039 129.1 84.3451 130.335L84.3827 130.534C79.0661 133.354 79.6295 140.286 79.7843 147.985Z" fill="#005FC5"/>
<path fill-rule="evenodd" clip-rule="evenodd" d="M16.2518 119.651C16.2731 120.871 15.302 121.876 14.0828 121.898C12.8637 121.919 11.8579 120.948 11.8366 119.729C11.8153 118.509 12.7866 117.504 14.0057 117.482C15.2249 117.461 16.2305 118.432 16.2518 119.651Z" fill="#95BEFF"/>
<path fill-rule="evenodd" clip-rule="evenodd" d="M25.0836 119.651C25.1049 120.871 24.1337 121.876 22.9145 121.898C21.6954 121.919 20.6897 120.948 20.6684 119.729C20.6471 118.509 21.6183 117.504 22.8374 117.482C24.0567 117.461 25.0623 118.432 25.0836 119.651Z" fill="#95BEFF"/>
<path fill-rule="evenodd" clip-rule="evenodd" d="M34.3168 119.25C34.3381 120.469 33.3669 121.475 32.1478 121.496C30.9285 121.518 29.9229 120.546 29.9016 119.327C29.8803 118.108 30.8514 117.102 32.0707 117.081C33.2898 117.06 34.2955 118.031 34.3168 119.25Z" fill="#95BEFF"/>
<path fill-rule="evenodd" clip-rule="evenodd" d="M23.2715 216.883L5.2606 217.197C4.69221 217.207 4.22208 216.677 4.21047 216.011C4.19886 215.346 4.65017 214.799 5.21856 214.789L23.2294 214.475C23.7978 214.465 24.268 214.996 24.2796 215.661C24.2912 216.326 23.8399 216.873 23.2715 216.883Z" fill="#BCD5FF"/>
<path fill-rule="evenodd" clip-rule="evenodd" d="M16.6139 222.155L4.6924 222.363C4.21588 222.371 3.82201 221.941 3.81257 221.401L3.80466 220.947C3.79522 220.406 4.17384 219.963 4.65036 219.955L16.5718 219.747C17.0483 219.738 17.4422 220.168 17.4516 220.709L17.4596 221.162C17.469 221.703 17.0904 222.147 16.6139 222.155Z" fill="#BCD5FF"/>
<path fill-rule="evenodd" clip-rule="evenodd" d="M19.762 226.949L5.15704 227.204C4.64579 227.213 4.22265 226.727 4.21208 226.122L4.20835 225.908C4.19777 225.302 4.60376 224.804 5.115 224.795L19.7199 224.54C20.2313 224.532 20.6544 225.015 20.665 225.621L20.6687 225.834C20.6793 226.44 20.2734 226.94 19.762 226.949Z" fill="#BCD5FF"/>
<path fill-rule="evenodd" clip-rule="evenodd" d="M21.8724 220.231C21.884 220.897 21.3543 221.445 20.6893 221.456C20.0243 221.468 19.4758 220.939 19.4641 220.273C19.4525 219.607 19.9823 219.059 20.6473 219.048C21.3123 219.036 21.8608 219.565 21.8724 220.231Z" fill="#BCD5FF"/>
</svg>
