<svg width="204" height="206" viewBox="0 0 204 206" fill="none" xmlns="http://www.w3.org/2000/svg">
<g opacity="0.1">
<path d="M128.242 150.537C128.271 150.581 128.316 150.625 128.36 150.684C132.747 156.491 137.164 161.883 141.362 166.405C147.877 173.378 153.933 178.211 158.721 179.082C158.942 179.124 159.165 179.156 159.371 179.185C159.617 179.215 159.863 179.23 160.109 179.229H160.139C160.396 179.229 160.653 179.214 160.908 179.185C160.953 179.188 160.998 179.183 161.041 179.17C161.269 179.15 161.496 179.115 161.72 179.067C167.379 178.017 174.987 171.561 185.048 161.751L203.636 180.781C189.616 194.462 176.568 205.838 160.346 205.838C159.057 205.837 157.77 205.763 156.49 205.616C145.237 204.39 134.372 197.963 121.149 183.631C120.987 183.469 120.839 183.306 120.691 183.144L120.647 183.1C120.352 182.775 120.04 182.436 119.724 182.08C115.666 177.575 111.392 172.328 106.812 166.257" fill="url(#paint0_linear_1_2093)"/>
<path d="M128.242 150.537C128.271 150.581 128.316 150.625 128.36 150.684C132.747 156.491 137.164 161.883 141.362 166.405C147.877 173.378 153.933 178.211 158.721 179.082C158.942 179.124 159.165 179.156 159.371 179.185C159.617 179.215 159.863 179.23 160.109 179.229H160.139C160.396 179.229 160.653 179.214 160.908 179.185C160.953 179.188 160.998 179.183 161.041 179.17C161.269 179.15 161.496 179.115 161.72 179.067C167.379 178.017 174.987 171.561 185.048 161.751L203.636 180.781C189.616 194.462 176.568 205.838 160.346 205.838C159.057 205.837 157.77 205.763 156.49 205.616C145.237 204.39 134.372 197.963 121.149 183.631C120.987 183.469 120.839 183.306 120.691 183.144L120.647 183.1C120.352 182.775 120.04 182.436 119.724 182.08C115.666 177.575 111.392 172.328 106.812 166.257L128.242 150.537Z" fill="url(#paint1_linear_1_2093)"/>
<path d="M47.0589 44.9899C45.6421 44.621 44.2438 44.289 42.816 44.0085C37.653 43.0009 32.3937 42.5733 27.1357 42.7338C26.5823 42.7338 26.016 42.7652 25.457 42.7966C24.3373 42.8593 23.2009 42.9367 22.0664 43.0603C19.1982 43.3527 16.352 43.8309 13.5457 44.4918C13.9349 43.8702 14.3223 43.2467 14.7115 42.6471C15.1468 41.9775 15.5822 41.341 16.0489 40.688L17.4177 38.7271L18.8326 36.8307C19.3307 36.209 19.8122 35.5873 20.3085 34.9656C21.2714 33.7371 22.2989 32.5232 23.3707 31.3426C24.0237 30.6047 24.6933 29.8797 25.3777 29.1639C25.8906 28.6364 26.4034 28.0922 26.931 27.5794C28.4861 25.9929 30.1205 24.4692 31.7993 23.0063C32.9965 21.9658 34.2084 20.9383 35.4536 19.9901C37.3187 18.5291 39.2482 17.1142 41.2221 15.7915C48.9714 16.4071 56.5781 18.2224 63.7705 21.1726C65.9306 22.0433 68.1385 23.0376 70.3931 24.174C72.8523 25.4173 75.3199 26.8113 77.7961 28.3559C82.985 31.6189 87.9324 35.2514 92.5996 39.2251C110.217 54.1213 128.388 76.3741 147.599 106.558L125.163 120.825C106.531 91.5766 90.8747 72.9009 77.4564 61.1463C68.813 53.5491 58.531 48.0516 47.413 45.0821L47.0589 44.9899Z" fill="url(#paint2_linear_1_2093)"/>
<path style="mix-blend-mode:multiply" opacity="0.5" d="M160.908 179.185C152.352 180.233 125.225 182.506 120.63 183.085C120.335 182.76 120.04 182.436 119.73 182.08L141.361 166.399C147.876 173.373 153.933 178.206 158.72 179.076C158.941 179.118 159.164 179.15 159.371 179.18C159.616 179.209 159.862 179.224 160.109 179.224H160.138C160.395 179.226 160.652 179.212 160.908 179.185Z" fill="url(#paint3_linear_1_2093)"/>
<path d="M172.607 143.088V143.102C167.747 150.857 161.786 157.866 154.913 163.909H154.896V163.923C137.845 178.928 115.906 187.199 93.1939 187.186C46.747 187.186 9.97226 156.087 0.844559 108.754C0.0199617 103.652 -4.58263 68.3866 21.0278 58.8385C37.9458 53.2877 66.5927 59.6318 106.955 121.349L84.7042 135.893C69.6676 112.895 57.5073 98.8381 48.208 91.4515C27.3404 75.4354 25.8481 92.4014 26.1284 97.1702C27.9474 131.816 57.725 159.572 91.4224 160.583C104.439 160.987 117.283 157.529 128.337 150.647C132.273 148.211 135.946 145.377 139.299 142.187V142.172H139.316L139.33 142.156C146.33 135.525 151.819 127.464 155.424 118.521V118.504L155.44 118.473C155.518 118.255 155.612 118.037 155.689 117.806C158.176 111.379 159.661 104.608 160.089 97.7308C160.167 96.5024 160.198 95.2886 160.215 94.0602C160.229 92.1635 160.167 90.2504 160.012 88.3415C159.044 75.8373 154.584 63.8563 147.14 53.763C139.697 43.6696 129.568 35.8695 117.908 31.251C106.248 26.6325 93.525 25.3812 81.1886 27.6396C68.8521 29.8981 57.3981 35.5756 48.1306 44.0253L47.1307 45.0049C45.6992 44.6359 44.2584 44.2891 42.8121 44.0087C37.6493 43.001 32.3899 42.5736 27.132 42.7341C26.5785 42.7506 26.0122 42.782 25.4533 42.7968C24.3335 42.8595 23.1971 42.937 22.0627 43.0605C19.1944 43.353 16.3481 43.8311 13.5418 44.4921C13.9311 43.8704 14.3185 43.2469 14.7077 42.6474L14.7243 42.6621C15.1597 41.9943 15.595 41.3412 16.0451 40.6882L17.4139 38.7273L18.8288 36.8309C19.3269 36.2092 19.8084 35.5875 20.3046 34.9659C21.2989 33.7373 22.3338 32.5234 23.3668 31.3428C24.0199 30.6049 24.6895 29.8799 25.374 29.1642C27.4253 27.0193 29.5658 24.9668 31.7954 23.0065C32.9927 21.9808 34.2047 20.9551 35.4499 19.9904C37.3149 18.5293 39.2445 17.1144 41.2183 15.7918C59.0052 3.89499 80.3331 -1.54492 101.645 0.379057C122.957 2.30303 142.966 11.4746 158.334 26.3645C173.703 41.2545 183.503 60.963 186.101 82.2032C188.698 103.444 183.935 124.933 172.607 143.088Z" fill="url(#paint4_linear_1_2093)"/>
<path d="M106.957 121.345C109.394 124.772 115.985 134.834 128.336 150.628V150.643C120.271 155.659 111.222 158.879 101.801 160.084C95.5953 153.111 87.7643 140.464 84.4606 135.514C82.2 132.057 80.0036 128.807 77.8713 125.763L106.957 121.345Z" fill="#517DFD"/>
<path style="mix-blend-mode:multiply" opacity="0.5" d="M47.1306 45.003L48.1249 44.0235C56.5236 36.3717 66.7269 30.9766 77.7793 28.3433C82.9683 31.6062 87.9157 35.2386 92.5828 39.2124L92.6124 39.2438C77.2907 39.5501 62.0453 41.4806 47.1306 45.003Z" fill="url(#paint5_linear_1_2093)"/>
<path style="mix-blend-mode:multiply" opacity="0.45" d="M154.9 163.913V163.927L128.336 150.645C132.269 148.21 135.943 145.379 139.299 142.195V142.18H139.314L139.329 142.165C142.046 146.041 148.503 155.167 154.9 163.913Z" fill="url(#paint6_linear_1_2093)"/>
<path d="M147.586 106.538C150.158 110.571 152.763 114.56 155.402 118.505L155.406 118.516L155.417 118.52C160.973 126.897 166.696 135.087 172.586 143.09L172.59 143.1L172.6 143.104C182.174 156.273 192.53 168.854 203.612 180.781L181.125 196.765C172.147 186.247 163.406 175.302 154.9 163.929V163.915C149.595 156.823 144.393 149.585 139.297 142.197V142.182C134.48 135.179 129.767 128.063 125.158 120.833" fill="url(#paint7_linear_1_2093)"/>
<path d="M106.958 121.345C91.1297 97.1364 77.0896 81.449 64.8682 71.668C58.5339 77.575 52.6793 83.976 47.3599 90.811C47.6403 91.012 47.9133 91.2294 48.214 91.4473C56.1261 97.7321 66.1172 108.871 78.1818 126.211C78.9361 127.296 79.7038 128.425 80.4763 129.55C80.8069 130.036 81.1332 130.513 81.4674 131.008C82.3688 132.347 83.2812 133.72 84.2044 135.127C84.3745 135.385 84.5404 135.628 84.7099 135.889C88.145 141.065 95.7454 153.27 101.807 160.082C111.224 158.88 120.273 155.663 128.336 150.65V150.635C115.984 134.835 109.396 124.772 106.958 121.345Z" fill="url(#paint8_linear_1_2093)"/>
</g>
<defs>
<linearGradient id="paint0_linear_1_2093" x1="86.2845" y1="80.5802" x2="123.696" y2="235.185" gradientUnits="userSpaceOnUse">
<stop offset="0.205" stop-color="#5F95FC"/>
<stop offset="0.893" stop-color="#3D5DFF"/>
</linearGradient>
<linearGradient id="paint1_linear_1_2093" x1="86.2845" y1="80.5802" x2="123.696" y2="235.185" gradientUnits="userSpaceOnUse">
<stop offset="0.316" stop-color="#5F95FC"/>
<stop offset="0.388" stop-color="#5F95FC"/>
<stop offset="0.673" stop-color="#3D5DFF"/>
</linearGradient>
<linearGradient id="paint2_linear_1_2093" x1="42.233" y1="22.7237" x2="102.589" y2="155.378" gradientUnits="userSpaceOnUse">
<stop offset="0.107" stop-color="#3D5DFF"/>
<stop offset="0.795" stop-color="#5F95FC"/>
</linearGradient>
<linearGradient id="paint3_linear_1_2093" x1="119.73" y1="174.742" x2="160.908" y2="174.742" gradientUnits="userSpaceOnUse">
<stop offset="0.107" stop-color="#3D5DFF"/>
<stop offset="0.795" stop-color="#5F95FC"/>
</linearGradient>
<linearGradient id="paint4_linear_1_2093" x1="42.2151" y1="14.7877" x2="171.858" y2="214.266" gradientUnits="userSpaceOnUse">
<stop offset="0.205" stop-color="#5F95FC"/>
<stop offset="0.893" stop-color="#3D5DFF"/>
</linearGradient>
<linearGradient id="paint5_linear_1_2093" x1="63.4129" y1="32.958" x2="65.8902" y2="59.1959" gradientUnits="userSpaceOnUse">
<stop offset="0.107" stop-color="#3D5DFF"/>
<stop offset="0.795" stop-color="#5F95FC"/>
</linearGradient>
<linearGradient id="paint6_linear_1_2093" x1="133.941" y1="146.365" x2="149.302" y2="178.912" gradientUnits="userSpaceOnUse">
<stop offset="0.107" stop-color="#3258FF"/>
<stop offset="0.795" stop-color="#619DFF"/>
</linearGradient>
<linearGradient id="paint7_linear_1_2093" x1="138.024" y1="116.734" x2="209.934" y2="190.146" gradientUnits="userSpaceOnUse">
<stop offset="0.121" stop-color="#5F95FC"/>
<stop offset="0.603" stop-color="#3D5DFF"/>
</linearGradient>
<linearGradient id="paint8_linear_1_2093" x1="-55.8849" y1="-128.236" x2="223.109" y2="277.098" gradientUnits="userSpaceOnUse">
<stop offset="0.492" stop-color="#5F95FC" stop-opacity="0"/>
<stop offset="0.515" stop-color="#5B8FFC" stop-opacity="0.098"/>
<stop offset="0.563" stop-color="#5281FD" stop-opacity="0.357"/>
<stop offset="0.634" stop-color="#456AFE" stop-opacity="0.761"/>
<stop offset="0.673" stop-color="#3D5DFF"/>
</linearGradient>
</defs>
</svg>
