<svg width="62" height="94" viewBox="0 0 62 94" fill="none" xmlns="http://www.w3.org/2000/svg">
<path d="M30.9824 46.5259C30.9824 37.9804 37.9103 31.0173 46.491 31.0173C55.0365 31.0173 61.9995 37.9452 61.9995 46.5259C61.9995 55.0714 55.0717 62.0344 46.491 62.0344C37.9454 62.0344 30.9824 55.0714 30.9824 46.5259Z" fill="#1ABCFE"/>
<path d="M0 77.5073C0 68.9618 6.92786 61.9988 15.5085 61.9988H31.0171V77.5073C31.0171 86.0529 24.0892 93.0159 15.5085 93.0159C6.92786 93.0159 0 86.088 0 77.5073Z" fill="#0ACF83"/>
<path d="M30.9824 0.0351668V31.0171H46.491C55.0365 31.0171 61.9995 24.0892 61.9995 15.5085C61.9995 6.96302 55.0717 0 46.491 0H30.9824V0.0351668Z" fill="#FF7262"/>
<path d="M0 15.5435C0 24.089 6.92786 31.052 15.5085 31.052H31.0171V0.0349121H15.5085C6.92786 0.0349121 0 6.96277 0 15.5435Z" fill="#F24E1E"/>
<path d="M0 46.5259C0 55.0714 6.92786 62.0344 15.5085 62.0344H31.0171V31.0173H15.5085C6.92786 31.0173 0 37.9804 0 46.5259Z" fill="#A259FF"/>
</svg>
