<svg width="88" height="88" viewBox="0 0 88 88" fill="none" xmlns="http://www.w3.org/2000/svg">
<path d="M18.6311 0H22.5842V3.91875H26.228V0H30.1811V11.8594H26.228V7.90625H22.6186V11.8594H18.6311V0ZM35.4061 3.95312H31.917V0H42.8655V3.95312H39.3592V11.8594H35.4061V3.95312ZM44.6014 0H48.7436L51.2874 4.17656L53.8311 0H57.9733V11.8594H54.0202V5.98125L51.253 10.2437L48.4858 5.98125V11.8594H44.6014V0ZM59.9327 0H63.8858V7.94063H69.4889V11.8594H59.9327V0Z" fill="white"/>
<path d="M18.4937 80.953L12.8218 17.2905H75.178L69.5062 80.9186L43.9483 87.9999" fill="#FF4C1E"/>
<path d="M44 82.5859V22.5156H69.4891L64.625 76.8281L44 82.5859Z" fill="#FF651E"/>
<path d="M24.4062 30.3015H44L46.9135 34.2031L44 38.1046H32.9656L33.6875 46.0968H44L46.9135 50.1443L44 53.8828H26.5375L24.4062 30.3015ZM26.8812 57.8015H34.7188L35.2687 64.0406L44 66.3781L47.2875 70.2728L44 74.5249L27.9813 70.0562L26.8812 57.8015Z" fill="#EBEBEB"/>
<path d="M63.525 30.3015H43.9656V38.1046H62.8031L63.525 30.3015ZM62.0984 46.0968H43.9656V53.9H53.5906L52.6796 64.0406L43.9656 66.3781V74.4906L59.9499 70.0562L62.0984 46.0968Z" fill="white"/>
</svg>
