<svg width="92" height="95" viewBox="0 0 92 95" fill="none" xmlns="http://www.w3.org/2000/svg">
<path d="M91.9481 21.4915C91.9822 21.6181 91.9997 21.7487 92 21.8799V42.2714C92 42.5331 91.9311 42.7902 91.8004 43.0167C91.6696 43.2432 91.4815 43.431 91.2552 43.5612L74.1925 53.415V72.946C74.1925 73.4775 73.9109 73.9682 73.4514 74.2358L37.8346 94.802C37.7531 94.8484 37.6642 94.8782 37.5752 94.9098C37.5419 94.9209 37.5104 94.9414 37.4752 94.9507C37.2262 95.0164 36.9645 95.0164 36.7155 94.9507C36.6748 94.9395 36.6377 94.9172 36.5988 94.9024C36.5173 94.8726 36.432 94.8466 36.3542 94.802L0.744834 74.2358C0.518618 74.1054 0.330656 73.9176 0.199891 73.6911C0.0691258 73.4647 0.000179241 73.2077 0 72.946L0 11.7715C0 11.6377 0.0185282 11.5076 0.051879 11.3812C0.0629959 11.3385 0.0889354 11.2995 0.103758 11.2567C0.13155 11.1787 0.15749 11.0987 0.198252 11.0263C0.226044 10.9779 0.266806 10.9389 0.300157 10.8943C0.342772 10.8348 0.381681 10.7735 0.431707 10.7215C0.474322 10.6787 0.529907 10.6471 0.57808 10.61C0.631812 10.5653 0.679986 10.517 0.741129 10.4817L18.5486 0.19862C18.774 0.0684891 19.0296 0 19.2897 0C19.5498 0 19.8054 0.0684891 20.0309 0.19862L37.8365 10.4817H37.8402C37.8995 10.5189 37.9495 10.5653 38.0032 10.6081C38.0514 10.6453 38.1051 10.6787 38.1477 10.7196C38.1996 10.7735 38.2367 10.8348 38.2811 10.8943C38.3126 10.9389 38.3553 10.9779 38.3812 11.0263C38.4238 11.1006 38.4479 11.1787 38.4775 11.2567C38.4924 11.2995 38.5183 11.3385 38.5294 11.3831C38.5635 11.5097 38.581 11.6403 38.5813 11.7715V49.9805L53.4187 41.4109V21.8781C53.4187 21.748 53.4372 21.616 53.4706 21.4915C53.4835 21.4469 53.5076 21.4079 53.5225 21.3651C53.5521 21.2871 53.578 21.2071 53.6188 21.1347C53.6466 21.0863 53.6874 21.0473 53.7189 21.0027C53.7633 20.9432 53.8004 20.8819 53.8523 20.8299C53.8949 20.7871 53.9486 20.7555 53.9968 20.7183C54.0524 20.6737 54.1005 20.6254 54.1598 20.5901L71.9691 10.307C72.1945 10.1767 72.4501 10.1081 72.7103 10.1081C72.9704 10.1081 73.226 10.1767 73.4514 10.307L91.257 20.5901C91.32 20.6273 91.3682 20.6737 91.4238 20.7165C91.4701 20.7537 91.5238 20.7871 91.5664 20.828C91.6183 20.8819 91.6554 20.9432 91.6998 21.0027C91.7332 21.0473 91.774 21.0863 91.7999 21.1347C91.8425 21.2071 91.8666 21.2871 91.8962 21.3651C91.9129 21.4079 91.937 21.4469 91.9481 21.4915ZM89.0318 41.4109V24.4539L82.8007 28.052L74.1925 33.0235V49.9805L89.0336 41.4109H89.0318ZM71.2262 72.0855V55.1174L62.7588 59.9681L38.5795 73.8102V90.9382L71.2262 72.0855ZM2.96822 14.3455V72.0855L35.6112 90.9363V73.8121L18.5579 64.1311L18.5523 64.1274L18.5449 64.1237C18.4875 64.0902 18.4393 64.0419 18.3855 64.001C18.3392 63.9639 18.2855 63.9341 18.2447 63.8932L18.241 63.8877C18.1929 63.8412 18.1595 63.7836 18.1187 63.7315C18.0817 63.6814 18.0372 63.6386 18.0076 63.5866L18.0057 63.581C17.9724 63.5252 17.952 63.4583 17.9279 63.3951C17.9038 63.3394 17.8723 63.2874 17.8575 63.2279C17.839 63.1573 17.8353 63.0811 17.8278 63.0086C17.8204 62.9528 17.8056 62.8971 17.8056 62.8413V22.9151L9.19926 17.9417L2.96822 14.3455ZM19.2916 3.20568L4.45604 11.7715L19.2879 20.3374L34.1216 11.7697L19.2879 3.20568H19.2916ZM27.0067 56.6637L35.6131 51.694V14.3455L29.382 17.9436L20.7738 22.9151V60.2636L27.0067 56.6637ZM72.7103 13.3141L57.8766 21.8799L72.7103 30.4458L87.5421 21.8781L72.7103 13.3141ZM71.2262 33.0235L62.618 28.052L56.3869 24.4539V41.4109L64.9933 46.3806L71.2262 49.9805V33.0235ZM37.0935 71.2362L58.8512 58.7768L69.7272 52.5508L54.9047 43.9905L37.8383 53.8462L22.2839 62.8283L37.0935 71.2362Z" fill="#FF2D20"/>
</svg>
