<svg width="88" height="88" viewBox="0 0 88 88" fill="none" xmlns="http://www.w3.org/2000/svg">
<g clip-path="url(#clip0_1_2379)">
<path d="M84.0612 71.6128H3.93904C2.45338 71.6128 1.24902 70.4084 1.24902 68.9228V16.0128C1.24902 14.5271 2.45338 13.3228 3.93904 13.3228H84.0614C85.547 13.3228 86.7514 14.5271 86.7514 16.0128V68.9228C86.7512 70.4084 85.5468 71.6128 84.0612 71.6128Z" fill="#131C46"/>
<path d="M4.56714 16.6409H83.4332V68.2948H4.56714V16.6409Z" fill="white"/>
<path d="M38.5864 22.3767H77.6974V43.3935H38.5864V22.3767Z" fill="#E2D2F7"/>
<path d="M74.7734 32.3089C69.7035 37.7122 66.738 31.9642 65.7589 29.4633C65.3185 28.3387 64.6329 27.3179 63.7257 26.5154C60.191 23.3895 57.3094 26.5123 55.9894 28.4713C55.6131 29.0297 55.2993 29.6273 55.0266 30.2431C54.2937 31.8988 51.3562 37.3578 45.89 33.3948C42.3172 30.8046 40.4384 31.1931 39.4867 31.9911C38.8984 32.4845 38.5864 33.2342 38.5864 34.0021V43.3933H77.6974V29.5989C76.8785 30.198 75.9355 31.0703 74.7734 32.3089Z" fill="#61CEAC"/>
<path d="M40.7795 31.8093C40.7795 31.6786 40.7919 31.5491 40.8097 31.4207C40.2415 31.4962 39.8103 31.72 39.4867 31.9913C38.8984 32.4847 38.5864 33.2344 38.5864 34.0024V43.3935H77.6974V41.2005H48.0895C44.0522 41.2005 40.7795 37.9276 40.7795 33.8905V31.8093Z" fill="#52C1A1"/>
<path d="M77.6974 49.5133H38.5865C38.3742 49.5133 38.2021 49.3413 38.2021 49.129C38.2021 48.9167 38.3742 48.7446 38.5865 48.7446H77.6974C77.9097 48.7446 78.0818 48.9167 78.0818 49.129C78.0818 49.3413 77.9097 49.5133 77.6974 49.5133Z" fill="#E2D2F7"/>
<path d="M77.6974 56.2052H38.5865C38.3742 56.2052 38.2021 56.0332 38.2021 55.8209C38.2021 55.6086 38.3742 55.4365 38.5865 55.4365H77.6974C77.9097 55.4365 78.0818 55.6086 78.0818 55.8209C78.0818 56.0332 77.9097 56.2052 77.6974 56.2052Z" fill="#E2D2F7"/>
<path d="M32.7674 49.5133H10.4107C10.1984 49.5133 10.0264 49.3413 10.0264 49.129C10.0264 48.9167 10.1984 48.7446 10.4107 48.7446H32.7672C32.9795 48.7446 33.1516 48.9167 33.1516 49.129C33.1516 49.3413 32.9795 49.5133 32.7674 49.5133Z" fill="#E2D2F7"/>
<path d="M32.7674 56.2052H10.4107C10.1984 56.2052 10.0264 56.0332 10.0264 55.8209C10.0264 55.6086 10.1984 55.4365 10.4107 55.4365H32.7672C32.9795 55.4365 33.1516 55.6086 33.1516 55.8209C33.1516 56.0332 32.9795 56.2052 32.7674 56.2052Z" fill="#E2D2F7"/>
<path d="M77.6974 62.8956H38.5865C38.3742 62.8956 38.2021 62.7236 38.2021 62.5113C38.2021 62.299 38.3742 62.127 38.5865 62.127H77.6974C77.9097 62.127 78.0818 62.299 78.0818 62.5113C78.0818 62.7236 77.9097 62.8956 77.6974 62.8956Z" fill="#E2D2F7"/>
<path d="M32.7674 62.8956H10.4107C10.1984 62.8956 10.0264 62.7236 10.0264 62.5113C10.0264 62.299 10.1984 62.127 10.4107 62.127H32.7672C32.9795 62.127 33.1516 62.299 33.1516 62.5113C33.1516 62.7236 32.9795 62.8956 32.7674 62.8956Z" fill="#E2D2F7"/>
<path d="M32.7674 36.13H10.4107C10.1984 36.13 10.0264 35.958 10.0264 35.7457C10.0264 35.5334 10.1984 35.3613 10.4107 35.3613H32.7672C32.9795 35.3613 33.1516 35.5334 33.1516 35.7457C33.1516 35.958 32.9795 36.13 32.7674 36.13Z" fill="#E2D2F7"/>
<path d="M32.7674 42.8217H10.4107C10.1984 42.8217 10.0264 42.6496 10.0264 42.4373C10.0264 42.225 10.1984 42.053 10.4107 42.053H32.7672C32.9795 42.053 33.1516 42.225 33.1516 42.4373C33.1516 42.6496 32.9795 42.8217 32.7674 42.8217Z" fill="#E2D2F7"/>
<path d="M32.7674 22.7467H10.4107C10.1984 22.7467 10.0264 22.5747 10.0264 22.3624C10.0264 22.1501 10.1984 21.978 10.4107 21.978H32.7672C32.9795 21.978 33.1516 22.1501 33.1516 22.3624C33.1516 22.5747 32.9795 22.7467 32.7674 22.7467Z" fill="#E2D2F7"/>
<path d="M32.7674 29.4384H10.4107C10.1984 29.4384 10.0264 29.2663 10.0264 29.054C10.0264 28.8417 10.1984 28.6697 10.4107 28.6697H32.7672C32.9795 28.6697 33.1516 28.8417 33.1516 29.054C33.1516 29.2663 32.9795 29.4384 32.7674 29.4384Z" fill="#E2D2F7"/>
<path d="M42.886 59.644H84.667V88.0002H42.886V59.644Z" fill="#F0E8F9"/>
<path d="M82.0093 65.7257H60.3616C60.1493 65.7257 59.9773 65.5537 59.9773 65.3414C59.9773 65.1291 60.1493 64.957 60.3616 64.957H82.0093C82.2216 64.957 82.3936 65.1291 82.3936 65.3414C82.3936 65.5537 82.2214 65.7257 82.0093 65.7257Z" fill="#865ACC"/>
<path d="M82.0092 71.3576H74.9837C74.7714 71.3576 74.5994 71.1855 74.5994 70.9732C74.5994 70.7609 74.7714 70.5889 74.9837 70.5889H82.0092C82.2215 70.5889 82.3936 70.7609 82.3936 70.9732C82.3934 71.1855 82.2213 71.3576 82.0092 71.3576Z" fill="#FF33A8"/>
<path d="M71.1855 71.3576H64.16C63.9477 71.3576 63.7756 71.1855 63.7756 70.9732C63.7756 70.7609 63.9477 70.5889 64.16 70.5889H71.1855C71.3978 70.5889 71.5698 70.7609 71.5698 70.9732C71.5696 71.1855 71.3976 71.3576 71.1855 71.3576Z" fill="#FF33A8"/>
<path d="M60.0472 71.3576H45.5438C45.3315 71.3576 45.1594 71.1855 45.1594 70.9732C45.1594 70.7609 45.3315 70.5889 45.5438 70.5889H60.0472C60.2595 70.5889 60.4316 70.7609 60.4316 70.9732C60.4314 71.1855 60.2593 71.3576 60.0472 71.3576Z" fill="#865ACC"/>
<path d="M82.0092 77.0551H54.6641C54.4518 77.0551 54.2798 76.883 54.2798 76.6707C54.2798 76.4584 54.4518 76.2864 54.6641 76.2864H82.0092C82.2215 76.2864 82.3935 76.4584 82.3935 76.6707C82.3933 76.883 82.2213 77.0551 82.0092 77.0551Z" fill="#865ACC"/>
<path d="M50.5515 77.0551H45.5438C45.3315 77.0551 45.1594 76.883 45.1594 76.6707C45.1594 76.4584 45.3315 76.2864 45.5438 76.2864H50.5515C50.7638 76.2864 50.9358 76.4584 50.9358 76.6707C50.9356 76.883 50.7636 77.0551 50.5515 77.0551Z" fill="#FF33A8"/>
<path d="M82.0092 82.6871H58.4622C58.2499 82.6871 58.0779 82.5151 58.0779 82.3028C58.0779 82.0905 58.2499 81.9185 58.4622 81.9185H82.009C82.2213 81.9185 82.3933 82.0905 82.3933 82.3028C82.3933 82.5151 82.2213 82.6871 82.0092 82.6871Z" fill="#FF33A8"/>
<path d="M54.3498 82.6871H45.5438C45.3315 82.6871 45.1594 82.5151 45.1594 82.3028C45.1594 82.0905 45.3315 81.9185 45.5438 81.9185H54.3498C54.5621 81.9185 54.7341 82.0905 54.7341 82.3028C54.7341 82.5151 54.5619 82.6871 54.3498 82.6871Z" fill="#865ACC"/>
<path d="M42.886 52.0474H84.667V59.6439H42.886V52.0474Z" fill="#865ACC"/>
<path d="M46.709 57.365C47.5481 57.365 48.2283 56.6848 48.2283 55.8457C48.2283 55.0066 47.5481 54.3264 46.709 54.3264C45.8699 54.3264 45.1897 55.0066 45.1897 55.8457C45.1897 56.6848 45.8699 57.365 46.709 57.365Z" fill="white"/>
<path d="M52.4065 57.365C53.2456 57.365 53.9258 56.6848 53.9258 55.8457C53.9258 55.0066 53.2456 54.3264 52.4065 54.3264C51.5674 54.3264 50.8872 55.0066 50.8872 55.8457C50.8872 56.6848 51.5674 57.365 52.4065 57.365Z" fill="white"/>
<path d="M58.1038 57.365C58.9429 57.365 59.6231 56.6848 59.6231 55.8457C59.6231 55.0066 58.9429 54.3264 58.1038 54.3264C57.2647 54.3264 56.5845 55.0066 56.5845 55.8457C56.5845 56.6848 57.2647 57.365 58.1038 57.365Z" fill="white"/>
<path d="M49.138 67.6138C49.053 67.6138 48.9677 67.5858 48.8966 67.5282L46.7765 65.8139C46.5881 65.6693 46.5883 65.3609 46.7765 65.2163L48.8966 63.502C49.0615 63.3685 49.3037 63.3941 49.437 63.5592C49.5705 63.7243 49.5447 63.9661 49.3798 64.0996L47.6294 65.5151L49.3798 66.9307C49.6636 67.1437 49.4855 67.6268 49.138 67.6138Z" fill="#FF33A8"/>
<path d="M53.7051 67.6137C53.3576 67.6269 53.1797 67.1436 53.4633 66.9306L55.2137 65.5151L53.4633 64.0995C53.2982 63.9662 53.2726 63.7242 53.4061 63.5591C53.5396 63.394 53.7816 63.3686 53.9465 63.502L56.0666 65.2163C56.255 65.3609 56.2548 65.6692 56.0666 65.8138L53.9465 67.5282C53.8752 67.5857 53.7899 67.6137 53.7051 67.6137Z" fill="#FF33A8"/>
<path d="M50.9768 67.625C50.7356 67.6276 50.5466 67.3952 50.6009 67.1594L51.3472 63.7084C51.3922 63.501 51.597 63.369 51.804 63.4141C52.0114 63.4589 52.1432 63.6635 52.0983 63.8709L51.3519 67.3218C51.3132 67.502 51.1539 67.625 50.9768 67.625Z" fill="#FF33A8"/>
<path d="M7.15601 6.90601H45.1387V29.3729H7.15601V6.90601Z" fill="#F0E8F9"/>
<path d="M7.15601 0H45.1387V6.90593H7.15601V0Z" fill="#F955AF"/>
<path d="M10.6314 4.83424C11.3941 4.83424 12.0125 4.2159 12.0125 3.45313C12.0125 2.69037 11.3941 2.07202 10.6314 2.07202C9.86859 2.07202 9.25024 2.69037 9.25024 3.45313C9.25024 4.2159 9.86859 4.83424 10.6314 4.83424Z" fill="white"/>
<path d="M15.8108 4.83424C16.5736 4.83424 17.1919 4.2159 17.1919 3.45313C17.1919 2.69037 16.5736 2.07202 15.8108 2.07202C15.048 2.07202 14.4297 2.69037 14.4297 3.45313C14.4297 4.2159 15.048 4.83424 15.8108 4.83424Z" fill="white"/>
<path d="M20.9902 4.83424C21.753 4.83424 22.3714 4.2159 22.3714 3.45313C22.3714 2.69037 21.753 2.07202 20.9902 2.07202C20.2275 2.07202 19.6091 2.69037 19.6091 3.45313C19.6091 4.2159 20.2275 4.83424 20.9902 4.83424Z" fill="white"/>
<path d="M37.6323 14.1348H41.6858V29.3729H37.6323V14.1348Z" fill="#FF8F33"/>
<path d="M39.1695 14.1348H37.6323V29.3729H41.6858V27.8357H41.0908C40.0298 27.8357 39.1695 26.9754 39.1695 25.9144V14.1348Z" fill="#FF740D"/>
<path d="M30.8765 15.8613H34.9299V29.3729H30.8765V15.8613Z" fill="white"/>
<path d="M32.4136 15.8613H30.8765V29.3729H34.9299V27.8357H34.335C33.2739 27.8357 32.4136 26.9755 32.4136 25.9144V15.8613Z" fill="#E2D2F7"/>
<path d="M24.1206 21.0408H28.1741V29.3729H24.1206V21.0408Z" fill="#F955AF"/>
<path d="M25.6575 21.0408H24.1204V29.3729H28.1738V27.8358H27.5789C26.5178 27.8358 25.6575 26.9755 25.6575 25.9144V21.0408Z" fill="#EF009F"/>
<path d="M17.3647 12.4082H21.4182V29.3728H17.3647V12.4082Z" fill="#865ACC"/>
<path d="M18.9017 12.4082H17.3645V29.3728H21.418V27.8357H20.823C19.7619 27.8357 18.9017 26.9754 18.9017 25.9143V12.4082Z" fill="#6A42BA"/>
<path d="M10.6089 19.3142H14.6623V29.3729H10.6089V19.3142Z" fill="#FFC31A"/>
<path d="M12.1461 19.3142H10.6089V29.3729H14.6623V27.8357H14.0674C13.0063 27.8357 12.1461 26.9755 12.1461 25.9144V19.3142Z" fill="#FFAF00"/>
<path d="M17.6024 61.6417L15.4406 59.7022C15.0976 59.3945 14.6533 59.2244 14.1926 59.2244H6.37098C4.71947 59.2244 3.38086 60.5632 3.38086 62.2145V76.7492H35.6994V65.1008C35.6994 63.4486 34.3595 62.1096 32.7072 62.1107L18.8518 62.1197C18.3905 62.1199 17.9456 61.9497 17.6024 61.6417Z" fill="#FF8F33"/>
<path d="M8.67665 59.2241H6.37098C4.71947 59.2241 3.38086 60.5629 3.38086 62.2142V76.7489H5.68653V62.2142C5.68653 60.5629 7.02515 59.2241 8.67665 59.2241Z" fill="#FF740D"/>
<path d="M5.63306 65.0427H33.4469V74.1041H5.63306V65.0427Z" fill="white"/>
<path d="M32.6251 84.8811H6.45503C4.75727 84.8811 3.38086 83.5047 3.38086 81.807V68.1726H35.6994V81.807C35.6992 83.5049 34.3228 84.8811 32.6251 84.8811Z" fill="#FFC31A"/>
<path d="M17.2149 82.5755C10.8479 82.5755 5.68653 77.4141 5.68653 71.0471V68.1726H3.38086V81.807C3.38086 83.5047 4.75727 84.8811 6.45503 84.8811H32.6251C34.0859 84.8811 35.3062 83.8612 35.6191 82.4954C35.3974 82.5461 35.1677 82.5755 34.9307 82.5755H17.2149Z" fill="#FFAF00"/>
<path d="M30.9995 80.876H26.1146C25.7963 80.876 25.5381 80.6179 25.5381 80.2997C25.5381 79.9816 25.7963 79.7234 26.1146 79.7234H30.9995C31.3179 79.7234 31.5761 79.9816 31.5761 80.2997C31.5761 80.6179 31.3177 80.876 30.9995 80.876Z" fill="white"/>
<path d="M30.9994 76.2944H23.0614C22.743 76.2944 22.4849 76.0363 22.4849 75.7181C22.4849 75.4 22.743 75.1416 23.0614 75.1416H30.9994C31.3178 75.1416 31.5759 75.3998 31.5759 75.7181C31.5759 76.0365 31.3176 76.2944 30.9994 76.2944Z" fill="white"/>
<path d="M61.9082 19.5173C65.6222 19.5173 68.6331 16.5065 68.6331 12.7925C68.6331 9.07845 65.6222 6.06763 61.9082 6.06763C58.1942 6.06763 55.1833 9.07845 55.1833 12.7925C55.1833 16.5065 58.1942 19.5173 61.9082 19.5173Z" fill="#FFC31A"/>
<path d="M57.489 12.7925C57.489 9.47161 59.8966 6.71503 63.061 6.16804C62.6863 6.10317 62.3016 6.06763 61.9082 6.06763C58.1942 6.06763 55.1833 9.07843 55.1833 12.7925C55.1833 16.5065 58.1942 19.5173 61.9082 19.5173C62.3016 19.5173 62.6863 19.4816 63.061 19.4169C59.8966 18.8699 57.489 16.1132 57.489 12.7925Z" fill="#FFAF00"/>
<path d="M60.2057 15.2428L58.6731 13.7517C58.5358 13.6182 58.4997 13.4006 58.6095 13.2436C58.7492 13.0437 59.0268 13.0236 59.1941 13.1862L60.4722 14.4295L64.6059 10.3582C64.7424 10.2238 64.9606 10.1924 65.1151 10.3054C65.312 10.4494 65.3263 10.7273 65.1601 10.8909L60.7435 15.2409C60.5959 15.3864 60.3541 15.3872 60.2057 15.2428Z" fill="white"/>
</g>
<defs>
<clipPath id="clip0_1_2379">
<rect width="88" height="88" fill="white"/>
</clipPath>
</defs>
</svg>
