<svg width="88" height="88" viewBox="0 0 88 88" fill="none" xmlns="http://www.w3.org/2000/svg">
<g clip-path="url(#clip0_1_2360)">
<path d="M26.3973 27.1584H21.5377L34.7864 64.6094L42.2035 43.414L36.453 27.1584H31.3256V23.5898H54.0312V27.1584H48.7141L61.9627 64.6094L66.725 50.9999C72.9722 33.5636 61.6047 28.1322 61.6047 24.2408C61.6047 20.3495 64.7593 17.1951 68.6504 17.1951C68.8609 17.1951 69.0654 17.2065 69.2657 17.2252C62.6725 11.0012 53.7821 7.18433 43.9995 7.18433C31.2171 7.18433 19.9577 13.6999 13.3572 23.5898H26.397V27.1584H26.3973Z" fill="#00769D"/>
<path d="M7.18433 43.9999C7.18433 58.0949 15.1066 70.3378 26.7399 76.5243L10.1256 29.5596C8.23304 33.9934 7.18433 38.8741 7.18433 43.9999Z" fill="#00769D"/>
<path d="M76.0404 25.8584C76.567 28.9591 76.4076 32.4441 75.5995 35.9427H75.746L75.1893 37.5334C74.8594 38.6819 74.4441 39.8569 73.9723 41.0113L61.3044 76.5006C72.9134 70.3066 80.8154 58.0769 80.8154 43.9998C80.8154 37.4034 79.0788 31.2132 76.0404 25.8584Z" fill="#00769D"/>
<path d="M32.6455 79.0281C36.2221 80.1867 40.0372 80.8152 43.9999 80.8152C47.7796 80.8152 51.4258 80.2447 54.8583 79.1866L44.0893 48.7451L32.6455 79.0281Z" fill="#00769D"/>
<path d="M75.1126 12.8872C66.8021 4.57678 55.7526 0 43.9998 0C32.247 0 21.1977 4.57678 12.8872 12.8872C4.57678 21.1977 0 32.247 0 44C0 55.7528 4.57678 66.8021 12.8872 75.1126C21.1977 83.423 32.2472 87.9998 44 87.9998C55.7528 87.9998 66.8021 83.423 75.1128 75.1126C83.4232 66.8021 88 55.7526 88 44C87.9998 32.247 83.423 21.1977 75.1126 12.8872ZM43.9998 84.8959C21.4497 84.8959 3.10387 66.5501 3.10387 44C3.10387 21.4499 21.4497 3.10387 43.9998 3.10387C66.5499 3.10387 84.8957 21.4499 84.8957 44C84.8957 66.5501 66.5501 84.8959 43.9998 84.8959Z" fill="#00769D"/>
</g>
<defs>
<clipPath id="clip0_1_2360">
<rect width="88" height="88" fill="white"/>
</clipPath>
</defs>
</svg>
