<svg width="1919" height="668" viewBox="0 0 1919 668" fill="none" xmlns="http://www.w3.org/2000/svg">
<rect opacity="0.04" width="1919" height="668" fill="#2662FA"/>
<g opacity="0.36">
<path d="M207.924 568.684C214.04 572.621 222.414 567.771 223.492 560.606C224.658 552.847 216.694 547.623 210.007 548.423C202.593 549.314 197.834 557.826 200.363 565.075C202.893 572.324 211.891 574.418 217.538 569.781C219.056 568.54 216.914 566.347 215.418 567.58C211.165 571.068 204.338 568.753 202.952 563.293C201.566 557.834 205.335 551.827 210.879 551.461C215.213 551.172 220.581 554.149 220.588 559.197C220.588 564.725 213.988 568.92 209.42 565.997C207.77 564.938 206.267 567.634 207.909 568.684H207.924Z" fill="#10100E"/>
<path d="M301.15 477.185C304.763 479.511 309.711 476.645 310.348 472.412C311.037 467.827 306.332 464.741 302.38 465.214C298 465.74 295.188 470.77 296.683 475.053C298.177 479.335 303.494 480.573 306.83 477.833C307.727 477.1 306.462 475.804 305.578 476.533C303.065 478.593 299.031 477.226 298.212 474C297.393 470.774 299.62 467.225 302.896 467.009C305.456 466.838 308.628 468.597 308.632 471.58C308.632 474.846 304.733 477.325 302.034 475.597C301.059 474.972 300.17 476.564 301.141 477.185H301.15Z" fill="#10100E"/>
<path d="M250.343 420.741C255.107 423.808 261.63 420.03 262.47 414.449C263.378 408.405 257.175 404.336 251.966 404.959C246.191 405.653 242.484 412.284 244.454 417.93C246.425 423.576 253.434 425.207 257.832 421.595C259.014 420.629 257.346 418.921 256.181 419.881C252.868 422.598 247.55 420.795 246.471 416.542C245.391 412.29 248.327 407.61 252.645 407.325C256.021 407.1 260.202 409.419 260.208 413.351C260.208 417.657 255.067 420.925 251.509 418.648C250.223 417.823 249.052 419.923 250.332 420.741H250.343Z" fill="#10100E"/>
<path d="M197.463 318.315C201.767 321.085 207.66 317.672 208.418 312.63C209.239 307.17 203.635 303.494 198.929 304.057C193.711 304.684 190.362 310.674 192.143 315.775C193.923 320.876 200.255 322.349 204.228 319.086C205.296 318.213 203.79 316.67 202.737 317.538C199.744 319.992 194.94 318.363 193.964 314.521C192.989 310.679 195.641 306.452 199.543 306.195C202.592 305.991 206.37 308.086 206.375 311.638C206.375 315.528 201.731 318.481 198.516 316.423C197.355 315.678 196.297 317.575 197.453 318.315H197.463Z" fill="#10100E"/>
<path d="M149.127 455.038L162.235 447.47C163.205 446.91 162.476 445.64 161.503 446.202L148.394 453.77C147.421 454.332 148.153 455.6 149.127 455.038Z" fill="#10100E"/>
<path d="M158.899 456.856L151.697 444.381C151.131 443.401 149.864 444.132 150.43 445.113L157.633 457.587C158.201 458.572 159.468 457.84 158.899 456.856Z" fill="#10100E"/>
<path d="M299.143 466.862C299.143 466.862 278.172 435.462 257.88 420.007" stroke="black" stroke-width="2"/>
<path d="M1699.69 283.068C1694.42 279.676 1687.21 283.855 1686.28 290.029C1685.28 296.713 1692.13 301.214 1697.9 300.525C1704.28 299.757 1708.38 292.423 1706.2 286.178C1704.02 279.932 1696.27 278.128 1691.41 282.123C1690.1 283.193 1691.95 285.082 1693.23 284.019C1696.9 281.015 1702.78 283.009 1703.97 287.713C1705.16 292.416 1701.92 297.592 1697.14 297.907C1693.41 298.157 1688.79 295.592 1688.78 291.242C1688.78 286.479 1694.47 282.865 1698.4 285.384C1699.82 286.296 1701.12 283.973 1699.7 283.068H1699.69Z" fill="#10100E"/>
<path d="M1635.68 407.412C1631.9 404.982 1626.74 407.976 1626.07 412.398C1625.35 417.186 1630.26 420.41 1634.39 419.916C1638.97 419.367 1641.9 414.113 1640.34 409.639C1638.78 405.165 1633.23 403.873 1629.74 406.735C1628.81 407.501 1630.13 408.854 1631.05 408.093C1633.68 405.941 1637.89 407.369 1638.74 410.739C1639.6 414.108 1637.27 417.816 1633.85 418.041C1631.18 418.22 1627.87 416.383 1627.86 413.267C1627.86 409.855 1631.93 407.266 1634.75 409.07C1635.77 409.724 1636.7 408.06 1635.69 407.412H1635.68Z" fill="#10100E"/>
<path d="M1767.32 365.23C1763.97 363.072 1759.38 365.731 1758.79 369.659C1758.15 373.913 1762.52 376.777 1766.18 376.338C1770.25 375.85 1772.85 371.183 1771.47 367.209C1770.08 363.235 1765.15 362.087 1762.05 364.629C1761.22 365.309 1762.4 366.512 1763.22 365.835C1765.55 363.924 1769.29 365.193 1770.05 368.186C1770.81 371.179 1768.74 374.472 1765.7 374.673C1763.33 374.831 1760.39 373.199 1760.38 370.431C1760.38 367.401 1764 365.101 1766.5 366.704C1767.41 367.284 1768.23 365.806 1767.33 365.23H1767.32Z" fill="#2662FA"/>
<path d="M1701.96 539.928C1698.38 537.622 1693.47 540.463 1692.84 544.661C1692.16 549.207 1696.82 552.267 1700.74 551.799C1705.08 551.277 1707.87 546.289 1706.39 542.043C1704.91 537.796 1699.64 536.569 1696.33 539.286C1695.44 540.013 1696.7 541.298 1697.57 540.575C1700.06 538.532 1704.06 539.888 1704.87 543.086C1705.69 546.285 1703.48 549.805 1700.23 550.019C1697.69 550.188 1694.55 548.444 1694.54 545.486C1694.54 542.248 1698.41 539.79 1701.09 541.503C1702.05 542.123 1702.93 540.544 1701.97 539.928H1701.96Z" fill="#10100E"/>
<path d="M1719.76 432.873C1714.7 429.617 1707.78 433.628 1706.89 439.555C1705.92 445.972 1712.51 450.292 1718.04 449.631C1724.17 448.894 1728.1 441.853 1726.01 435.858C1723.92 429.862 1716.48 428.13 1711.81 431.966C1710.55 432.992 1712.32 434.806 1713.56 433.786C1717.08 430.901 1722.72 432.816 1723.87 437.331C1725.02 441.847 1721.9 446.816 1717.31 447.118C1713.73 447.358 1709.29 444.895 1709.29 440.72C1709.29 436.147 1714.74 432.677 1718.52 435.096C1719.89 435.971 1721.13 433.742 1719.77 432.873H1719.76Z" fill="#2662FA"/>
<path d="M1785.48 472.318L1770.72 480.843C1769.63 481.473 1770.45 482.904 1771.54 482.271L1786.31 473.746C1787.4 473.113 1786.58 471.685 1785.48 472.318Z" fill="#2662FA"/>
<path d="M1775.39 470.272L1783.5 484.32C1784.14 485.424 1785.57 484.6 1784.93 483.496L1776.82 469.448C1776.18 468.34 1774.75 469.164 1775.39 470.272Z" fill="#2662FA"/>
<path d="M1721.63 432.398C1721.63 432.398 1748.84 409.333 1763.67 374.734" stroke="#2662FA" stroke-width="3"/>
</g>
</svg>
