<svg width="1916" height="292" viewBox="0 0 1916 292" fill="none" xmlns="http://www.w3.org/2000/svg">
<path fill-rule="evenodd" clip-rule="evenodd" d="M1886.68 122.598C1887.45 124.054 1886.9 125.862 1885.44 126.636C1883.99 127.41 1882.18 126.857 1881.41 125.402C1880.63 123.946 1881.19 122.138 1882.64 121.364C1884.1 120.59 1885.91 121.143 1886.68 122.598" fill="#007BFF"/>
<path fill-rule="evenodd" clip-rule="evenodd" d="M1890.74 193.021L1884.97 191.258L1886.73 185.489L1892.5 187.253L1890.74 193.021" fill="#BCD5FF"/>
<path fill-rule="evenodd" clip-rule="evenodd" d="M1790.36 120.475C1792.99 126.151 1800.01 147.087 1803.11 162.859C1804.13 168.037 1804.72 172.659 1804.59 176.003C1804.58 176.362 1804.56 176.708 1804.53 177.04L1792.33 182.317C1792.09 179.865 1791.84 177.354 1791.56 174.78C1791.08 170.424 1790.53 165.91 1789.85 161.293C1788.03 148.865 1785.29 135.719 1780.67 123.069L1790.36 120.475" fill="#FF5C33"/>
<path fill-rule="evenodd" clip-rule="evenodd" d="M1804.53 176.562L1792.2 174.762C1791.65 170.963 1791.03 167.042 1790.33 163.033C1791.14 162.69 1791.67 162.412 1791.67 162.412L1791.87 161.071C1795.55 160.986 1799.12 161.69 1802.55 163.334C1803.74 168.564 1804.51 173.219 1804.53 176.562" fill="#C8482C"/>
<path fill-rule="evenodd" clip-rule="evenodd" d="M1803.19 43.2904L1828.3 122.937L1746.65 148.62L1737.75 120.397C1735.99 122.436 1733.65 124.036 1730.87 124.91C1723.09 127.358 1714.84 123.193 1712.45 115.603C1710.06 108.013 1714.42 99.8822 1722.21 97.434C1724.98 96.5608 1727.82 96.5254 1730.43 97.1958L1721.53 68.9735L1750.33 59.9153C1748.37 58.2419 1746.84 56.0261 1746.01 53.4057C1743.62 45.8221 1747.99 37.6825 1755.77 35.2368C1763.55 32.7886 1771.8 36.9599 1774.19 44.5435C1775.02 47.1639 1775.04 49.8528 1774.39 52.3493L1803.19 43.2904" fill="#007BFF"/>
<path fill-rule="evenodd" clip-rule="evenodd" d="M1754.71 69.8332C1760.08 68.1522 1763.61 63.4306 1767.03 58.8615C1767.78 57.8698 1768.54 56.8434 1769.31 55.8761C1770.35 54.573 1771.42 53.355 1772.52 52.2173C1772.56 52.0268 1772.58 51.8338 1772.61 51.6418C1771.38 52.8805 1770.19 54.216 1769.05 55.6557C1768.28 56.6263 1767.51 57.6549 1766.76 58.6489C1763.38 63.1757 1759.87 67.8575 1754.61 69.5037C1748.5 71.4129 1741.98 68.4155 1737.51 63.8759L1737.15 63.9883C1739 65.9108 1741.16 67.5144 1743.47 68.6402C1747.32 70.5178 1751.21 70.9303 1754.71 69.8332" fill="white"/>
<path fill-rule="evenodd" clip-rule="evenodd" d="M1800.46 78.0554C1796.87 80.4196 1793.16 82.8636 1790.42 86.1057C1784.08 93.5905 1783.35 105.591 1788.63 115.289C1792.09 121.629 1797.81 126.947 1805.11 130.724L1805.57 130.578C1798.18 126.825 1792.39 121.498 1788.93 115.129C1783.71 105.551 1784.43 93.7064 1790.67 86.3259C1793.39 83.1197 1797.08 80.6885 1800.65 78.338C1803.46 76.4845 1806.33 74.5938 1808.7 72.313L1808.59 71.9722C1806.26 74.2306 1803.41 76.1143 1800.46 78.0554" fill="white"/>
<path fill-rule="evenodd" clip-rule="evenodd" d="M1728.12 124.353C1730.36 118.577 1734.34 114.032 1739.32 111.921C1742.32 110.65 1745.67 110.212 1748.91 109.789C1752.95 109.26 1757.12 108.715 1760.62 106.534C1765.76 103.329 1768.36 97.2629 1770.45 92.3891L1790.38 45.9356L1789.95 46.0691L1770.14 92.2532C1767.6 98.1859 1765.11 103.333 1760.44 106.247C1757.01 108.385 1752.87 108.928 1748.86 109.452C1745.6 109.878 1742.23 110.319 1739.19 111.608C1734.08 113.772 1730.01 118.446 1727.74 124.377C1727.87 124.371 1727.99 124.362 1728.12 124.353" fill="white"/>
<path fill-rule="evenodd" clip-rule="evenodd" d="M1761.15 136.598C1755.3 136.336 1749.4 137.627 1744.1 140.184L1744.2 140.498C1749.46 137.952 1755.32 136.665 1761.13 136.924C1765.79 137.133 1770.35 138.337 1774.5 140.348L1774.96 140.201C1770.69 138.079 1765.97 136.813 1761.15 136.598" fill="white"/>
<path fill-rule="evenodd" clip-rule="evenodd" d="M1756.07 255.006L1757.04 259.885L1750.71 269.8L1769.29 264.403L1763.75 251.639L1756.07 255.006" fill="#001F40"/>
<path fill-rule="evenodd" clip-rule="evenodd" d="M1761.58 262.759L1757.57 260.469L1757.85 259.911L1761.87 262.2L1761.58 262.759" fill="white"/>
<path fill-rule="evenodd" clip-rule="evenodd" d="M1799.16 198.978C1799.16 198.978 1799.08 204.111 1795.54 209.57C1792.77 213.864 1787.87 218.363 1779.2 220.726L1773.2 222.175L1770.59 222.807L1767.49 223.554L1759.9 225.391L1759.94 225.541L1766.11 251.356L1764.34 252.043L1756.26 255.182L1753.73 256.159L1740.85 224.321L1774.72 201.066L1784.67 194.234L1785.19 193.875L1788.3 195.011L1795.41 197.606L1799.16 198.978" fill="#FFB900"/>
<path fill-rule="evenodd" clip-rule="evenodd" d="M1796.3 197.192C1796.3 197.192 1796.31 197.574 1796.25 198.253C1796.09 200.162 1795.47 204.389 1793 208.924C1790.06 214.313 1784.51 220.137 1774.01 222.991C1773.17 223.22 1772.3 223.429 1771.39 223.62C1771.04 223.697 1770.68 223.765 1770.32 223.832L1768.28 224.363L1760.69 226.343L1746.23 230.113L1744.64 232.789L1726.65 263.07L1714.75 255.491L1731.77 222.266C1732.85 220.14 1734.44 218.317 1736.38 216.959C1737.31 216.313 1738.29 215.779 1739.34 215.369L1764.15 205.532L1771.52 200.044L1780.12 193.64L1785.44 194.808L1789.1 195.606L1796.3 197.192" fill="#FFB900"/>
<path fill-rule="evenodd" clip-rule="evenodd" d="M1786.83 218.352C1786.44 218.562 1786.04 218.766 1785.63 218.966C1780.05 221.691 1748.51 229.685 1746.26 230.255L1740.28 239.626L1739.94 239.429L1746.01 229.916L1746.09 229.895C1746.43 229.811 1779.84 221.364 1785.46 218.617C1791.05 215.881 1795.06 212.331 1797.05 208.346L1797.41 208.507C1795.53 212.279 1791.89 215.665 1786.83 218.352" fill="#001F40"/>
<path fill-rule="evenodd" clip-rule="evenodd" d="M1796.35 210.515C1795.21 210.282 1794.07 210.015 1792.93 209.719C1793.03 209.551 1793.12 209.385 1793.22 209.219C1795.85 204.585 1796.56 200.294 1796.76 198.358L1800.65 199.713C1800.65 199.713 1800.5 204.567 1797.16 209.946C1797.28 209.719 1797.4 209.49 1797.51 209.26L1797.14 209.087C1796.9 209.57 1796.64 210.047 1796.35 210.515M1789.4 195.796L1785.63 195.048L1786.17 194.674L1789.4 195.796" fill="#E5A907"/>
<path fill-rule="evenodd" clip-rule="evenodd" d="M1792.24 209.472C1785.48 207.522 1778.56 204.389 1771.47 200.107L1779.83 193.851L1785.04 195.035L1788.61 195.845L1795.66 197.452C1795.66 197.452 1795.67 197.829 1795.62 198.498C1795.47 200.378 1794.89 204.539 1792.51 208.992C1792.42 209.152 1792.33 209.312 1792.24 209.472" fill="#E5A907"/>
<path fill-rule="evenodd" clip-rule="evenodd" d="M1796.44 210.327C1796.3 210.296 1796.16 210.263 1796.02 210.23C1796.32 209.721 1796.59 209.202 1796.83 208.674L1797.23 208.874C1797.12 209.126 1797 209.375 1796.87 209.622C1796.74 209.856 1796.59 210.092 1796.44 210.327" fill="#001F40"/>
<path fill-rule="evenodd" clip-rule="evenodd" d="M1792.95 158.506L1794.1 170.098L1785.06 170.914L1784.62 168.207L1783.48 161.249L1789.62 161.253L1792.95 158.506" fill="#FFBA9A"/>
<path fill-rule="evenodd" clip-rule="evenodd" d="M1789.56 161.268L1789.98 162.369C1788.72 164.813 1786.9 166.733 1784.49 168.078L1783.48 161.367L1789.56 161.268" fill="#001F40"/>
<path fill-rule="evenodd" clip-rule="evenodd" d="M1779.16 152.693C1779.16 152.693 1779.03 163.032 1782.19 164.189C1785.34 165.348 1790.67 162.514 1790.67 162.514L1792.23 153.419L1786.22 150.828L1779.16 152.693" fill="#FFBA9A"/>
<path fill-rule="evenodd" clip-rule="evenodd" d="M1779.65 156.39C1778.45 158.091 1777.63 159.7 1778.36 160.153C1779.33 160.763 1780.61 160.712 1780.61 160.712L1779.65 156.39" fill="#FFBA9A"/>
<path fill-rule="evenodd" clip-rule="evenodd" d="M1774.81 149.801C1776.66 153.058 1778.51 155.364 1783.58 152.852C1784.3 152.92 1786.79 155.942 1786.57 156.834L1792.27 161.774C1795.08 156.451 1796.2 150.42 1790.55 148.63C1790.55 148.63 1786.53 144.079 1782.21 146.973C1777.95 149.816 1774.81 149.801 1774.81 149.801" fill="#001F40"/>
<path fill-rule="evenodd" clip-rule="evenodd" d="M1789.45 157.283C1789.11 158.551 1788.03 159.382 1787.04 159.137C1786.04 158.893 1785.51 157.668 1785.85 156.399C1786.19 155.13 1787.28 154.3 1788.27 154.543C1789.27 154.787 1789.79 156.015 1789.45 157.283" fill="#FFBA9A"/>
<path fill-rule="evenodd" clip-rule="evenodd" d="M1788.32 157.823L1787.83 158.036C1787.51 157.329 1787.51 156.47 1787.84 155.893C1788.05 155.508 1788.39 155.296 1788.79 155.29L1788.84 155.857C1788.61 155.86 1788.43 155.977 1788.31 156.205C1788.07 156.621 1788.08 157.3 1788.32 157.823" fill="#001F40"/>
<path fill-rule="evenodd" clip-rule="evenodd" d="M1784.5 160.455C1783.56 160.953 1782.4 160.598 1781.91 159.661C1781.41 158.726 1781.76 157.564 1782.7 157.066C1783.64 156.568 1784.8 156.924 1785.3 157.859C1785.79 158.796 1785.44 159.958 1784.5 160.455" fill="#FFA785"/>
<path fill-rule="evenodd" clip-rule="evenodd" d="M1771.64 193.431L1777.11 172.468C1777.31 171.683 1777.82 171.005 1778.51 170.588C1783.46 167.613 1786.14 167.369 1790.72 166.944C1792.71 166.759 1794.72 166.979 1796.63 167.59C1801.41 169.126 1804.55 173.738 1804.23 178.76L1802.83 200.624C1802.69 202.869 1800.52 204.399 1798.36 203.78L1774.02 197.119C1772.4 196.678 1771.38 195.084 1771.64 193.431" fill="#FF5C33"/>
<path fill-rule="evenodd" clip-rule="evenodd" d="M1758.41 122.941C1758.34 123.022 1758.27 123.11 1758.2 123.205C1757.63 122.6 1755.81 122.873 1755.38 124.623C1755.06 123.575 1753.27 124.134 1752.3 125.432C1749.42 129.092 1749.05 135.14 1750.57 141.974L1761.24 136.699C1760.15 132.328 1759.91 128.064 1760.99 124.293C1761.41 122.788 1759.48 121.741 1758.41 122.941" fill="#FFBA9A"/>
<path fill-rule="evenodd" clip-rule="evenodd" d="M1774.85 182.088L1785.58 171.625C1780.1 169.937 1765.65 152.869 1761.66 137.218L1750.09 138.736C1752.18 155.278 1762.83 171.842 1774.85 182.088" fill="#FF5C33"/>
<path fill-rule="evenodd" clip-rule="evenodd" d="M1862.35 146.322L1854.88 148.241L1853.35 137.584L1854.11 137.472L1855.52 147.283L1862.16 145.577L1862.35 146.322" fill="#95BEFF"/>
<path fill-rule="evenodd" clip-rule="evenodd" d="M1717.73 254.853L1714.51 258.944L1702.76 260.365L1718.67 272.189L1725.2 258.974L1717.73 254.853" fill="#001F40"/>
<path fill-rule="evenodd" clip-rule="evenodd" d="M20.2661 74.0426C20.299 75.9268 18.7981 77.4811 16.9138 77.5139C15.0297 77.5468 13.4755 76.046 13.4426 74.1617C13.4097 72.2774 14.9106 70.7233 16.7947 70.6904C18.679 70.6576 20.2332 72.1583 20.2661 74.0426" fill="#007BFF"/>
<path fill-rule="evenodd" clip-rule="evenodd" d="M49.9658 194.672L50.3373 197.403L83.5205 214.193L115.08 209.169L137.993 177.246L136.363 174.726L101.844 197.631L49.9658 194.672" fill="#BCD5FF"/>
<path fill-rule="evenodd" clip-rule="evenodd" d="M112.481 181.09L111.539 182.063L83.9986 210.529L83.3826 211.161L50.0763 194.285L77.8388 165.085L112.481 181.09" fill="white"/>
<path fill-rule="evenodd" clip-rule="evenodd" d="M112.58 180.575L136.764 173.792L113.873 205.902L83.2147 211.264L112.58 180.575" fill="#E2EDFF"/>
<path fill-rule="evenodd" clip-rule="evenodd" d="M136.764 173.792L112.58 180.575L83.2147 211.264L113.873 205.902L136.764 173.792ZM133.334 176.202L113.074 204.626L87.1575 209.157L113.321 181.815L133.334 176.202V176.202Z" fill="white"/>
<path fill-rule="evenodd" clip-rule="evenodd" d="M135.276 69.9698C132.569 77.643 136.812 86.0955 144.754 88.8499C147.591 89.8338 150.515 89.958 153.227 89.3596L143.158 117.9L59.7929 88.9826L70.1083 59.7417C67.0503 60.6989 63.6413 60.7141 60.3505 59.5726C52.4099 56.8183 48.1662 48.3656 50.873 40.6926C53.58 33.0194 62.2119 29.0329 70.1525 31.7874C73.4433 32.9289 76.0993 35.0479 77.8887 37.6865L88.2043 8.44558L171.569 37.3629L161.502 65.9032C159.757 63.7593 157.393 62.0485 154.556 61.0647C146.614 58.3103 137.984 62.2967 135.276 69.9698" fill="#FFB900"/>
<path fill-rule="evenodd" clip-rule="evenodd" d="M62.0272 89.9483L61.0332 88.7611L60.8126 89.3745L61.0006 89.5991L62.0272 89.9483" fill="white"/>
<path fill-rule="evenodd" clip-rule="evenodd" d="M69.8063 60.1764C69.9217 60.1436 70.0372 60.111 70.1517 60.0751L60.9615 47.8842L60.7082 48.1076L69.8063 60.1764" fill="white"/>
<path fill-rule="evenodd" clip-rule="evenodd" d="M52.8884 39.0275C52.8277 39.1276 52.7665 39.2273 52.7083 39.3292L60.2243 48.1341L60.487 47.9295L52.8884 39.0275" fill="white"/>
<path fill-rule="evenodd" clip-rule="evenodd" d="M106.505 105.675L107.132 105.889L92.6455 88.4757L92.3772 88.6903L106.505 105.675" fill="white"/>
<path fill-rule="evenodd" clip-rule="evenodd" d="M69.7213 60.306L69.5815 60.6971L75.8535 68.2291L76.1331 68.006L69.7213 60.306" fill="white"/>
<path fill-rule="evenodd" clip-rule="evenodd" d="M76.9692 69.2208L76.7 69.4382L92.8289 89.0192L93.0982 88.8019L76.9692 69.2208" fill="white"/>
<path fill-rule="evenodd" clip-rule="evenodd" d="M128.96 91.8292L129.228 91.6117L113.1 72.0309L112.83 72.2483L128.96 91.8292" fill="white"/>
<path fill-rule="evenodd" clip-rule="evenodd" d="M145.819 112.303L146.089 112.085L129.959 92.5045L129.69 92.7221L145.819 112.303" fill="white"/>
<path fill-rule="evenodd" clip-rule="evenodd" d="M96.3707 52.5775L112.5 72.1583L112.769 71.941L96.6401 52.36L96.3707 52.5775" fill="white"/>
<path fill-rule="evenodd" clip-rule="evenodd" d="M80.5283 32.2769L80.3696 32.4046L80.3137 32.5622L96.4402 52.0744L96.7107 51.8568L80.5283 32.2769" fill="white"/>
<path fill-rule="evenodd" clip-rule="evenodd" d="M146.12 112.44L146.313 111.633L145.919 112.091L146.12 112.44" fill="white"/>
<path fill-rule="evenodd" clip-rule="evenodd" d="M116.111 35.6154L116.381 35.398L100.253 15.817L99.9832 16.0344L116.111 35.6154" fill="white"/>
<path fill-rule="evenodd" clip-rule="evenodd" d="M97.1113 11.9187L96.5022 11.6973L99.9266 16.054L100.188 15.833L97.1113 11.9187" fill="white"/>
<path fill-rule="evenodd" clip-rule="evenodd" d="M140.093 64.609C140.183 64.5355 140.276 64.4641 140.368 64.3926L133.283 56.2963L133.003 56.5085L140.093 64.609" fill="white"/>
<path fill-rule="evenodd" clip-rule="evenodd" d="M132.571 55.6872L132.841 55.4699L116.712 35.8888L116.442 36.1062L132.571 55.6872" fill="white"/>
<path fill-rule="evenodd" clip-rule="evenodd" d="M143.408 28.2061L152.581 39.6896L152.84 39.4749L144.01 28.4209L143.408 28.2061" fill="white"/>
<path fill-rule="evenodd" clip-rule="evenodd" d="M165.585 54.9107L165.721 54.5267L152.882 39.0723L152.607 39.2915L165.585 54.9107" fill="white"/>
<path fill-rule="evenodd" clip-rule="evenodd" d="M138.746 117.161L139.138 117.313L145.378 111.711L145.64 111.476L145.862 110.771L145.429 111.161L145.154 111.407L138.746 117.161" fill="white"/>
<path fill-rule="evenodd" clip-rule="evenodd" d="M109.977 106.925L110.359 107.056L128.637 92.4236L128.903 92.2095L137.703 85.1651C137.628 85.0787 137.56 84.9892 137.487 84.9014L128.686 91.9475L128.42 92.1615L109.977 106.925" fill="white"/>
<path fill-rule="evenodd" clip-rule="evenodd" d="M161.826 65.8787L162.532 65.3184L162.768 64.6577L161.58 65.6017C161.665 65.6924 161.745 65.7862 161.826 65.8787" fill="white"/>
<path fill-rule="evenodd" clip-rule="evenodd" d="M132.659 55.7648L132.391 55.9832L112.756 72.0352L112.489 72.2537L81.8323 97.3162L82.2143 97.4502L92.8052 88.792L93.0723 88.5735L112.707 72.5218L112.975 72.3032L132.609 56.2514L132.877 56.0327L152.511 39.981L152.779 39.7625L159.823 34.0031L159.441 33.8691L152.561 39.4944L152.293 39.713L132.659 55.7648" fill="white"/>
<path fill-rule="evenodd" clip-rule="evenodd" d="M97.0519 52.7377L97.321 52.518L117.088 36.3861L117.357 36.1665L132.195 24.0581L131.81 23.9234L117.138 35.8971L116.869 36.1167L77.0651 68.6001L76.796 68.8195L64.721 78.6739L64.5017 79.3013L77.0156 69.0891L77.2846 68.8695L97.0519 52.7377" fill="white"/>
<path fill-rule="evenodd" clip-rule="evenodd" d="M53.1325 54.0188L76.3132 35.7893C76.2289 35.7109 76.1503 35.6276 76.0638 35.5509L52.9377 53.7373C53.0023 53.8314 53.0655 53.9261 53.1325 54.0188" fill="white"/>
<path fill-rule="evenodd" clip-rule="evenodd" d="M100.016 16.2312L102.81 14.0123L102.43 13.8826L80.4551 31.3305L80.2372 31.9362L80.394 31.8117L100.016 16.2312" fill="white"/>
<path fill-rule="evenodd" clip-rule="evenodd" d="M96.3001 127.23L97.0586 140.941L89.1544 141.407L88.3959 127.696L96.3001 127.23" fill="#974245"/>
<path fill-rule="evenodd" clip-rule="evenodd" d="M96.5603 127.24L97.012 135.262C94.7635 134.578 91.8134 131.775 90.0733 128.781L94.5645 127.356L96.5603 127.24" fill="#4A191B"/>
<path fill-rule="evenodd" clip-rule="evenodd" d="M99.9261 123.677C101.379 126.069 101.439 128.011 99.3542 127.019C97.2697 126.028 99.9261 123.677 99.9261 123.677" fill="#974245"/>
<path fill-rule="evenodd" clip-rule="evenodd" d="M99.6281 121.274C99.6281 121.274 100.6 131.826 96.5688 132.063C92.5375 132.3 88.5998 129.028 88.5998 129.028L88.4438 121.03L94.9964 117.642L99.6281 121.274" fill="#974245"/>
<path fill-rule="evenodd" clip-rule="evenodd" d="M93.1507 123.627C93.5703 122.063 94.7282 120.883 96.8268 120.191C96.8268 120.191 99.7123 123.686 101.787 122.191C104.716 120.079 101.563 114.986 96.8754 116.01C94.4395 113.344 91.8379 114.261 89.1509 117.015C84.1418 117.94 83.6073 120.789 84.997 124.466C81.9751 124.492 80.9949 126.003 81.4897 128.588L90.3449 130.938L92.1608 124.379L93.1507 123.627" fill="#4A191B"/>
<path fill-rule="evenodd" clip-rule="evenodd" d="M91.317 114.26C91.4161 116.031 90.0611 117.55 88.2903 117.653C86.5194 117.756 85.0036 116.405 84.9043 114.634C84.8051 112.863 86.1601 111.344 87.931 111.241C89.7018 111.138 91.2178 112.489 91.317 114.26" fill="#4A191B"/>
<path fill-rule="evenodd" clip-rule="evenodd" d="M97.1731 128.096C96.2087 128.112 95.395 127.364 95.3394 126.392C95.2825 125.396 96.0439 124.543 97.0401 124.486C97.0643 124.484 97.0887 124.484 97.1128 124.483C98.0773 124.466 98.891 125.214 98.9464 126.186C99.0035 127.182 98.2421 128.036 97.246 128.093C97.2217 128.094 97.1974 128.095 97.1731 128.096" fill="#803638"/>
<path fill-rule="evenodd" clip-rule="evenodd" d="M94.5729 122.972C95.1798 124.078 95.0253 125.382 94.2278 125.885C93.4303 126.387 92.2916 125.896 91.6846 124.79C91.0775 123.683 91.232 122.379 92.0295 121.877C92.8272 121.375 93.9658 121.865 94.5729 122.972" fill="#974245"/>
<path fill-rule="evenodd" clip-rule="evenodd" d="M93.4168 124.88C93.34 123.974 92.9266 123.44 92.1163 123.2L92.3251 122.49C93.434 122.818 94.0489 123.601 94.1521 124.817L93.4168 124.88" fill="#4A191B"/>
<path fill-rule="evenodd" clip-rule="evenodd" d="M115.538 129.895C112.135 133.615 107.047 135.371 102.07 134.601C94.5659 133.439 85.2977 134.013 80.1491 139.732L78.5737 171.153C78.5081 172.463 79.7702 173.431 81.0142 173.028L104.934 165.27C105.744 165.007 106.274 164.227 106.223 163.377L105.497 151.311C117.739 149.511 129.55 130.38 135.068 118.646L126.854 112.085C123.157 119.418 119.403 125.671 115.538 129.895" fill="#007BFF"/>
<path fill-rule="evenodd" clip-rule="evenodd" d="M137.886 106.884C138.434 106.161 136.978 104.76 136.105 105.71C136.897 104.276 135.239 103.157 134.375 103.589C134.249 101.991 133.482 101.596 132.076 102.406C130.553 105.778 129.024 109.023 127.483 112.078L135.427 118.422C138.425 112.048 139.558 107.099 137.886 106.884" fill="#974245"/>
<path fill-rule="evenodd" clip-rule="evenodd" d="M113.272 181.586L83.637 211.839L81.0152 173.749L105.396 166.491L113.272 181.586" fill="#FF5C33"/>
<path fill-rule="evenodd" clip-rule="evenodd" d="M82.1365 179.695V179.695L81.6922 173.038L105.455 165.637L106.909 168.555L82.1365 179.695" fill="#C8482C"/>
<path fill-rule="evenodd" clip-rule="evenodd" d="M87.2196 143.336L81.3412 158.11C80.54 157.128 79.7521 156.129 78.9913 155.125C76.9398 152.43 75.0234 149.657 73.3025 146.771C64.6924 132.385 60.7745 115.332 68.1145 92.8959L78.3047 95.0774C73.5821 108.498 77.2708 123.333 81.6108 133.314C82.2571 134.796 82.915 136.167 83.557 137.408C84.9045 139.992 86.1947 142.033 87.2196 143.336" fill="#007BFF"/>
<path fill-rule="evenodd" clip-rule="evenodd" d="M77.4434 80.4178C77.6771 79.5168 79.7507 79.7957 79.5425 81.1025C80.1951 79.5525 82.1692 80.1731 82.3753 81.1428C83.7529 80.2268 84.5661 80.5918 84.8145 82.2377C82.6478 86.4089 80.6404 90.4685 78.9054 94.3367L68.526 92.1578C72.1027 84.3193 76.0438 79.0671 77.4434 80.4178" fill="#974245"/>
<path fill-rule="evenodd" clip-rule="evenodd" d="M79.7843 154.985C77.7354 152.3 75.8215 149.539 74.103 146.663C75.9035 140.587 78.3703 135.617 82.4015 133.258C83.0469 134.734 83.7039 136.1 84.3451 137.336L84.3827 137.534C79.0661 140.354 79.6295 147.286 79.7843 154.985" fill="#005FC5"/>
<path fill-rule="evenodd" clip-rule="evenodd" d="M16.2518 126.652C16.2731 127.872 15.302 128.877 14.0828 128.899C12.8637 128.92 11.8579 127.949 11.8366 126.729C11.8153 125.51 12.7866 124.505 14.0057 124.483C15.2249 124.462 16.2305 125.433 16.2518 126.652" fill="#95BEFF"/>
<path fill-rule="evenodd" clip-rule="evenodd" d="M25.0836 126.652C25.1049 127.872 24.1337 128.877 22.9145 128.899C21.6954 128.92 20.6897 127.949 20.6684 126.729C20.6471 125.51 21.6183 124.505 22.8374 124.483C24.0567 124.462 25.0623 125.433 25.0836 126.652" fill="#95BEFF"/>
<path fill-rule="evenodd" clip-rule="evenodd" d="M34.3168 126.251C34.3381 127.47 33.3669 128.476 32.1478 128.497C30.9285 128.519 29.9229 127.547 29.9016 126.328C29.8803 125.109 30.8514 124.103 32.0707 124.082C33.2898 124.061 34.2955 125.032 34.3168 126.251" fill="#95BEFF"/>
<path fill-rule="evenodd" clip-rule="evenodd" d="M23.2715 223.884L5.2606 224.198C4.69221 224.208 4.22208 223.677 4.21047 223.012C4.19886 222.347 4.65017 221.8 5.21856 221.79L23.2294 221.475C23.7978 221.465 24.268 221.996 24.2796 222.661C24.2912 223.327 23.8399 223.874 23.2715 223.884" fill="#BCD5FF"/>
<path fill-rule="evenodd" clip-rule="evenodd" d="M16.6139 229.156L4.6924 229.364C4.21588 229.372 3.82201 228.942 3.81257 228.402L3.80466 227.948C3.79522 227.407 4.17384 226.964 4.65036 226.956L16.5718 226.748C17.0483 226.739 17.4422 227.169 17.4516 227.71L17.4596 228.163C17.469 228.704 17.0904 229.148 16.6139 229.156" fill="#BCD5FF"/>
<path fill-rule="evenodd" clip-rule="evenodd" d="M19.762 233.949L5.15704 234.204C4.64579 234.213 4.22265 233.728 4.21208 233.122L4.20835 232.908C4.19777 232.303 4.60376 231.805 5.115 231.796L19.7199 231.541C20.2313 231.532 20.6544 232.015 20.665 232.621L20.6687 232.835C20.6793 233.441 20.2734 233.94 19.762 233.949" fill="#BCD5FF"/>
<path fill-rule="evenodd" clip-rule="evenodd" d="M21.8724 227.231C21.884 227.897 21.3543 228.445 20.6893 228.457C20.0243 228.468 19.4758 227.939 19.4641 227.273C19.4525 226.608 19.9823 226.06 20.6473 226.048C21.3123 226.037 21.8608 226.566 21.8724 227.231" fill="#BCD5FF"/>
</svg>
