<svg width="1920" height="573" viewBox="0 0 1920 573" fill="none" xmlns="http://www.w3.org/2000/svg">
<rect width="1920" height="572" fill="#04091E"/>
<g opacity="0.14">
<path opacity="0.28" fill-rule="evenodd" clip-rule="evenodd" d="M1389.89 254.17C1379.07 254.17 1370.3 245.401 1370.3 234.582C1370.3 223.77 1379.07 215 1389.89 215C1400.71 215 1409.47 223.77 1409.47 234.582C1409.47 245.401 1400.71 254.17 1389.89 254.17Z" fill="#FF5C33"/>
<path fill-rule="evenodd" clip-rule="evenodd" d="M206.573 96.5851C206.573 107.4 197.802 116.17 186.987 116.17C176.173 116.17 167.402 107.4 167.402 96.5851C167.402 85.7702 176.173 77 186.987 77C197.802 77 206.573 85.7702 206.573 96.5851Z" fill="#74E2CD"/>
<path fill-rule="evenodd" clip-rule="evenodd" d="M1807.11 61.6988C1807.11 65.3038 1804.19 68.2272 1800.58 68.2272C1796.98 68.2272 1794.05 65.3038 1794.05 61.6988C1794.05 58.0938 1796.98 55.1704 1800.58 55.1704C1804.19 55.1704 1807.11 58.0938 1807.11 61.6988Z" fill="#74E2CD"/>
<path fill-rule="evenodd" clip-rule="evenodd" d="M357.815 277.135L342.582 261.902L357.815 246.669L373.048 261.902L357.815 277.135Z" fill="#BCD5FF"/>
<path fill-rule="evenodd" clip-rule="evenodd" d="M270.021 169.278C251.74 185.287 201.786 168.996 165.552 152.657L125.309 108.898C174.463 122.971 223.78 128.622 254.107 102.943L270.021 169.278Z" fill="white"/>
<path d="M270.021 169.278C251.74 185.287 201.786 168.996 165.552 152.657L125.309 108.898C174.463 122.971 223.78 128.622 254.107 102.943L270.021 169.278" stroke="#EBEBEB"/>
<path fill-rule="evenodd" clip-rule="evenodd" d="M169.215 138.849L156.863 124.049L158.656 122.528L171.008 137.329L169.215 138.849Z" fill="#BCD5FF"/>
<path fill-rule="evenodd" clip-rule="evenodd" d="M191.844 146.466L178.625 125.921L180.64 124.705L193.858 145.25L191.844 146.466Z" fill="#BCD5FF"/>
<path fill-rule="evenodd" clip-rule="evenodd" d="M245.879 158.434L236.289 123.131L238.668 122.528L248.258 157.831L245.879 158.434Z" fill="#BCD5FF"/>
<path fill-rule="evenodd" clip-rule="evenodd" d="M1722.24 565.435C1703.96 581.444 1654.01 565.153 1617.77 548.813L1577.53 505.055C1626.69 519.128 1676 524.778 1706.33 499.1L1722.24 565.435Z" fill="white"/>
<path d="M1722.24 565.435C1703.96 581.444 1654.01 565.153 1617.77 548.813L1577.53 505.055C1626.69 519.128 1676 524.778 1706.33 499.1L1722.24 565.435" stroke="#EBEBEB"/>
<path fill-rule="evenodd" clip-rule="evenodd" d="M1621.44 535.006L1609.09 520.206L1610.88 518.685L1623.23 533.485L1621.44 535.006Z" fill="#BCD5FF"/>
<path fill-rule="evenodd" clip-rule="evenodd" d="M1644.07 542.623L1630.85 522.078L1632.86 520.861L1646.08 541.406L1644.07 542.623Z" fill="#BCD5FF"/>
<path fill-rule="evenodd" clip-rule="evenodd" d="M1698.1 554.591L1688.51 519.288L1690.89 518.685L1700.48 553.988L1698.1 554.591Z" fill="#BCD5FF"/>
<path fill-rule="evenodd" clip-rule="evenodd" d="M1628 17.2866C1626.9 17.1606 1625.77 17.116 1624.66 17.1501L1624.63 16.0107C1625.79 15.9766 1626.98 16.0238 1628.13 16.1551L1628 17.2866ZM1618.11 18.3183L1617.75 17.2393C1618.85 16.8691 1620 16.5777 1621.14 16.373L1621.34 17.4939C1620.25 17.6882 1619.16 17.9665 1618.11 18.3183ZM1634.43 19.0007C1633.41 18.5622 1632.34 18.1921 1631.27 17.9086L1631.57 16.8059C1632.69 17.1078 1633.81 17.4938 1634.88 17.9558L1634.43 19.0007ZM1612.18 21.3324L1611.52 20.4031C1612.47 19.731 1613.48 19.1219 1614.52 18.5942L1615.03 19.6076C1614.05 20.1116 1613.08 20.6918 1612.18 21.3324ZM1640.09 22.5034C1639.23 21.7867 1638.32 21.1277 1637.38 20.5449L1637.98 19.5762C1638.97 20.1879 1639.92 20.8783 1640.82 21.6318L1640.09 22.5034ZM1607.37 25.9261L1606.47 25.2251C1607.19 24.3063 1607.98 23.4347 1608.82 22.6313L1609.61 23.4557C1608.81 24.2196 1608.05 25.0519 1607.37 25.9261ZM1644.5 27.4805C1643.89 26.5538 1643.21 25.6638 1642.48 24.8316L1643.33 24.0781C1644.1 24.9497 1644.82 25.8843 1645.45 26.8583L1644.5 27.4805ZM1604.08 31.7101L1603.02 31.2979C1603.44 30.2111 1603.94 29.1452 1604.52 28.1345L1605.51 28.6963C1604.96 29.6597 1604.48 30.6731 1604.08 31.7101ZM1647.29 33.5162C1646.97 32.4504 1646.58 31.4003 1646.11 30.3948L1647.15 29.917C1647.64 30.975 1648.05 32.075 1648.38 33.196L1647.29 33.5162ZM1602.61 38.1942L1601.48 38.1075C1601.57 36.9419 1601.74 35.7763 1602 34.6474L1603.11 34.8968C1602.87 35.9732 1602.7 37.0837 1602.61 38.1942ZM1649.09 43.4264L1647.96 43.261C1648.12 42.1662 1648.2 41.0479 1648.2 39.9374C1648.2 38.8741 1648.13 37.8109 1647.98 36.7713L1649.12 36.6138C1649.27 37.7059 1649.34 38.8216 1649.34 39.9374C1649.34 41.103 1649.26 42.2765 1649.09 43.4264ZM1601.96 45.0674C1601.71 43.9307 1601.55 42.765 1601.47 41.6047L1602.6 41.5259C1602.68 42.6338 1602.84 43.7416 1603.08 44.8259L1601.96 45.0674ZM1647.08 50.11L1646.04 49.6243C1646.52 48.6215 1646.92 47.574 1647.24 46.5107L1648.33 46.8389C1647.99 47.9546 1647.57 49.0546 1647.08 50.11ZM1604.44 51.594C1603.87 50.5754 1603.37 49.5095 1602.96 48.4227L1604.03 48.021C1604.42 49.0527 1604.89 50.0687 1605.43 51.0374L1604.44 51.594ZM1643.22 55.9279L1642.36 55.1665C1643.11 54.3396 1643.79 53.4522 1644.41 52.5308L1645.36 53.1608C1644.72 54.1269 1643.99 55.0589 1643.22 55.9279ZM1608.69 57.125C1607.86 56.3165 1607.07 55.437 1606.36 54.5155L1607.27 53.8198C1607.94 54.6993 1608.69 55.5341 1609.49 56.306L1608.69 57.125ZM1637.84 60.3883L1637.24 59.4143C1638.19 58.842 1639.1 58.1883 1639.96 57.4795L1640.69 58.3537C1639.79 59.1019 1638.83 59.7871 1637.84 60.3883ZM1614.37 61.2048C1613.34 60.6718 1612.33 60.0549 1611.38 59.3723L1612.05 58.4456C1612.95 59.0967 1613.91 59.6847 1614.89 60.1914L1614.37 61.2048ZM1631.41 63.111L1631.12 62.0058C1632.2 61.7275 1633.26 61.3678 1634.28 60.9346L1634.73 61.9848C1633.65 62.4389 1632.54 62.817 1631.41 63.111ZM1620.98 63.4705C1619.83 63.2579 1618.68 62.9586 1617.59 62.5832L1617.96 61.5042C1619 61.8638 1620.09 62.15 1621.18 62.3521L1620.98 63.4705ZM1625.38 63.8746C1625.07 63.8746 1624.76 63.8694 1624.46 63.8563L1624.5 62.7195C1625.61 62.7589 1626.74 62.7195 1627.84 62.604L1627.96 63.7381C1627.11 63.8274 1626.24 63.8746 1625.38 63.8746Z" fill="#95BEFF"/>
<path fill-rule="evenodd" clip-rule="evenodd" d="M1401.48 64L1423.57 111.684L1352.09 144.517L1330 96.8328L1376.77 104.253L1401.48 64Z" fill="white"/>
<path d="M1401.48 64L1423.57 111.684L1352.09 144.517L1330 96.8328L1376.77 104.253L1401.48 64" stroke="#EAEAEA"/>
<path fill-rule="evenodd" clip-rule="evenodd" d="M1400.72 64L1380.31 115.139L1330 96.9827L1400.72 64Z" fill="#95BEFF"/>
<path fill-rule="evenodd" clip-rule="evenodd" d="M184.477 480.603L206.573 528.287L135.091 561.12L113 513.436L159.77 520.856L184.477 480.603Z" fill="white"/>
<path d="M184.477 480.603L206.573 528.287L135.091 561.12L113 513.436L159.77 520.856L184.477 480.603" stroke="#EAEAEA"/>
<path fill-rule="evenodd" clip-rule="evenodd" d="M183.724 480.603L163.309 531.742L113 513.586L183.724 480.603Z" fill="#95BEFF"/>
</g>
</svg>
