<svg width="1920" height="523" viewBox="0 0 1920 523" fill="none" xmlns="http://www.w3.org/2000/svg">
<rect y="3" width="1920" height="520" fill="#04091E"/>
<path opacity="0.4" d="M1836.27 148.607C1836.27 138.736 1844.27 130.734 1854.14 130.734C1864.01 130.734 1872.01 138.736 1872.01 148.607C1872.01 158.477 1864.01 166.479 1854.14 166.479C1844.27 166.479 1836.27 158.477 1836.27 148.607Z" fill="url(#paint0_linear_1_2326)"/>
<path opacity="0.4" d="M237 193.873C237 184.002 245.002 176 254.873 176C264.744 176 272.746 184.002 272.746 193.873C272.746 203.743 264.744 211.745 254.873 211.745C245.002 211.745 237 203.743 237 193.873Z" fill="url(#paint1_linear_1_2326)"/>
<path d="M293 452.871C293 432.508 309.508 416 329.871 416C350.235 416 366.743 432.508 366.743 452.871C366.743 473.235 350.235 489.743 329.871 489.743C309.508 489.743 293 473.235 293 452.871Z" fill="#004B94" fill-opacity="0.21"/>
<path d="M1787.07 416.807L1787.07 493.237L1724.71 455.022L1787.07 416.807Z" fill="#94DCFE" fill-opacity="0.12"/>
<path opacity="0.12" d="M1769.36 415.246L1769.36 491.676L1707 453.461L1769.36 415.246Z" stroke="white" stroke-miterlimit="10"/>
<path d="M1558.96 390.876C1559.15 390.875 1559.33 390.928 1559.48 391.029C1559.64 391.131 1559.76 391.275 1559.83 391.445C1559.9 391.615 1559.92 391.803 1559.89 391.984C1559.85 392.165 1559.76 392.331 1559.63 392.462C1559.5 392.593 1559.34 392.683 1559.16 392.719C1558.97 392.756 1558.79 392.738 1558.62 392.667C1558.45 392.597 1558.3 392.478 1558.2 392.325C1558.1 392.171 1558.04 391.991 1558.04 391.807C1558.04 391.561 1558.14 391.326 1558.31 391.151C1558.48 390.977 1558.72 390.878 1558.96 390.876Z" fill="#203F79"/>
<path d="M1558.96 375.683C1559.15 375.683 1559.32 375.737 1559.48 375.839C1559.63 375.94 1559.75 376.084 1559.82 376.253C1559.89 376.422 1559.9 376.607 1559.87 376.786C1559.83 376.966 1559.75 377.13 1559.62 377.259C1559.49 377.388 1559.32 377.476 1559.14 377.512C1558.96 377.548 1558.78 377.529 1558.61 377.459C1558.44 377.389 1558.3 377.271 1558.2 377.119C1558.09 376.967 1558.04 376.789 1558.04 376.606C1558.04 376.362 1558.14 376.127 1558.31 375.954C1558.48 375.78 1558.72 375.683 1558.96 375.683Z" fill="#203F79"/>
<path d="M1558.96 360.483C1559.15 360.481 1559.33 360.535 1559.48 360.636C1559.64 360.738 1559.76 360.883 1559.83 361.054C1559.9 361.224 1559.92 361.412 1559.88 361.593C1559.85 361.774 1559.76 361.941 1559.63 362.072C1559.5 362.202 1559.33 362.291 1559.15 362.327C1558.97 362.362 1558.78 362.343 1558.61 362.272C1558.44 362.201 1558.3 362.08 1558.19 361.926C1558.09 361.772 1558.04 361.591 1558.04 361.406C1558.04 361.161 1558.14 360.926 1558.31 360.753C1558.48 360.58 1558.72 360.483 1558.96 360.483Z" fill="#203F79"/>
<path d="M1558.96 345.29C1559.15 345.29 1559.32 345.344 1559.48 345.445C1559.63 345.547 1559.75 345.691 1559.82 345.86C1559.89 346.028 1559.9 346.214 1559.87 346.393C1559.83 346.572 1559.75 346.737 1559.62 346.866C1559.49 346.995 1559.32 347.083 1559.14 347.119C1558.96 347.154 1558.78 347.136 1558.61 347.066C1558.44 346.996 1558.3 346.878 1558.2 346.726C1558.09 346.574 1558.04 346.396 1558.04 346.213C1558.04 345.968 1558.14 345.733 1558.31 345.56C1558.48 345.387 1558.72 345.29 1558.96 345.29Z" fill="#203F79"/>
<path d="M1558.96 330.089C1559.15 330.089 1559.32 330.144 1559.48 330.245C1559.63 330.346 1559.75 330.491 1559.82 330.659C1559.89 330.828 1559.9 331.014 1559.87 331.193C1559.83 331.372 1559.75 331.536 1559.62 331.666C1559.49 331.795 1559.32 331.883 1559.14 331.918C1558.96 331.954 1558.78 331.936 1558.61 331.866C1558.44 331.796 1558.3 331.677 1558.2 331.526C1558.09 331.374 1558.04 331.195 1558.04 331.013C1558.04 330.768 1558.14 330.533 1558.31 330.36C1558.48 330.187 1558.72 330.089 1558.96 330.089Z" fill="#203F79"/>
<path d="M1544.93 390.876C1545.06 390.864 1545.19 390.88 1545.31 390.921C1545.43 390.962 1545.54 391.029 1545.64 391.116C1545.73 391.203 1545.81 391.309 1545.86 391.428C1545.91 391.546 1545.94 391.674 1545.94 391.803C1545.94 391.932 1545.91 392.06 1545.86 392.178C1545.81 392.297 1545.73 392.403 1545.64 392.49C1545.54 392.577 1545.43 392.644 1545.31 392.685C1545.19 392.726 1545.06 392.742 1544.93 392.73C1544.7 392.709 1544.48 392.603 1544.32 392.431C1544.17 392.259 1544.08 392.035 1544.08 391.803C1544.08 391.571 1544.17 391.347 1544.32 391.175C1544.48 391.004 1544.7 390.897 1544.93 390.876Z" fill="#203F79"/>
<path d="M1544.93 375.683C1545.11 375.683 1545.29 375.737 1545.44 375.839C1545.59 375.94 1545.71 376.084 1545.78 376.253C1545.85 376.422 1545.87 376.607 1545.83 376.786C1545.8 376.966 1545.71 377.13 1545.58 377.259C1545.45 377.388 1545.29 377.476 1545.11 377.512C1544.93 377.548 1544.74 377.529 1544.57 377.459C1544.4 377.389 1544.26 377.271 1544.16 377.119C1544.06 376.967 1544 376.789 1544 376.606C1544.01 376.362 1544.1 376.128 1544.28 375.956C1544.45 375.783 1544.68 375.685 1544.93 375.683Z" fill="#203F79"/>
<path d="M1544.93 360.483C1545.11 360.481 1545.29 360.535 1545.45 360.636C1545.6 360.738 1545.72 360.883 1545.79 361.054C1545.86 361.224 1545.88 361.412 1545.85 361.593C1545.81 361.774 1545.72 361.941 1545.59 362.072C1545.46 362.202 1545.3 362.291 1545.11 362.327C1544.93 362.362 1544.74 362.343 1544.57 362.272C1544.4 362.201 1544.26 362.08 1544.16 361.926C1544.06 361.772 1544 361.591 1544 361.406C1544.01 361.162 1544.1 360.928 1544.28 360.755C1544.45 360.582 1544.68 360.485 1544.93 360.483Z" fill="#203F79"/>
<path d="M1544.93 345.29C1545.11 345.29 1545.29 345.344 1545.44 345.445C1545.59 345.547 1545.71 345.691 1545.78 345.86C1545.85 346.028 1545.87 346.214 1545.83 346.393C1545.8 346.572 1545.71 346.737 1545.58 346.866C1545.45 346.995 1545.29 347.083 1545.11 347.119C1544.93 347.154 1544.74 347.136 1544.57 347.066C1544.4 346.996 1544.26 346.878 1544.16 346.726C1544.06 346.574 1544 346.396 1544 346.213C1544.01 345.969 1544.1 345.735 1544.28 345.562C1544.45 345.39 1544.68 345.292 1544.93 345.29Z" fill="#203F79"/>
<path d="M1544.93 330.089C1545.11 330.089 1545.29 330.144 1545.44 330.245C1545.59 330.346 1545.71 330.491 1545.78 330.659C1545.85 330.828 1545.87 331.014 1545.83 331.193C1545.8 331.372 1545.71 331.536 1545.58 331.666C1545.45 331.795 1545.29 331.883 1545.11 331.918C1544.93 331.954 1544.74 331.936 1544.57 331.866C1544.4 331.796 1544.26 331.677 1544.16 331.526C1544.06 331.374 1544 331.195 1544 331.013C1544.01 330.768 1544.1 330.535 1544.28 330.362C1544.45 330.189 1544.68 330.091 1544.93 330.089Z" fill="#203F79"/>
<path d="M1530.93 390.876C1531.11 390.875 1531.29 390.928 1531.45 391.029C1531.6 391.131 1531.72 391.275 1531.79 391.445C1531.86 391.615 1531.88 391.803 1531.85 391.984C1531.81 392.165 1531.73 392.331 1531.6 392.462C1531.47 392.593 1531.3 392.683 1531.12 392.719C1530.94 392.756 1530.75 392.738 1530.58 392.667C1530.41 392.597 1530.26 392.478 1530.16 392.325C1530.06 392.171 1530 391.991 1530 391.807C1530 391.561 1530.1 391.326 1530.27 391.151C1530.45 390.977 1530.68 390.878 1530.93 390.876Z" fill="#203F79"/>
<path d="M1530.93 375.683C1531.11 375.683 1531.29 375.737 1531.44 375.839C1531.59 375.94 1531.71 376.084 1531.78 376.253C1531.85 376.422 1531.87 376.607 1531.83 376.786C1531.8 376.966 1531.71 377.13 1531.58 377.259C1531.45 377.388 1531.29 377.476 1531.11 377.512C1530.93 377.548 1530.74 377.529 1530.57 377.459C1530.41 377.389 1530.26 377.271 1530.16 377.119C1530.06 376.967 1530 376.789 1530 376.606C1530 376.361 1530.1 376.127 1530.27 375.954C1530.45 375.78 1530.68 375.683 1530.93 375.683Z" fill="#203F79"/>
<path d="M1530.93 360.483C1531.11 360.481 1531.29 360.535 1531.45 360.636C1531.6 360.738 1531.72 360.883 1531.79 361.054C1531.86 361.224 1531.88 361.412 1531.85 361.593C1531.81 361.774 1531.72 361.941 1531.59 362.072C1531.46 362.202 1531.3 362.291 1531.11 362.327C1530.93 362.362 1530.75 362.343 1530.58 362.272C1530.4 362.201 1530.26 362.08 1530.16 361.926C1530.06 361.772 1530 361.591 1530 361.406C1530 361.161 1530.1 360.926 1530.27 360.753C1530.45 360.58 1530.68 360.483 1530.93 360.483Z" fill="#203F79"/>
<path d="M1530.93 345.29C1531.11 345.29 1531.29 345.344 1531.44 345.445C1531.59 345.547 1531.71 345.691 1531.78 345.86C1531.85 346.028 1531.87 346.214 1531.83 346.393C1531.8 346.572 1531.71 346.737 1531.58 346.866C1531.45 346.995 1531.29 347.083 1531.11 347.119C1530.93 347.154 1530.74 347.136 1530.57 347.066C1530.41 346.996 1530.26 346.878 1530.16 346.726C1530.06 346.574 1530 346.396 1530 346.213C1530 345.968 1530.1 345.733 1530.27 345.56C1530.45 345.387 1530.68 345.29 1530.93 345.29Z" fill="#203F79"/>
<path d="M1530.93 330.089C1531.11 330.089 1531.29 330.144 1531.44 330.245C1531.59 330.346 1531.71 330.491 1531.78 330.659C1531.85 330.828 1531.87 331.014 1531.83 331.193C1531.8 331.372 1531.71 331.536 1531.58 331.666C1531.45 331.795 1531.29 331.883 1531.11 331.918C1530.93 331.954 1530.74 331.936 1530.57 331.866C1530.41 331.796 1530.26 331.677 1530.16 331.526C1530.06 331.374 1530 331.195 1530 331.013C1530 330.768 1530.1 330.533 1530.27 330.36C1530.45 330.187 1530.68 330.089 1530.93 330.089Z" fill="#203F79"/>
<path d="M1516.91 390.876C1517.09 390.875 1517.27 390.928 1517.42 391.029C1517.58 391.131 1517.7 391.275 1517.77 391.445C1517.84 391.615 1517.86 391.803 1517.83 391.984C1517.79 392.165 1517.7 392.331 1517.57 392.462C1517.44 392.593 1517.28 392.683 1517.1 392.719C1516.92 392.756 1516.73 392.738 1516.56 392.667C1516.39 392.597 1516.24 392.478 1516.14 392.325C1516.04 392.171 1515.98 391.991 1515.98 391.807C1515.98 391.561 1516.08 391.326 1516.25 391.151C1516.43 390.977 1516.66 390.878 1516.91 390.876Z" fill="#203F79"/>
<path d="M1516.91 375.683C1517.09 375.683 1517.27 375.737 1517.42 375.839C1517.57 375.94 1517.69 376.084 1517.76 376.253C1517.83 376.422 1517.85 376.607 1517.81 376.786C1517.78 376.966 1517.69 377.13 1517.56 377.259C1517.43 377.388 1517.26 377.476 1517.09 377.512C1516.91 377.548 1516.72 377.529 1516.55 377.459C1516.38 377.389 1516.24 377.271 1516.14 377.119C1516.04 376.967 1515.98 376.789 1515.98 376.606C1515.98 376.361 1516.08 376.127 1516.25 375.954C1516.43 375.78 1516.66 375.683 1516.91 375.683Z" fill="#203F79"/>
<path d="M1516.91 360.483C1517.09 360.481 1517.27 360.535 1517.43 360.636C1517.58 360.738 1517.7 360.883 1517.77 361.054C1517.84 361.224 1517.86 361.412 1517.83 361.593C1517.79 361.774 1517.7 361.941 1517.57 362.072C1517.44 362.202 1517.27 362.291 1517.09 362.327C1516.91 362.362 1516.72 362.343 1516.55 362.272C1516.38 362.201 1516.24 362.08 1516.14 361.926C1516.03 361.772 1515.98 361.591 1515.98 361.406C1515.98 361.161 1516.08 360.926 1516.25 360.753C1516.43 360.58 1516.66 360.483 1516.91 360.483Z" fill="#203F79"/>
<path d="M1516.91 345.29C1517.09 345.29 1517.27 345.344 1517.42 345.445C1517.57 345.547 1517.69 345.691 1517.76 345.86C1517.83 346.028 1517.85 346.214 1517.81 346.393C1517.78 346.572 1517.69 346.737 1517.56 346.866C1517.43 346.995 1517.26 347.083 1517.09 347.119C1516.91 347.154 1516.72 347.136 1516.55 347.066C1516.38 346.996 1516.24 346.878 1516.14 346.726C1516.04 346.574 1515.98 346.396 1515.98 346.213C1515.98 345.968 1516.08 345.733 1516.25 345.56C1516.43 345.387 1516.66 345.29 1516.91 345.29Z" fill="#203F79"/>
<path d="M1516.91 330.089C1517.09 330.089 1517.27 330.144 1517.42 330.245C1517.57 330.346 1517.69 330.491 1517.76 330.659C1517.83 330.828 1517.85 331.014 1517.81 331.193C1517.78 331.372 1517.69 331.536 1517.56 331.666C1517.43 331.795 1517.26 331.883 1517.09 331.918C1516.91 331.954 1516.72 331.936 1516.55 331.866C1516.38 331.796 1516.24 331.677 1516.14 331.526C1516.04 331.374 1515.98 331.195 1515.98 331.013C1515.98 330.768 1516.08 330.533 1516.25 330.36C1516.43 330.187 1516.66 330.089 1516.91 330.089Z" fill="#203F79"/>
<path d="M1502.89 390.876C1503.08 390.876 1503.26 390.931 1503.41 391.033C1503.56 391.135 1503.68 391.281 1503.75 391.451C1503.82 391.621 1503.84 391.808 1503.8 391.988C1503.77 392.169 1503.68 392.335 1503.55 392.465C1503.42 392.595 1503.25 392.684 1503.07 392.72C1502.89 392.756 1502.71 392.737 1502.53 392.667C1502.36 392.596 1502.22 392.477 1502.12 392.324C1502.01 392.171 1501.96 391.991 1501.96 391.807C1501.96 391.56 1502.06 391.323 1502.23 391.149C1502.41 390.974 1502.64 390.876 1502.89 390.876Z" fill="#203F79"/>
<path d="M1502.89 375.683C1503.07 375.685 1503.25 375.74 1503.4 375.842C1503.55 375.945 1503.67 376.089 1503.74 376.258C1503.81 376.427 1503.82 376.612 1503.79 376.791C1503.75 376.97 1503.66 377.133 1503.53 377.262C1503.4 377.39 1503.24 377.477 1503.06 377.512C1502.88 377.547 1502.7 377.529 1502.53 377.459C1502.36 377.389 1502.22 377.27 1502.12 377.119C1502.01 376.967 1501.96 376.789 1501.96 376.606C1501.96 376.485 1501.98 376.364 1502.03 376.251C1502.08 376.139 1502.15 376.037 1502.23 375.951C1502.32 375.865 1502.42 375.797 1502.54 375.751C1502.65 375.705 1502.77 375.682 1502.89 375.683Z" fill="#203F79"/>
<path d="M1502.89 360.483C1503.12 360.504 1503.34 360.61 1503.49 360.782C1503.65 360.953 1503.74 361.177 1503.74 361.41C1503.74 361.642 1503.65 361.866 1503.49 362.038C1503.34 362.209 1503.12 362.316 1502.89 362.337C1502.76 362.348 1502.63 362.333 1502.51 362.292C1502.39 362.25 1502.28 362.184 1502.18 362.097C1502.08 362.01 1502.01 361.903 1501.96 361.785C1501.9 361.667 1501.88 361.539 1501.88 361.41C1501.88 361.28 1501.9 361.153 1501.96 361.034C1502.01 360.916 1502.08 360.81 1502.18 360.723C1502.28 360.635 1502.39 360.569 1502.51 360.528C1502.63 360.486 1502.76 360.471 1502.89 360.483Z" fill="#203F79"/>
<path d="M1502.89 345.29C1503.07 345.291 1503.25 345.347 1503.4 345.449C1503.55 345.551 1503.67 345.696 1503.74 345.865C1503.81 346.034 1503.82 346.219 1503.79 346.398C1503.75 346.576 1503.66 346.74 1503.53 346.869C1503.4 346.997 1503.24 347.084 1503.06 347.119C1502.88 347.154 1502.7 347.135 1502.53 347.065C1502.36 346.995 1502.22 346.877 1502.12 346.725C1502.01 346.574 1501.96 346.395 1501.96 346.213C1501.96 346.091 1501.98 345.971 1502.03 345.858C1502.08 345.746 1502.15 345.643 1502.23 345.558C1502.32 345.472 1502.42 345.404 1502.54 345.358C1502.65 345.312 1502.77 345.289 1502.89 345.29Z" fill="#203F79"/>
<path d="M1502.89 330.089C1503.07 330.091 1503.25 330.146 1503.4 330.249C1503.55 330.351 1503.67 330.496 1503.74 330.665C1503.81 330.833 1503.82 331.019 1503.79 331.197C1503.75 331.376 1503.66 331.54 1503.53 331.668C1503.4 331.797 1503.24 331.884 1503.06 331.919C1502.88 331.954 1502.7 331.935 1502.53 331.865C1502.36 331.795 1502.22 331.677 1502.12 331.525C1502.01 331.373 1501.96 331.195 1501.96 331.013C1501.96 330.891 1501.98 330.77 1502.03 330.658C1502.08 330.545 1502.15 330.443 1502.23 330.357C1502.32 330.271 1502.42 330.203 1502.54 330.158C1502.65 330.112 1502.77 330.088 1502.89 330.089Z" fill="#203F79"/>
<g opacity="0.1">
<path d="M1898.31 294.41H1901.13L1884.42 258.567L1881.59 258.567L1898.31 294.41Z" fill="white"/>
<path d="M1889.14 294.41H1891.96L1875.25 258.567L1872.43 258.567L1889.14 294.41Z" fill="white"/>
<path d="M1879.97 294.41H1882.79L1866.08 258.567L1863.26 258.567L1879.97 294.41Z" fill="white"/>
<path d="M1870.81 294.41H1873.63L1856.91 258.567L1854.09 258.567L1870.81 294.41Z" fill="white"/>
<path d="M1861.63 294.41H1864.46L1847.75 258.567L1844.93 258.567L1861.63 294.41Z" fill="white"/>
<path d="M1852.47 294.41H1855.29L1838.57 258.567L1835.75 258.567L1852.47 294.41Z" fill="white"/>
<path d="M1843.3 294.41H1846.12L1829.41 258.567L1826.59 258.567L1843.3 294.41Z" fill="white"/>
<path d="M1834.13 294.41H1836.95L1820.24 258.567L1817.42 258.567L1834.13 294.41Z" fill="white"/>
</g>
<g opacity="0.52">
<path d="M889.011 135.319C889.194 135.319 889.372 135.373 889.524 135.475C889.676 135.576 889.794 135.72 889.864 135.889C889.934 136.058 889.952 136.243 889.917 136.422C889.881 136.602 889.793 136.766 889.664 136.895C889.535 137.024 889.37 137.112 889.191 137.148C889.012 137.183 888.827 137.165 888.658 137.095C888.489 137.025 888.345 136.907 888.243 136.755C888.142 136.603 888.088 136.425 888.088 136.242C888.09 135.998 888.188 135.764 888.36 135.592C888.533 135.419 888.767 135.321 889.011 135.319Z" fill="white"/>
<path d="M889.011 120.126C889.194 120.126 889.372 120.18 889.524 120.282C889.676 120.383 889.794 120.527 889.864 120.696C889.934 120.865 889.952 121.05 889.917 121.229C889.881 121.409 889.793 121.573 889.664 121.702C889.535 121.831 889.37 121.919 889.191 121.955C889.012 121.991 888.827 121.972 888.658 121.902C888.489 121.832 888.345 121.714 888.243 121.562C888.142 121.41 888.088 121.232 888.088 121.049C888.09 120.805 888.188 120.571 888.36 120.399C888.533 120.226 888.767 120.128 889.011 120.126Z" fill="white"/>
<path d="M889.011 104.926C889.194 104.926 889.372 104.98 889.524 105.081C889.676 105.183 889.794 105.327 889.864 105.496C889.934 105.664 889.952 105.85 889.917 106.029C889.881 106.208 889.793 106.373 889.664 106.502C889.535 106.631 889.37 106.719 889.191 106.754C889.012 106.79 888.827 106.772 888.658 106.702C888.489 106.632 888.345 106.514 888.243 106.362C888.142 106.21 888.088 106.032 888.088 105.849C888.09 105.605 888.188 105.371 888.36 105.198C888.533 105.026 888.767 104.928 889.011 104.926Z" fill="white"/>
<path d="M889.011 89.7253C889.196 89.7238 889.377 89.7774 889.531 89.8791C889.685 89.9808 889.806 90.126 889.877 90.2964C889.949 90.4668 889.968 90.6546 889.932 90.8358C889.896 91.0171 889.807 91.1836 889.677 91.3143C889.546 91.4449 889.38 91.5337 889.198 91.5694C889.017 91.605 888.829 91.586 888.659 91.5146C888.489 91.4432 888.343 91.3227 888.242 91.1685C888.14 91.0143 888.086 90.8333 888.088 90.6486C888.09 90.4043 888.188 90.1706 888.361 89.9979C888.533 89.8252 888.767 89.7273 889.011 89.7253Z" fill="white"/>
<path d="M889.011 74.5325C889.194 74.5325 889.372 74.5866 889.524 74.6881C889.676 74.7895 889.794 74.9337 889.864 75.1024C889.934 75.2711 889.952 75.4568 889.917 75.6359C889.881 75.815 889.793 75.9795 889.664 76.1086C889.535 76.2377 889.37 76.3257 889.191 76.3613C889.012 76.3969 888.827 76.3786 888.658 76.3088C888.489 76.2389 888.345 76.1205 888.243 75.9687C888.142 75.8169 888.088 75.6384 888.088 75.4558C888.09 75.2115 888.188 74.9778 888.36 74.8051C888.533 74.6323 888.767 74.5344 889.011 74.5325Z" fill="white"/>
<path d="M874.997 135.319C875.178 135.326 875.352 135.387 875.499 135.493C875.646 135.598 875.758 135.745 875.822 135.914C875.887 136.083 875.9 136.268 875.86 136.444C875.82 136.621 875.729 136.782 875.599 136.907C875.468 137.033 875.304 137.117 875.126 137.15C874.948 137.182 874.764 137.162 874.598 137.091C874.431 137.02 874.289 136.902 874.189 136.751C874.089 136.6 874.036 136.423 874.036 136.242C874.036 136.118 874.061 135.995 874.11 135.88C874.158 135.766 874.23 135.662 874.319 135.576C874.409 135.49 874.515 135.422 874.632 135.378C874.748 135.334 874.872 135.314 874.997 135.319Z" fill="white"/>
<path d="M874.997 120.126C875.178 120.133 875.352 120.194 875.499 120.3C875.646 120.405 875.758 120.552 875.822 120.721C875.887 120.891 875.9 121.075 875.86 121.251C875.82 121.428 875.729 121.589 875.599 121.714C875.468 121.84 875.304 121.924 875.126 121.957C874.948 121.989 874.764 121.969 874.598 121.898C874.431 121.827 874.289 121.709 874.189 121.558C874.089 121.407 874.036 121.23 874.036 121.049C874.036 120.925 874.061 120.802 874.11 120.687C874.158 120.573 874.23 120.469 874.319 120.383C874.409 120.297 874.515 120.229 874.632 120.185C874.748 120.141 874.872 120.121 874.997 120.126Z" fill="white"/>
<path d="M874.997 104.926C875.178 104.933 875.352 104.993 875.499 105.099C875.646 105.205 875.758 105.352 875.822 105.521C875.887 105.69 875.9 105.874 875.86 106.051C875.82 106.228 875.729 106.389 875.599 106.514C875.468 106.639 875.304 106.724 875.126 106.756C874.948 106.789 874.764 106.769 874.598 106.698C874.431 106.627 874.289 106.509 874.189 106.358C874.089 106.207 874.036 106.03 874.036 105.849C874.036 105.725 874.061 105.601 874.11 105.487C874.158 105.372 874.23 105.269 874.319 105.182C874.409 105.096 874.515 105.029 874.632 104.985C874.748 104.941 874.872 104.921 874.997 104.926Z" fill="white"/>
<path d="M874.997 89.7252C875.18 89.7311 875.357 89.7909 875.506 89.897C875.655 90.0032 875.77 90.151 875.836 90.3219C875.901 90.4928 875.915 90.6794 875.875 90.8581C875.835 91.0368 875.744 91.1998 875.612 91.3267C875.48 91.4536 875.313 91.5387 875.133 91.5714C874.953 91.6041 874.767 91.5829 874.599 91.5105C874.431 91.4381 874.287 91.3177 874.187 91.1644C874.087 91.0111 874.035 90.8316 874.036 90.6485C874.036 90.524 874.061 90.4008 874.11 90.2863C874.158 90.1718 874.23 90.0683 874.319 89.982C874.409 89.8958 874.515 89.8286 874.632 89.7844C874.748 89.7403 874.872 89.7202 874.997 89.7252Z" fill="white"/>
<path d="M874.997 74.5325C875.178 74.5399 875.352 74.6002 875.499 74.706C875.646 74.8118 875.758 74.9585 875.822 75.1277C875.887 75.2969 875.9 75.4813 875.86 75.6578C875.82 75.8344 875.729 75.9954 875.599 76.1208C875.468 76.2462 875.304 76.3304 875.126 76.3631C874.948 76.3958 874.764 76.3755 874.598 76.3046C874.431 76.2338 874.289 76.1155 874.189 75.9646C874.089 75.8137 874.036 75.6368 874.036 75.4558C874.036 75.3313 874.061 75.2081 874.11 75.0936C874.158 74.979 874.23 74.8755 874.319 74.7893C874.409 74.7031 874.515 74.6358 874.632 74.5917C874.748 74.5476 874.872 74.5274 874.997 74.5325Z" fill="white"/>
<path d="M860.975 135.319C861.157 135.319 861.336 135.373 861.488 135.475C861.639 135.576 861.758 135.72 861.828 135.889C861.898 136.058 861.916 136.243 861.88 136.422C861.845 136.602 861.757 136.766 861.628 136.895C861.498 137.024 861.334 137.112 861.155 137.148C860.976 137.183 860.79 137.165 860.621 137.095C860.453 137.025 860.308 136.907 860.207 136.755C860.106 136.603 860.051 136.425 860.051 136.242C860.051 135.997 860.149 135.763 860.322 135.589C860.495 135.416 860.73 135.319 860.975 135.319Z" fill="white"/>
<path d="M860.975 120.126C861.157 120.126 861.336 120.18 861.488 120.282C861.639 120.383 861.758 120.527 861.828 120.696C861.898 120.865 861.916 121.05 861.88 121.229C861.845 121.409 861.757 121.573 861.628 121.702C861.498 121.831 861.334 121.919 861.155 121.955C860.976 121.991 860.79 121.972 860.621 121.902C860.453 121.832 860.308 121.714 860.207 121.562C860.106 121.41 860.051 121.232 860.051 121.049C860.051 120.804 860.149 120.57 860.322 120.397C860.495 120.223 860.73 120.126 860.975 120.126Z" fill="white"/>
<path d="M860.975 104.926C861.157 104.926 861.336 104.98 861.488 105.081C861.639 105.183 861.758 105.327 861.828 105.496C861.898 105.664 861.916 105.85 861.88 106.029C861.845 106.208 861.757 106.373 861.628 106.502C861.498 106.631 861.334 106.719 861.155 106.754C860.976 106.79 860.79 106.772 860.621 106.702C860.453 106.632 860.308 106.514 860.207 106.362C860.106 106.21 860.051 106.032 860.051 105.849C860.051 105.604 860.149 105.369 860.322 105.196C860.495 105.023 860.73 104.926 860.975 104.926Z" fill="white"/>
<path d="M860.975 89.7253C861.159 89.7238 861.34 89.7774 861.495 89.8791C861.649 89.9808 861.769 90.126 861.841 90.2964C861.912 90.4668 861.931 90.6546 861.895 90.8358C861.86 91.0171 861.771 91.1836 861.64 91.3143C861.51 91.4449 861.343 91.5337 861.162 91.5694C860.981 91.605 860.793 91.586 860.623 91.5146C860.452 91.4432 860.307 91.3227 860.205 91.1685C860.103 91.0143 860.05 90.8333 860.051 90.6486C860.051 90.4037 860.149 90.1689 860.322 89.9957C860.495 89.8226 860.73 89.7253 860.975 89.7253Z" fill="white"/>
<path d="M860.975 74.5325C861.157 74.5325 861.336 74.5866 861.488 74.6881C861.639 74.7895 861.758 74.9337 861.828 75.1024C861.898 75.2711 861.916 75.4568 861.88 75.6359C861.845 75.815 861.757 75.9795 861.628 76.1086C861.498 76.2377 861.334 76.3257 861.155 76.3613C860.976 76.3969 860.79 76.3786 860.621 76.3088C860.453 76.2389 860.308 76.1205 860.207 75.9687C860.106 75.8169 860.051 75.6384 860.051 75.4558C860.051 75.2109 860.149 74.976 860.322 74.8029C860.495 74.6297 860.73 74.5325 860.975 74.5325Z" fill="white"/>
<path d="M846.96 135.319C847.143 135.321 847.32 135.376 847.471 135.478C847.622 135.581 847.739 135.725 847.808 135.894C847.877 136.063 847.894 136.248 847.857 136.427C847.821 136.606 847.732 136.769 847.603 136.898C847.474 137.026 847.309 137.113 847.13 137.148C846.951 137.183 846.766 137.165 846.598 137.095C846.43 137.024 846.286 136.906 846.185 136.754C846.084 136.603 846.03 136.425 846.03 136.242C846.03 136.12 846.054 136 846.101 135.887C846.147 135.775 846.216 135.673 846.303 135.587C846.389 135.501 846.492 135.433 846.605 135.387C846.718 135.341 846.838 135.318 846.96 135.319Z" fill="white"/>
<path d="M846.96 120.126C847.143 120.128 847.32 120.183 847.471 120.285C847.622 120.388 847.739 120.532 847.808 120.701C847.877 120.87 847.894 121.055 847.857 121.234C847.821 121.413 847.732 121.576 847.603 121.705C847.474 121.833 847.309 121.92 847.13 121.955C846.951 121.99 846.766 121.972 846.598 121.902C846.43 121.832 846.286 121.713 846.185 121.562C846.084 121.41 846.03 121.232 846.03 121.049C846.03 120.928 846.054 120.807 846.101 120.694C846.147 120.582 846.216 120.48 846.303 120.394C846.389 120.308 846.492 120.24 846.605 120.194C846.718 120.148 846.838 120.125 846.96 120.126Z" fill="white"/>
<path d="M846.96 104.926C847.143 104.927 847.32 104.983 847.471 105.085C847.622 105.187 847.739 105.332 847.808 105.501C847.877 105.67 847.894 105.855 847.857 106.034C847.821 106.212 847.732 106.376 847.603 106.504C847.474 106.633 847.309 106.72 847.13 106.755C846.951 106.79 846.766 106.771 846.598 106.701C846.43 106.631 846.286 106.513 846.185 106.361C846.084 106.209 846.03 106.031 846.03 105.849C846.03 105.727 846.054 105.606 846.101 105.494C846.147 105.381 846.216 105.279 846.303 105.193C846.389 105.108 846.492 105.04 846.605 104.994C846.718 104.948 846.838 104.925 846.96 104.926Z" fill="white"/>
<path d="M846.96 89.7253C847.192 89.7461 847.407 89.8528 847.564 90.0244C847.721 90.1959 847.808 90.4199 847.808 90.6523C847.808 90.8847 847.721 91.1087 847.564 91.2803C847.407 91.4518 847.192 91.5585 846.96 91.5794C846.832 91.591 846.702 91.5756 846.579 91.5343C846.457 91.493 846.344 91.4266 846.249 91.3394C846.153 91.2522 846.077 91.146 846.025 91.0277C845.973 90.9095 845.946 90.7816 845.946 90.6523C845.946 90.5231 845.973 90.3952 846.025 90.2769C846.077 90.1586 846.153 90.0525 846.249 89.9653C846.344 89.8781 846.457 89.8117 846.579 89.7704C846.702 89.729 846.832 89.7137 846.96 89.7253Z" fill="white"/>
<path d="M846.96 74.5325C847.143 74.534 847.32 74.5894 847.471 74.6917C847.622 74.7941 847.739 74.9388 847.808 75.1076C847.877 75.2765 847.894 75.4619 847.857 75.6405C847.821 75.8191 847.732 75.9829 847.603 76.1113C847.474 76.2396 847.309 76.3268 847.13 76.3618C846.951 76.3969 846.766 76.3781 846.598 76.308C846.43 76.2379 846.286 76.1196 846.185 75.9679C846.084 75.8163 846.03 75.6381 846.03 75.4558C846.03 75.3339 846.054 75.2132 846.101 75.1007C846.147 74.9882 846.216 74.8861 846.303 74.8002C846.389 74.7144 846.492 74.6466 846.605 74.6006C846.718 74.5547 846.838 74.5315 846.96 74.5325Z" fill="white"/>
<path d="M832.939 135.319C833.12 135.322 833.298 135.379 833.447 135.482C833.597 135.585 833.713 135.73 833.781 135.899C833.848 136.068 833.865 136.253 833.827 136.431C833.79 136.61 833.701 136.773 833.571 136.9C833.441 137.028 833.277 137.114 833.098 137.149C832.92 137.183 832.735 137.164 832.567 137.094C832.399 137.023 832.256 136.905 832.155 136.754C832.054 136.602 832 136.424 832 136.242C832 136.12 832.025 135.998 832.072 135.885C832.119 135.772 832.189 135.67 832.276 135.584C832.363 135.498 832.467 135.43 832.581 135.385C832.694 135.339 832.816 135.317 832.939 135.319Z" fill="white"/>
<path d="M832.939 120.126C833.121 120.126 833.3 120.18 833.452 120.282C833.603 120.383 833.722 120.527 833.792 120.696C833.861 120.865 833.88 121.05 833.844 121.229C833.808 121.409 833.721 121.573 833.591 121.702C833.462 121.831 833.298 121.919 833.119 121.955C832.94 121.991 832.754 121.972 832.585 121.902C832.417 121.832 832.272 121.714 832.171 121.562C832.069 121.41 832.015 121.232 832.015 121.049C832.015 120.804 832.113 120.57 832.286 120.397C832.459 120.223 832.694 120.126 832.939 120.126Z" fill="white"/>
<path d="M832.939 104.926C833.121 104.926 833.3 104.98 833.452 105.081C833.603 105.183 833.722 105.327 833.792 105.496C833.861 105.664 833.88 105.85 833.844 106.029C833.808 106.208 833.721 106.373 833.591 106.502C833.462 106.631 833.298 106.719 833.119 106.754C832.94 106.79 832.754 106.772 832.585 106.702C832.417 106.632 832.272 106.514 832.171 106.362C832.069 106.21 832.015 106.032 832.015 105.849C832.015 105.604 832.113 105.369 832.286 105.196C832.459 105.023 832.694 104.926 832.939 104.926Z" fill="white"/>
<path d="M832.938 89.7253C833.123 89.7238 833.304 89.7774 833.458 89.8791C833.613 89.9808 833.733 90.126 833.804 90.2964C833.876 90.4668 833.895 90.6546 833.859 90.8358C833.823 91.0171 833.735 91.1836 833.604 91.3143C833.473 91.4449 833.307 91.5337 833.126 91.5694C832.944 91.605 832.757 91.586 832.586 91.5146C832.416 91.4432 832.271 91.3227 832.169 91.1685C832.067 91.0143 832.014 90.8333 832.015 90.6486C832.015 90.4037 832.112 90.1689 832.286 89.9957C832.459 89.8226 832.694 89.7253 832.938 89.7253Z" fill="white"/>
<path d="M832.939 74.5325C833.121 74.5325 833.3 74.5866 833.452 74.6881C833.603 74.7895 833.722 74.9337 833.792 75.1024C833.861 75.2711 833.88 75.4568 833.844 75.6359C833.808 75.815 833.721 75.9795 833.591 76.1086C833.462 76.2377 833.298 76.3257 833.119 76.3613C832.94 76.3969 832.754 76.3786 832.585 76.3088C832.417 76.2389 832.272 76.1205 832.171 75.9687C832.069 75.8169 832.015 75.6384 832.015 75.4558C832.015 75.2109 832.113 74.976 832.286 74.8029C832.459 74.6297 832.694 74.5325 832.939 74.5325Z" fill="white"/>
</g>
<path d="M849.017 154.339C853.31 154.339 853.31 148.844 857.604 148.844C861.898 148.844 861.898 154.339 866.191 154.339C870.485 154.339 870.485 148.844 874.771 148.844C879.057 148.844 879.065 154.339 883.358 154.339C887.652 154.339 887.652 148.844 891.953 148.844C896.254 148.844 896.239 154.339 900.533 154.339C904.827 154.339 904.834 148.844 909.128 148.844C913.421 148.844 913.429 154.339 917.722 154.339" stroke="white" stroke-miterlimit="10"/>
<path d="M1491.2 66.0615C1495.49 66.0615 1495.49 60.5669 1499.78 60.5669C1504.08 60.5669 1504.08 66.0615 1508.37 66.0615C1512.66 66.0615 1512.66 60.5669 1516.95 60.5669C1521.24 60.5669 1521.24 66.0615 1525.54 66.0615C1529.83 66.0615 1529.83 60.5669 1534.13 60.5669C1538.43 60.5669 1538.43 66.0615 1542.72 66.0615C1547.01 66.0615 1547.01 60.5669 1551.31 60.5669C1555.6 60.5669 1555.61 66.0615 1559.9 66.0615" stroke="white" stroke-miterlimit="10"/>
<path opacity="0.43" d="M1002.15 377.279C1006.44 377.279 1006.44 371.784 1010.73 371.784C1015.03 371.784 1015.03 377.279 1019.32 377.279C1023.62 377.279 1023.62 371.784 1027.9 371.784C1032.19 371.784 1032.2 377.279 1036.49 377.279C1040.78 377.279 1040.78 371.784 1045.08 371.784C1049.39 371.784 1049.38 377.279 1053.67 377.279C1057.96 377.279 1057.96 371.784 1062.26 371.784C1066.55 371.784 1066.56 377.279 1070.85 377.279" stroke="white" stroke-miterlimit="10"/>
<path d="M1835.03 520.765C1834.11 514.871 1833.64 508.83 1833.64 502.678C1833.64 438.46 1885.69 386.401 1949.91 386.401C1956.06 386.401 1962.11 386.879 1968 387.799L1968 389.892C1962.11 388.955 1956.07 388.468 1949.91 388.468C1886.84 388.468 1835.7 439.601 1835.7 502.678C1835.7 508.833 1836.19 514.874 1837.13 520.765L1835.03 520.765Z" fill="url(#paint2_linear_1_2326)" fill-opacity="0.22"/>
<path d="M1854.06 520.765C1852.96 514.904 1852.39 508.858 1852.39 502.678C1852.39 448.817 1896.05 405.154 1949.91 405.154C1956.09 405.154 1962.14 405.729 1968 406.828L1968 408.933C1962.14 407.81 1956.1 407.221 1949.91 407.221C1897.19 407.221 1854.46 449.959 1854.46 502.678C1854.46 508.862 1855.04 514.909 1856.17 520.765L1854.06 520.765Z" fill="url(#paint3_linear_1_2326)" fill-opacity="0.22"/>
<path d="M1873.21 520.765C1871.85 514.957 1871.13 508.902 1871.13 502.678C1871.13 459.165 1906.4 423.891 1949.91 423.891C1956.14 423.891 1962.19 424.613 1968 425.978L1968 428.103C1962.2 426.701 1956.14 425.959 1949.91 425.959C1907.54 425.959 1873.19 460.307 1873.19 502.678C1873.19 508.908 1873.94 514.965 1875.34 520.765L1873.21 520.765Z" fill="url(#paint4_linear_1_2326)" fill-opacity="0.22"/>
<path d="M1892.64 520.765C1890.83 515.057 1889.86 508.981 1889.86 502.678C1889.86 469.514 1916.75 442.629 1949.91 442.629C1956.22 442.629 1962.29 443.6 1968 445.401L1968 447.573C1962.31 445.706 1956.23 444.696 1949.91 444.696C1917.89 444.696 1891.93 470.655 1891.93 502.678C1891.93 508.994 1892.94 515.074 1894.81 520.765L1892.64 520.765Z" fill="url(#paint5_linear_1_2326)" fill-opacity="0.22"/>
<path d="M1912.76 520.765C1904.92 504.659 1908.25 484.681 1922.2 472.058C1935.08 460.408 1953.29 458.38 1968 465.535L1968 467.848C1953.87 460.518 1936.08 462.283 1923.59 473.591C1910.07 485.82 1907.05 505.315 1915.07 520.765L1912.76 520.765Z" fill="url(#paint6_linear_1_2326)" fill-opacity="0.22"/>
<path d="M0 132.966C5.89416 133.886 11.935 134.364 18.0875 134.364C82.3053 134.364 134.364 82.3053 134.364 18.0875C134.364 11.935 133.886 5.89416 132.966 0H130.873C131.81 5.89116 132.297 11.9325 132.297 18.0875C132.297 81.1637 81.1637 132.297 18.0875 132.297C11.9325 132.297 5.89116 131.81 0 130.873V132.966Z" fill="url(#paint7_linear_1_2326)" fill-opacity="0.22"/>
<path d="M0 113.937C5.86114 115.036 11.9071 115.611 18.0873 115.611C71.9481 115.611 115.611 71.9484 115.611 18.0876C115.611 11.9073 115.036 5.86123 113.937 0H111.832C112.956 5.85661 113.544 11.9034 113.544 18.0876C113.544 70.8067 70.8064 113.544 18.0873 113.544C11.9033 113.544 5.85652 112.956 0 111.833V113.937Z" fill="url(#paint8_linear_1_2326)" fill-opacity="0.22"/>
<path d="M0 94.7875C5.80787 96.1519 11.8634 96.8736 18.0876 96.8736C61.5999 96.8736 96.8736 61.5999 96.8736 18.0876C96.8736 11.8634 96.1519 5.80787 94.7875 0H92.662C94.0638 5.79992 94.8065 11.857 94.8065 18.0876C94.8065 60.4583 60.4583 94.8065 18.0876 94.8065C11.857 94.8065 5.79991 94.0638 0 92.662V94.7875Z" fill="url(#paint9_linear_1_2326)" fill-opacity="0.22"/>
<path d="M0 75.3642C5.708 77.165 11.7843 78.1362 18.0874 78.1362C51.2513 78.1362 78.1361 51.2515 78.1361 18.0875C78.1361 11.7844 77.1649 5.70804 75.364 0H73.192C75.059 5.69154 76.0689 11.7716 76.0689 18.0875C76.0689 50.1098 50.1097 76.069 18.0874 76.069C11.7715 76.069 5.6915 75.0592 0 73.1921V75.3642Z" fill="url(#paint10_linear_1_2326)" fill-opacity="0.22"/>
<path d="M0 55.2408C16.1057 63.0838 36.0837 59.7495 48.7068 45.7989C60.3574 32.923 62.3849 14.7143 55.2304 0H52.9166C60.247 14.1301 58.4816 31.915 47.174 44.412C34.9451 57.9269 15.45 60.9534 0 52.9264V55.2408Z" fill="url(#paint11_linear_1_2326)" fill-opacity="0.22"/>
<g opacity="0.2">
<path fill-rule="evenodd" clip-rule="evenodd" d="M86.1021 387.878C82.6144 397.282 87.6434 407.796 97.3338 411.363C100.796 412.638 104.384 412.854 107.726 412.174L94.7524 447.151L-6.97693 409.698L6.31415 373.863C2.53925 374.978 -1.64634 374.923 -5.66207 373.445C-15.3518 369.878 -20.3808 359.363 -16.8932 349.96C-13.4053 340.557 -2.72233 335.827 6.96745 339.394C10.9832 340.873 14.1986 343.543 16.3389 346.835L29.6302 311L131.359 348.452L118.388 383.428C116.292 380.747 113.425 378.587 109.963 377.313C100.273 373.745 89.5917 378.475 86.1021 387.878Z" fill="#FFB900"/>
<path fill-rule="evenodd" clip-rule="evenodd" d="M4.3836 372.471C4.54308 372.438 4.70277 372.406 4.86101 372.37L-7.4858 359.262L-7.8396 359.495L4.3836 372.471Z" fill="white"/>
<path fill-rule="evenodd" clip-rule="evenodd" d="M47.8512 431.117L48.5512 431.402L32.6004 409.049L32.2944 409.314L47.8512 431.117Z" fill="white"/>
<path fill-rule="evenodd" clip-rule="evenodd" d="M5.03499 374.503L4.86108 374.945L12.1451 383.647L12.4814 383.399L5.03499 374.503Z" fill="white"/>
<path fill-rule="evenodd" clip-rule="evenodd" d="M11.2944 382.631L10.9575 382.911L30.4336 409.049L30.7705 408.769L11.2944 382.631Z" fill="white"/>
<path fill-rule="evenodd" clip-rule="evenodd" d="M77.1727 414.637L77.5085 414.357L58.0334 388.22L57.6956 388.5L77.1727 414.637Z" fill="white"/>
<path fill-rule="evenodd" clip-rule="evenodd" d="M94.9517 441.054L95.2895 440.774L75.8124 414.637L75.4766 414.917L94.9517 441.054Z" fill="white"/>
<path fill-rule="evenodd" clip-rule="evenodd" d="M37.3748 363.098L56.8518 389.236L57.1877 388.956L37.7118 362.818L37.3748 363.098Z" fill="white"/>
<path fill-rule="evenodd" clip-rule="evenodd" d="M18.3406 336.401L18.1422 336.565L18.0698 336.772L37.5444 362.818L37.8828 362.538L18.3406 336.401Z" fill="white"/>
<path fill-rule="evenodd" clip-rule="evenodd" d="M95.7817 441.562L96.3054 440.546L95.2893 441.117L95.7817 441.562Z" fill="white"/>
<path fill-rule="evenodd" clip-rule="evenodd" d="M61.9302 346.054L62.268 345.774L42.7921 319.636L42.4551 319.916L61.9302 346.054Z" fill="white"/>
<path fill-rule="evenodd" clip-rule="evenodd" d="M38.4809 314.395L37.3748 314.048L43.4945 320.652L43.9791 320.329L38.4809 314.395Z" fill="white"/>
<path fill-rule="evenodd" clip-rule="evenodd" d="M90.8728 381.107C90.9882 380.999 91.1078 380.894 91.2252 380.789L82.4395 368.407L82.0808 368.719L90.8728 381.107Z" fill="white"/>
<path fill-rule="evenodd" clip-rule="evenodd" d="M81.743 370.947L82.0808 370.667L62.6056 344.53L62.2678 344.809L81.743 370.947Z" fill="white"/>
<path fill-rule="evenodd" clip-rule="evenodd" d="M94.2732 336.909L106.613 350.118L106.974 349.879L95.0957 337.165L94.2732 336.909Z" fill="white"/>
<path fill-rule="evenodd" clip-rule="evenodd" d="M122.062 369.931L122.215 369.46L108.795 350.118L108.498 350.382L122.062 369.931Z" fill="white"/>
<path fill-rule="evenodd" clip-rule="evenodd" d="M89.1931 446.454L89.6854 446.643L97.7046 440.126L98.0418 439.854L98.3376 439.022L97.7811 439.475L97.4275 439.762L89.1931 446.454Z" fill="white"/>
<path fill-rule="evenodd" clip-rule="evenodd" d="M54.1396 433.768L54.5856 433.942L76.3605 415.831L76.6778 415.566L87.1612 406.847C87.0754 406.736 86.997 406.621 86.913 406.509L76.4277 415.23L76.1105 415.494L54.1396 433.768Z" fill="white"/>
<path fill-rule="evenodd" clip-rule="evenodd" d="M117.439 383.647L118.345 382.954L118.659 382.123L117.135 383.292C117.24 383.408 117.338 383.529 117.439 383.647Z" fill="white"/>
<path fill-rule="evenodd" clip-rule="evenodd" d="M82.6594 370.943L82.3242 371.206L57.7642 390.571L57.431 390.834L19.0857 421.068L19.5539 421.241L32.8009 410.796L33.135 410.533L57.6937 391.169L58.0288 390.906L82.5868 371.542L82.922 371.278L107.48 351.914L107.815 351.651L116.626 344.703L116.158 344.53L107.553 351.316L107.217 351.579L82.6594 370.943Z" fill="white"/>
<path fill-rule="evenodd" clip-rule="evenodd" d="M37.5475 364.674L37.8807 364.412L62.3578 345.177L62.6918 344.915L81.0647 330.477L80.5979 330.305L62.4301 344.582L62.096 344.844L12.8075 383.577L12.4743 383.838L-2.47819 395.588L-2.75928 396.348L12.7366 384.171L13.0696 383.909L37.5475 364.674Z" fill="white"/>
<path fill-rule="evenodd" clip-rule="evenodd" d="M-14.7198 365.867L14.0055 343.814C13.9041 343.715 13.8098 343.61 13.7057 343.514L-14.9519 365.514C-14.8749 365.632 -14.7998 365.751 -14.7198 365.867Z" fill="white"/>
<path fill-rule="evenodd" clip-rule="evenodd" d="M42.4271 319.507L46.0111 316.761L45.533 316.588L17.3428 338.18L17.0537 338.941L17.2548 338.787L42.4271 319.507Z" fill="white"/>
</g>
<g opacity="0.2">
<path fill-rule="evenodd" clip-rule="evenodd" d="M1816.83 67.0823L1796.72 165.613L1695.37 144.988L1702.5 110.073C1699.44 111.194 1696.03 111.511 1692.58 110.81C1682.92 108.844 1676.65 99.6458 1678.57 90.2564C1680.48 80.8667 1689.86 74.8536 1699.52 76.8197C1702.97 77.5209 1705.98 79.1388 1708.36 81.371L1715.48 46.4568L1751.23 53.7313C1750.13 50.8199 1749.81 47.5957 1750.47 44.3542C1752.39 34.9726 1761.78 28.9532 1771.43 30.9175C1781.09 32.8836 1787.36 42.0897 1785.45 51.4713C1784.78 54.7127 1783.23 57.557 1781.08 59.8077L1816.83 67.0823Z" fill="#007BFF"/>
<path fill-rule="evenodd" clip-rule="evenodd" d="M1793.37 102.537C1788.41 103.016 1783.28 103.51 1778.7 105.383C1768.14 109.707 1760.86 121.903 1760.99 135.041C1761.08 143.629 1764.04 152.411 1769.45 160.455L1770.01 160.561C1764.49 152.492 1761.46 143.664 1761.38 135.037C1761.25 122.061 1768.43 110.021 1778.85 105.757C1783.37 103.905 1788.47 103.413 1793.4 102.937C1797.29 102.562 1801.25 102.175 1804.93 101.105L1805 100.687C1801.39 101.76 1797.44 102.144 1793.37 102.537Z" fill="white"/>
<path fill-rule="evenodd" clip-rule="evenodd" d="M1686.68 110.41C1692.22 105.708 1698.91 103.218 1705.29 103.769C1709.12 104.1 1712.87 105.478 1716.48 106.81C1721 108.471 1725.67 110.19 1730.53 109.862C1737.68 109.377 1743.77 104.575 1748.66 100.716L1795.28 63.9361L1794.76 63.8406L1748.41 100.407C1742.46 105.104 1737 109.028 1730.5 109.467C1725.74 109.792 1721.1 108.087 1716.62 106.439C1712.98 105.098 1709.21 103.712 1705.32 103.375C1698.79 102.812 1691.94 105.385 1686.27 110.233C1686.41 110.294 1686.54 110.352 1686.68 110.41Z" fill="white"/>
<path fill-rule="evenodd" clip-rule="evenodd" d="M1718 141.29C1711.86 138.034 1704.77 136.248 1697.61 135.997L1697.53 136.351C1704.64 136.591 1711.69 138.361 1717.79 141.595C1722.68 144.187 1726.9 147.693 1730.22 151.767L1730.8 151.862C1727.42 147.618 1723.06 143.971 1718 141.29Z" fill="white"/>
</g>
<defs>
<linearGradient id="paint0_linear_1_2326" x1="1872.01" y1="148.607" x2="1836.27" y2="148.607" gradientUnits="userSpaceOnUse">
<stop stop-color="#99B8FF" stop-opacity="0"/>
<stop offset="1" stop-color="#99B8FF"/>
</linearGradient>
<linearGradient id="paint1_linear_1_2326" x1="272.746" y1="193.873" x2="237" y2="193.873" gradientUnits="userSpaceOnUse">
<stop stop-color="#99B8FF" stop-opacity="0"/>
<stop offset="1" stop-color="#99B8FF"/>
</linearGradient>
<linearGradient id="paint2_linear_1_2326" x1="1863.44" y1="421.146" x2="1966.69" y2="523.085" gradientUnits="userSpaceOnUse">
<stop stop-color="#FDFDFD" stop-opacity="0.42"/>
<stop offset="1" stop-color="#FDFDFD" stop-opacity="0"/>
</linearGradient>
<linearGradient id="paint3_linear_1_2326" x1="1863.44" y1="421.146" x2="1966.69" y2="523.085" gradientUnits="userSpaceOnUse">
<stop stop-color="#FDFDFD" stop-opacity="0.42"/>
<stop offset="1" stop-color="#FDFDFD" stop-opacity="0"/>
</linearGradient>
<linearGradient id="paint4_linear_1_2326" x1="1863.44" y1="421.146" x2="1966.69" y2="523.085" gradientUnits="userSpaceOnUse">
<stop stop-color="#FDFDFD" stop-opacity="0.42"/>
<stop offset="1" stop-color="#FDFDFD" stop-opacity="0"/>
</linearGradient>
<linearGradient id="paint5_linear_1_2326" x1="1863.44" y1="421.146" x2="1966.69" y2="523.085" gradientUnits="userSpaceOnUse">
<stop stop-color="#FDFDFD" stop-opacity="0.42"/>
<stop offset="1" stop-color="#FDFDFD" stop-opacity="0"/>
</linearGradient>
<linearGradient id="paint6_linear_1_2326" x1="1863.44" y1="421.146" x2="1966.69" y2="523.085" gradientUnits="userSpaceOnUse">
<stop stop-color="#FDFDFD" stop-opacity="0.42"/>
<stop offset="1" stop-color="#FDFDFD" stop-opacity="0"/>
</linearGradient>
<linearGradient id="paint7_linear_1_2326" x1="99.6196" y1="104.561" x2="-2.3195" y2="1.31111" gradientUnits="userSpaceOnUse">
<stop stop-color="#FDFDFD" stop-opacity="0.42"/>
<stop offset="1" stop-color="#FDFDFD" stop-opacity="0"/>
</linearGradient>
<linearGradient id="paint8_linear_1_2326" x1="99.6196" y1="104.561" x2="-2.3195" y2="1.31111" gradientUnits="userSpaceOnUse">
<stop stop-color="#FDFDFD" stop-opacity="0.42"/>
<stop offset="1" stop-color="#FDFDFD" stop-opacity="0"/>
</linearGradient>
<linearGradient id="paint9_linear_1_2326" x1="99.6196" y1="104.561" x2="-2.3195" y2="1.31111" gradientUnits="userSpaceOnUse">
<stop stop-color="#FDFDFD" stop-opacity="0.42"/>
<stop offset="1" stop-color="#FDFDFD" stop-opacity="0"/>
</linearGradient>
<linearGradient id="paint10_linear_1_2326" x1="99.6196" y1="104.561" x2="-2.3195" y2="1.31111" gradientUnits="userSpaceOnUse">
<stop stop-color="#FDFDFD" stop-opacity="0.42"/>
<stop offset="1" stop-color="#FDFDFD" stop-opacity="0"/>
</linearGradient>
<linearGradient id="paint11_linear_1_2326" x1="99.6196" y1="104.561" x2="-2.3195" y2="1.31111" gradientUnits="userSpaceOnUse">
<stop stop-color="#FDFDFD" stop-opacity="0.42"/>
<stop offset="1" stop-color="#FDFDFD" stop-opacity="0"/>
</linearGradient>
</defs>
</svg>
