<svg width="1920" height="919" viewBox="0 0 1920 919" fill="none" xmlns="http://www.w3.org/2000/svg">
<path opacity="0.03" d="M0 0H1920V919H0V0Z" fill="#04091E"/>
<g opacity="0.32">
<path fill-rule="evenodd" clip-rule="evenodd" d="M1570.31 472.008C1558.89 472.008 1549.63 462.749 1549.63 451.327C1549.63 439.912 1558.89 430.654 1570.31 430.654C1581.73 430.654 1590.99 439.912 1590.99 451.327C1590.99 462.749 1581.73 472.008 1570.31 472.008Z" fill="#FF5C33"/>
<path fill-rule="evenodd" clip-rule="evenodd" d="M186.094 197.462C186.094 208.88 176.835 218.139 165.417 218.139C153.999 218.139 144.74 208.88 144.74 197.462C144.74 186.044 153.999 176.785 165.417 176.785C176.835 176.785 186.094 186.044 186.094 197.462" fill="#74E2CD"/>
<path fill-rule="evenodd" clip-rule="evenodd" d="M1875.87 211.247C1875.87 215.053 1872.79 218.139 1868.98 218.139C1865.17 218.139 1862.09 215.053 1862.09 211.247C1862.09 207.441 1865.17 204.354 1868.98 204.354C1872.79 204.354 1875.87 207.441 1875.87 211.247" fill="#74E2CD"/>
<path fill-rule="evenodd" clip-rule="evenodd" d="M345.767 438.695L329.685 422.612L345.767 406.53L361.849 422.612L345.767 438.695" fill="#2662FA"/>
<path fill-rule="evenodd" clip-rule="evenodd" d="M152.781 440.953C133.481 457.855 80.741 440.656 42.4873 423.405L0 377.206C51.895 392.064 103.961 398.03 135.979 370.92L152.781 440.953" fill="#DEE3FE"/>
<path d="M152.781 440.953C133.481 457.855 80.741 440.656 42.4873 423.405L0 377.206C51.895 392.064 103.961 398.03 135.979 370.92L152.781 440.953" stroke="#EBEBEB"/>
<path fill-rule="evenodd" clip-rule="evenodd" d="M46.3539 408.828L33.313 393.202L35.2056 391.597L48.2465 407.222L46.3539 408.828" fill="#2662FA"/>
<path fill-rule="evenodd" clip-rule="evenodd" d="M70.2432 416.869L56.2876 395.178L58.4147 393.894L72.3698 415.585L70.2432 416.869" fill="#2662FA"/>
<path fill-rule="evenodd" clip-rule="evenodd" d="M127.295 429.505L117.17 392.233L119.682 391.597L129.806 428.868L127.295 429.505" fill="#2662FA"/>
<path fill-rule="evenodd" clip-rule="evenodd" d="M1786.27 743.069C1766.97 759.97 1714.23 742.771 1675.98 725.52L1633.49 679.322C1685.39 694.179 1737.45 700.145 1769.47 673.035L1786.27 743.069" fill="#DEE3FE"/>
<path d="M1786.27 743.069C1766.97 759.97 1714.23 742.771 1675.98 725.52L1633.49 679.322C1685.39 694.179 1737.45 700.145 1769.47 673.035L1786.27 743.069" stroke="#EBEBEB"/>
<path fill-rule="evenodd" clip-rule="evenodd" d="M1679.85 710.943L1666.8 695.318L1668.7 693.712L1681.74 709.338L1679.85 710.943" fill="#2662FA"/>
<path fill-rule="evenodd" clip-rule="evenodd" d="M1703.73 718.984L1689.78 697.294L1691.91 696.01L1705.86 717.7L1703.73 718.984" fill="#2662FA"/>
<path fill-rule="evenodd" clip-rule="evenodd" d="M1760.79 731.62L1750.66 694.349L1753.17 693.712L1763.3 730.984L1760.79 731.62" fill="#2662FA"/>
<path fill-rule="evenodd" clip-rule="evenodd" d="M1686.77 164.358C1685.61 164.225 1684.41 164.178 1683.25 164.214L1683.21 163.011C1684.44 162.975 1685.69 163.025 1686.91 163.164L1686.77 164.358ZM1676.33 165.448L1675.95 164.308C1677.12 163.918 1678.32 163.61 1679.53 163.394L1679.74 164.577C1678.59 164.782 1677.44 165.076 1676.33 165.448ZM1693.56 166.168C1692.48 165.705 1691.36 165.315 1690.23 165.015L1690.54 163.851C1691.73 164.17 1692.91 164.577 1694.04 165.065L1693.56 166.168ZM1670.07 168.629L1669.38 167.648C1670.38 166.939 1671.44 166.296 1672.54 165.739L1673.08 166.808C1672.04 167.341 1671.03 167.953 1670.07 168.629ZM1699.53 169.866C1698.63 169.109 1697.67 168.413 1696.68 167.798L1697.32 166.775C1698.36 167.421 1699.36 168.15 1700.31 168.945L1699.53 169.866ZM1664.99 173.48L1664.04 172.74C1664.8 171.77 1665.63 170.85 1666.52 170.001L1667.36 170.872C1666.51 171.678 1665.72 172.557 1664.99 173.48ZM1704.19 175.121C1703.55 174.142 1702.83 173.203 1702.06 172.324L1702.96 171.529C1703.77 172.449 1704.53 173.435 1705.2 174.464L1704.19 175.121ZM1661.52 179.586L1660.4 179.151C1660.84 178.003 1661.38 176.878 1661.99 175.811L1663.03 176.404C1662.45 177.421 1661.95 178.491 1661.52 179.586ZM1707.13 181.493C1706.8 180.367 1706.39 179.259 1705.9 178.197L1706.99 177.693C1707.51 178.81 1707.94 179.971 1708.29 181.155L1707.13 181.493ZM1659.97 186.432L1658.77 186.34C1658.87 185.11 1659.05 183.879 1659.32 182.687L1660.49 182.951C1660.24 184.087 1660.06 185.259 1659.97 186.432ZM1709.04 191.956L1707.85 191.781C1708.02 190.625 1708.1 189.445 1708.1 188.272C1708.1 187.15 1708.03 186.027 1707.87 184.93L1709.07 184.763C1709.23 185.916 1709.31 187.094 1709.31 188.272C1709.31 189.503 1709.22 190.742 1709.04 191.956ZM1659.28 193.688C1659.02 192.488 1658.85 191.257 1658.76 190.032L1659.96 189.949C1660.04 191.119 1660.21 192.288 1660.46 193.433L1659.28 193.688ZM1706.92 199.012L1705.82 198.5C1706.32 197.441 1706.75 196.335 1707.08 195.212L1708.24 195.559C1707.88 196.737 1707.44 197.898 1706.92 199.012ZM1661.9 200.578C1661.3 199.503 1660.77 198.378 1660.33 197.23L1661.46 196.806C1661.88 197.895 1662.38 198.968 1662.95 199.991L1661.9 200.578ZM1702.84 205.154L1701.94 204.35C1702.72 203.477 1703.45 202.541 1704.1 201.568L1705.1 202.233C1704.42 203.253 1703.66 204.237 1702.84 205.154ZM1666.39 206.418C1665.51 205.564 1664.68 204.636 1663.93 203.663L1664.89 202.929C1665.6 203.857 1666.39 204.738 1667.23 205.553L1666.39 206.418ZM1697.16 209.863L1696.53 208.835C1697.53 208.231 1698.5 207.541 1699.4 206.792L1700.17 207.715C1699.22 208.505 1698.21 209.229 1697.16 209.863ZM1672.38 210.725C1671.29 210.163 1670.23 209.511 1669.23 208.791L1669.93 207.812C1670.89 208.5 1671.9 209.12 1672.93 209.655L1672.38 210.725ZM1690.37 212.737L1690.07 211.571C1691.2 211.277 1692.32 210.897 1693.4 210.44L1693.87 211.548C1692.74 212.028 1691.56 212.427 1690.37 212.737ZM1679.36 213.117C1678.14 212.893 1676.94 212.577 1675.78 212.18L1676.17 211.041C1677.28 211.421 1678.42 211.723 1679.58 211.936L1679.36 213.117ZM1684.01 213.544C1683.68 213.544 1683.36 213.538 1683.03 213.525L1683.08 212.325C1684.25 212.366 1685.45 212.325 1686.6 212.203L1686.73 213.4C1685.83 213.494 1684.92 213.544 1684.01 213.544V213.544Z" fill="#2662FA"/>
<path fill-rule="evenodd" clip-rule="evenodd" d="M1860.59 409.977L1883.91 460.319L1808.45 494.982L1785.12 444.64L1834.5 452.474L1860.59 409.977" fill="#DEE3FE"/>
<path d="M1860.59 409.977L1883.91 460.319L1808.45 494.982L1785.12 444.64L1834.5 452.474L1860.59 409.977" stroke="#EAEAEA"/>
<path fill-rule="evenodd" clip-rule="evenodd" d="M1859.79 409.977L1838.24 463.967L1785.12 444.798L1859.79 409.977" fill="#2662FA"/>
<path fill-rule="evenodd" clip-rule="evenodd" d="M162.766 653.507L186.094 703.849L110.625 738.513L87.3032 688.17L136.681 696.004L162.766 653.507" fill="#DEE3FE"/>
<path d="M162.766 653.507L186.094 703.849L110.625 738.513L87.3032 688.17L136.681 696.004L162.766 653.507" stroke="#EAEAEA"/>
<path fill-rule="evenodd" clip-rule="evenodd" d="M161.971 653.507L140.417 707.497L87.3032 688.328L161.971 653.507" fill="#2662FA"/>
</g>
<path d="M987.794 141.8H986.794V142.8H987.794V141.8ZM987.794 127.6V126.6H986.794V127.6H987.794ZM1022.59 127.6V128.6H1023.59V127.6H1022.59ZM1022.59 109.7H1023.59V108.7H1022.59V109.7ZM968.194 109.7V108.7H967.194V109.7H968.194ZM968.194 188H967.194V189H968.194V188ZM987.794 188V189H988.794V188H987.794ZM987.794 159.1V158.1H986.794V159.1H987.794ZM1019.29 159.1V160.1H1020.29V159.1H1019.29ZM1019.29 141.8H1020.29V140.8H1019.29V141.8ZM988.794 141.8V127.6H986.794V141.8H988.794ZM987.794 128.6H1022.59V126.6H987.794V128.6ZM1023.59 127.6V109.7H1021.59V127.6H1023.59ZM1022.59 108.7H968.194V110.7H1022.59V108.7ZM967.194 109.7V188H969.194V109.7H967.194ZM968.194 189H987.794V187H968.194V189ZM988.794 188V159.1H986.794V188H988.794ZM987.794 160.1H1019.29V158.1H987.794V160.1ZM1020.29 159.1V141.8H1018.29V159.1H1020.29ZM1019.29 140.8H987.794V142.8H1019.29V140.8ZM1083.84 166.1V167.1H1084.69L1084.82 166.252L1083.84 166.1ZM1076.04 140.7L1075.36 141.434L1075.36 141.441L1075.37 141.447L1076.04 140.7ZM1036.74 141.5L1037.42 142.226L1037.43 142.22L1036.74 141.5ZM1036.74 181.3L1036.05 182.026L1036.05 182.032L1036.74 181.3ZM1081.74 176.9L1082.6 177.405L1083.08 176.588L1082.29 176.066L1081.74 176.9ZM1069.04 168.5L1069.59 167.666L1068.76 167.116L1068.2 167.945L1069.04 168.5ZM1046.84 166.1V165.1H1045.64L1045.85 166.274L1046.84 166.1ZM1065.64 155.5V156.5H1066.79L1066.62 155.356L1065.64 155.5ZM1047.14 155.5L1046.16 155.295L1045.9 156.5H1047.14V155.5ZM1084.82 166.252C1085.04 164.867 1085.14 162.497 1085.14 159.1H1083.14C1083.14 162.503 1083.03 164.733 1082.85 165.948L1084.82 166.252ZM1085.14 159.1C1085.14 151.325 1082.32 144.949 1076.7 139.953L1075.37 141.447C1080.55 146.051 1083.14 151.875 1083.14 159.1H1085.14ZM1076.71 139.966C1071.22 134.884 1064.57 132.4 1056.84 132.4V134.4C1064.1 134.4 1070.25 136.716 1075.36 141.434L1076.71 139.966ZM1056.84 132.4C1048.78 132.4 1041.83 135.2 1036.04 140.78L1037.43 142.22C1042.84 137 1049.29 134.4 1056.84 134.4V132.4ZM1036.05 140.774C1030.24 146.266 1027.34 153.131 1027.34 161.2H1029.34C1029.34 153.669 1032.03 147.334 1037.42 142.226L1036.05 140.774ZM1027.34 161.2C1027.34 169.559 1030.24 176.527 1036.05 182.026L1037.42 180.574C1032.03 175.473 1029.34 169.041 1029.34 161.2H1027.34ZM1036.05 182.032C1041.96 187.522 1049.21 190.2 1057.94 190.2V188.2C1049.66 188.2 1042.91 185.678 1037.42 180.568L1036.05 182.032ZM1057.94 190.2C1069.32 190.2 1077.59 185.967 1082.6 177.405L1080.87 176.395C1076.28 184.233 1068.75 188.2 1057.94 188.2V190.2ZM1082.29 176.066L1069.59 167.666L1068.48 169.334L1081.18 177.734L1082.29 176.066ZM1068.2 167.945C1066 171.251 1061.82 173.4 1057.74 173.4V175.4C1062.45 175.4 1067.27 172.949 1069.87 169.055L1068.2 167.945ZM1057.74 173.4C1052.81 173.4 1048.62 170.445 1047.82 165.926L1045.85 166.274C1046.85 171.955 1052.06 175.4 1057.74 175.4V173.4ZM1046.84 167.1H1083.84V165.1H1046.84V167.1ZM1056.54 148.9C1058.74 148.9 1060.61 149.541 1061.99 150.674C1063.37 151.802 1064.33 153.468 1064.65 155.644L1066.62 155.356C1066.24 152.732 1065.05 150.598 1063.26 149.126C1061.46 147.659 1059.13 146.9 1056.54 146.9V148.9ZM1065.64 154.5H1047.14V156.5H1065.64V154.5ZM1048.11 155.705C1048.92 151.873 1052.6 148.9 1056.54 148.9V146.9C1051.67 146.9 1047.15 150.527 1046.16 155.295L1048.11 155.705ZM1095.64 184.5L1094.94 185.219L1094.95 185.224L1094.95 185.23L1095.64 184.5ZM1123.34 181.7L1123.78 180.806L1123.09 180.456L1122.58 181.049L1123.34 181.7ZM1123.54 181.8H1124.54V181.182L1123.98 180.906L1123.54 181.8ZM1123.54 188H1122.54V189H1123.54V188ZM1141.64 188V189H1142.64V188H1141.64ZM1091.54 146.2L1090.67 145.708L1090.19 146.548L1091.01 147.052L1091.54 146.2ZM1104.24 154L1103.71 154.852L1104.53 155.351L1105.06 154.564L1104.24 154ZM1122.84 166.7H1123.84V165.7H1122.84V166.7ZM1115.74 148.9C1117.82 148.9 1119.36 149.454 1120.35 150.246C1121.34 151.029 1121.84 152.071 1121.84 153.2H1123.84C1123.84 151.429 1123.04 149.821 1121.6 148.679C1120.17 147.546 1118.16 146.9 1115.74 146.9V148.9ZM1121.84 153.2C1121.84 154.099 1121.58 154.609 1121.22 154.918C1120.84 155.25 1120.16 155.5 1119.04 155.5V157.5C1120.41 157.5 1121.64 157.2 1122.53 156.432C1123.45 155.641 1123.84 154.501 1123.84 153.2H1121.84ZM1119.04 155.5H1116.24V157.5H1119.04V155.5ZM1116.24 155.5C1110.45 155.5 1103.94 156.486 1098.85 159.178C1093.7 161.898 1089.94 166.398 1089.94 173.3H1091.94C1091.94 167.302 1095.13 163.402 1099.78 160.947C1104.48 158.464 1110.62 157.5 1116.24 157.5V155.5ZM1089.94 173.3C1089.94 178.07 1091.65 182.029 1094.94 185.219L1096.33 183.781C1093.43 180.971 1091.94 177.53 1091.94 173.3H1089.94ZM1094.95 185.23C1098.34 188.406 1102.39 190 1107.14 190V188C1102.89 188 1099.33 186.594 1096.32 183.77L1094.95 185.23ZM1107.14 190C1114.02 190 1119.7 187.482 1124.1 182.351L1122.58 181.049C1118.58 185.718 1113.46 188 1107.14 188V190ZM1122.89 182.594L1123.09 182.694L1123.98 180.906L1123.78 180.806L1122.89 182.594ZM1122.54 181.8V188H1124.54V181.8H1122.54ZM1123.54 189H1141.64V187H1123.54V189ZM1142.64 188V155.4H1140.64V188H1142.64ZM1142.64 155.4C1142.64 147.971 1140.2 142.173 1135.71 138.247C1131.23 134.339 1124.84 132.4 1117.14 132.4V134.4C1124.53 134.4 1130.39 136.261 1134.39 139.753C1138.37 143.227 1140.64 148.429 1140.64 155.4H1142.64ZM1117.14 132.4C1104.58 132.4 1095.69 136.813 1090.67 145.708L1092.41 146.692C1096.99 138.586 1105.09 134.4 1117.14 134.4V132.4ZM1091.01 147.052L1103.71 154.852L1104.76 153.148L1092.06 145.348L1091.01 147.052ZM1105.06 154.564C1107.68 150.735 1111.17 148.9 1115.74 148.9V146.9C1110.51 146.9 1106.4 149.065 1103.41 153.436L1105.06 154.564ZM1114.74 174.8C1112.7 174.8 1110.94 173.166 1110.94 171.3H1108.94C1108.94 174.434 1111.77 176.8 1114.74 176.8V174.8ZM1110.94 171.3C1110.94 170.129 1111.48 169.276 1112.4 168.674C1113.35 168.048 1114.72 167.7 1116.24 167.7V165.7C1114.45 165.7 1112.67 166.102 1111.3 167.001C1109.89 167.924 1108.94 169.371 1108.94 171.3H1110.94ZM1116.24 167.7H1122.84V165.7H1116.24V167.7ZM1121.84 166.7V168.3H1123.84V166.7H1121.84ZM1121.84 168.3C1121.84 170.403 1121.11 171.995 1119.92 173.071C1118.71 174.157 1116.95 174.8 1114.74 174.8V176.8C1117.33 176.8 1119.61 176.043 1121.26 174.554C1122.92 173.055 1123.84 170.897 1123.84 168.3H1121.84ZM1188.82 172.3H1189.82V170.946L1188.53 171.344L1188.82 172.3ZM1176.32 150.4V149.4H1175.32V150.4H1176.32ZM1189.12 150.4V151.4H1190.12V150.4H1189.12ZM1189.12 134.6H1190.12V133.6H1189.12V134.6ZM1176.32 134.6H1175.32V135.6H1176.32V134.6ZM1176.32 117.3H1177.32V116.3H1176.32V117.3ZM1157.82 117.3V116.3H1156.82V117.3H1157.82ZM1157.82 134.6V135.6H1158.82V134.6H1157.82ZM1148.12 134.6V133.6H1147.12V134.6H1148.12ZM1148.12 150.4H1147.12V151.4H1148.12V150.4ZM1157.32 150.4H1158.32V149.4H1157.32V150.4ZM1188.82 187.7L1189.12 188.656L1189.82 188.439V187.7H1188.82ZM1188.53 171.344C1187.35 171.708 1185.95 171.9 1184.22 171.9V173.9C1186.1 173.9 1187.7 173.692 1189.12 173.256L1188.53 171.344ZM1184.22 171.9C1181.72 171.9 1180.05 171.287 1178.99 170.249C1177.93 169.214 1177.32 167.591 1177.32 165.2H1175.32C1175.32 167.909 1176.02 170.136 1177.59 171.676C1179.15 173.213 1181.42 173.9 1184.22 173.9V171.9ZM1177.32 165.2V150.4H1175.32V165.2H1177.32ZM1176.32 151.4H1189.12V149.4H1176.32V151.4ZM1190.12 150.4V134.6H1188.12V150.4H1190.12ZM1189.12 133.6H1176.32V135.6H1189.12V133.6ZM1177.32 134.6V117.3H1175.32V134.6H1177.32ZM1176.32 116.3H1157.82V118.3H1176.32V116.3ZM1156.82 117.3V134.6H1158.82V117.3H1156.82ZM1157.82 133.6H1148.12V135.6H1157.82V133.6ZM1147.12 134.6V150.4H1149.12V134.6H1147.12ZM1148.12 151.4H1157.32V149.4H1148.12V151.4ZM1156.32 150.4V166.7H1158.32V150.4H1156.32ZM1156.32 166.7C1156.32 173.953 1158.52 179.792 1162.75 183.813C1166.97 187.826 1173.1 189.9 1180.72 189.9V187.9C1173.45 187.9 1167.88 185.924 1164.13 182.362C1160.38 178.808 1158.32 173.547 1158.32 166.7H1156.32ZM1180.72 189.9C1183.62 189.9 1186.42 189.486 1189.12 188.656L1188.53 186.744C1186.03 187.514 1183.43 187.9 1180.72 187.9V189.9ZM1189.82 187.7V172.3H1187.82V187.7H1189.82ZM1198.8 134.6V133.6H1197.8V134.6H1198.8ZM1232.8 181.4V180.4H1232.3L1232 180.8L1232.8 181.4ZM1233 181.4H1234V180.4H1233V181.4ZM1233 188H1232V189H1233V188ZM1251.9 188V189H1252.9V188H1251.9ZM1251.9 134.6H1252.9V133.6H1251.9V134.6ZM1232.9 134.6V133.6H1231.9V134.6H1232.9ZM1217.8 134.6H1218.8V133.6H1217.8V134.6ZM1197.8 134.6V167H1199.8V134.6H1197.8ZM1197.8 167C1197.8 172.331 1199.03 178.077 1202.12 182.521C1205.24 187.014 1210.22 190.1 1217.5 190.1V188.1C1210.88 188.1 1206.51 185.336 1203.76 181.379C1200.97 177.373 1199.8 172.069 1199.8 167H1197.8ZM1217.5 190.1C1223.4 190.1 1229.5 187.468 1233.6 182L1232 180.8C1228.3 185.732 1222.81 188.1 1217.5 188.1V190.1ZM1232.8 182.4H1233V180.4H1232.8V182.4ZM1232 181.4V188H1234V181.4H1232ZM1233 189H1251.9V187H1233V189ZM1252.9 188V134.6H1250.9V188H1252.9ZM1251.9 133.6H1232.9V135.6H1251.9V133.6ZM1231.9 134.6V163.5H1233.9V134.6H1231.9ZM1231.9 163.5C1231.9 165.901 1231.19 167.679 1230.05 168.853C1228.91 170.024 1227.24 170.7 1225.1 170.7V172.7C1227.67 172.7 1229.9 171.876 1231.48 170.247C1233.06 168.621 1233.9 166.299 1233.9 163.5H1231.9ZM1225.1 170.7C1223.19 170.7 1221.64 169.946 1220.56 168.705C1219.46 167.453 1218.8 165.648 1218.8 163.5H1216.8C1216.8 166.052 1217.59 168.347 1219.05 170.02C1220.52 171.704 1222.62 172.7 1225.1 172.7V170.7ZM1218.8 163.5V134.6H1216.8V163.5H1218.8ZM1217.8 133.6H1198.8V135.6H1217.8V133.6ZM1301.84 134.5H1302.84V133.756L1302.13 133.542L1301.84 134.5ZM1283.34 143V144H1283.97L1284.24 143.436L1283.34 143ZM1283.24 143H1282.24V144H1283.24V143ZM1283.24 134.6H1284.24V133.6H1283.24V134.6ZM1264.34 134.6V133.6H1263.34V134.6H1264.34ZM1264.34 188H1263.34V189H1264.34V188ZM1283.44 188V189H1284.44V188H1283.44ZM1301.84 152.9L1301.63 153.878L1302.84 154.137V152.9H1301.84ZM1302.13 133.542C1300.99 133.201 1299.68 133.1 1298.34 133.1V135.1C1299.6 135.1 1300.69 135.199 1301.55 135.458L1302.13 133.542ZM1298.34 133.1C1292.57 133.1 1285.75 135.725 1282.44 142.564L1284.24 143.436C1287.13 137.475 1293.11 135.1 1298.34 135.1V133.1ZM1283.34 142H1283.24V144H1283.34V142ZM1284.24 143V134.6H1282.24V143H1284.24ZM1283.24 133.6H1264.34V135.6H1283.24V133.6ZM1263.34 134.6V188H1265.34V134.6H1263.34ZM1264.34 189H1283.44V187H1264.34V189ZM1284.44 188V166H1282.44V188H1284.44ZM1284.44 166C1284.44 161.66 1285.55 158.586 1287.58 156.588C1289.61 154.587 1292.74 153.5 1297.14 153.5V151.5C1292.44 151.5 1288.72 152.663 1286.18 155.162C1283.63 157.664 1282.44 161.34 1282.44 166H1284.44ZM1297.14 153.5C1298.81 153.5 1300.33 153.599 1301.63 153.878L1302.05 151.922C1300.55 151.601 1298.87 151.5 1297.14 151.5V153.5ZM1302.84 152.9V134.5H1300.84V152.9H1302.84ZM1361.86 166.1V167.1H1362.72L1362.85 166.252L1361.86 166.1ZM1354.06 140.7L1353.38 141.434L1353.39 141.441L1353.4 141.447L1354.06 140.7ZM1314.76 141.5L1315.45 142.226L1315.46 142.22L1314.76 141.5ZM1314.76 181.3L1314.08 182.026L1314.08 182.032L1314.76 181.3ZM1359.76 176.9L1360.63 177.405L1361.1 176.588L1360.31 176.066L1359.76 176.9ZM1347.06 168.5L1347.61 167.666L1346.78 167.116L1346.23 167.945L1347.06 168.5ZM1324.86 166.1V165.1H1323.67L1323.88 166.274L1324.86 166.1ZM1343.66 155.5V156.5H1344.82L1344.65 155.356L1343.66 155.5ZM1325.16 155.5L1324.18 155.295L1323.93 156.5H1325.16V155.5ZM1362.85 166.252C1363.06 164.867 1363.16 162.497 1363.16 159.1H1361.16C1361.16 162.503 1361.06 164.733 1360.87 165.948L1362.85 166.252ZM1363.16 159.1C1363.16 151.325 1360.35 144.949 1354.73 139.953L1353.4 141.447C1358.58 146.051 1361.16 151.875 1361.16 159.1H1363.16ZM1354.74 139.966C1349.25 134.884 1342.6 132.4 1334.86 132.4V134.4C1342.13 134.4 1348.28 136.716 1353.38 141.434L1354.74 139.966ZM1334.86 132.4C1326.8 132.4 1319.86 135.2 1314.07 140.78L1315.46 142.22C1320.87 137 1327.32 134.4 1334.86 134.4V132.4ZM1314.08 140.774C1308.27 146.266 1305.36 153.131 1305.36 161.2H1307.36C1307.36 153.669 1310.05 147.334 1315.45 142.226L1314.08 140.774ZM1305.36 161.2C1305.36 169.559 1308.26 176.527 1314.08 182.026L1315.45 180.574C1310.06 175.473 1307.36 169.041 1307.36 161.2H1305.36ZM1314.08 182.032C1319.99 187.522 1327.24 190.2 1335.96 190.2V188.2C1327.69 188.2 1320.94 185.678 1315.44 180.568L1314.08 182.032ZM1335.96 190.2C1347.35 190.2 1355.61 185.967 1360.63 177.405L1358.9 176.395C1354.31 184.233 1346.78 188.2 1335.96 188.2V190.2ZM1360.31 176.066L1347.61 167.666L1346.51 169.334L1359.21 177.734L1360.31 176.066ZM1346.23 167.945C1344.03 171.251 1339.85 173.4 1335.76 173.4V175.4C1340.48 175.4 1345.3 172.949 1347.89 169.055L1346.23 167.945ZM1335.76 173.4C1330.83 173.4 1326.64 170.445 1325.85 165.926L1323.88 166.274C1324.88 171.955 1330.09 175.4 1335.76 175.4V173.4ZM1324.86 167.1H1361.86V165.1H1324.86V167.1ZM1334.56 148.9C1336.77 148.9 1338.63 149.541 1340.02 150.674C1341.39 151.802 1342.36 153.468 1342.67 155.644L1344.65 155.356C1344.27 152.732 1343.08 150.598 1341.28 149.126C1339.49 147.659 1337.16 146.9 1334.56 146.9V148.9ZM1343.66 154.5H1325.16V156.5H1343.66V154.5ZM1326.14 155.705C1326.94 151.873 1330.63 148.9 1334.56 148.9V146.9C1329.69 146.9 1325.18 150.527 1324.18 155.295L1326.14 155.705ZM1393.96 153.5L1394.15 152.517L1394.15 152.517L1393.96 153.5ZM1401.06 151.7L1400.2 152.199L1400.7 153.073L1401.57 152.562L1401.06 151.7ZM1413.16 144.6L1413.67 145.462L1414.48 144.987L1414.06 144.148L1413.16 144.6ZM1376.26 138.5L1376.87 139.293L1376.88 139.289L1376.89 139.284L1376.26 138.5ZM1389.56 168.1L1389.77 167.121L1389.77 167.121L1389.56 168.1ZM1380.46 169.3L1381.36 168.861L1380.89 167.889L1379.96 168.439L1380.46 169.3ZM1368.26 176.5L1367.76 175.639L1366.97 176.102L1367.36 176.926L1368.26 176.5ZM1408.46 184L1407.8 183.256L1407.8 183.256L1408.46 184ZM1415.36 171.3C1415.36 166.392 1413.35 162.271 1409.65 159.092C1405.99 155.938 1400.7 153.736 1394.15 152.517L1393.78 154.483C1400.13 155.664 1405.04 157.762 1408.35 160.608C1411.63 163.429 1413.36 167.008 1413.36 171.3H1415.36ZM1394.15 152.517C1392.04 152.125 1390.58 151.628 1389.67 151.072C1388.79 150.529 1388.56 150.029 1388.56 149.6H1386.56C1386.56 150.971 1387.39 152.021 1388.63 152.778C1389.85 153.522 1391.59 154.075 1393.78 154.483L1394.15 152.517ZM1388.56 149.6C1388.56 149.179 1388.78 148.743 1389.4 148.365C1390.03 147.977 1391.04 147.7 1392.36 147.7V145.7C1390.79 145.7 1389.4 146.023 1388.36 146.66C1387.3 147.307 1386.56 148.321 1386.56 149.6H1388.56ZM1392.36 147.7C1395.91 147.7 1398.48 149.21 1400.2 152.199L1401.93 151.201C1399.85 147.59 1396.62 145.7 1392.36 145.7V147.7ZM1401.57 152.562L1413.67 145.462L1412.66 143.738L1400.56 150.838L1401.57 152.562ZM1414.06 144.148C1410.24 136.626 1402.13 132.4 1391.86 132.4V134.4C1401.6 134.4 1408.89 138.374 1412.27 145.052L1414.06 144.148ZM1391.86 132.4C1385.57 132.4 1380.14 134.16 1375.64 137.716L1376.89 139.284C1380.99 136.04 1385.96 134.4 1391.86 134.4V132.4ZM1375.66 137.707C1371.12 141.187 1368.86 145.674 1368.86 151.1H1370.86C1370.86 146.326 1372.81 142.413 1376.87 139.293L1375.66 137.707ZM1368.86 151.1C1368.86 155.742 1370.64 159.594 1374.15 162.608C1377.62 165.589 1382.73 167.713 1389.36 169.079L1389.77 167.121C1383.3 165.787 1378.56 163.761 1375.45 161.092C1372.39 158.456 1370.86 155.158 1370.86 151.1H1368.86ZM1389.36 169.079C1391.46 169.519 1392.95 170.063 1393.88 170.674C1394.79 171.268 1395.06 171.842 1395.06 172.4H1397.06C1397.06 170.958 1396.24 169.832 1394.98 169.001C1393.73 168.187 1391.97 167.581 1389.77 167.121L1389.36 169.079ZM1395.06 172.4C1395.06 172.983 1394.76 173.523 1394.08 173.961C1393.39 174.408 1392.37 174.7 1391.16 174.7V176.7C1392.66 176.7 1394.09 176.342 1395.17 175.639C1396.27 174.927 1397.06 173.817 1397.06 172.4H1395.06ZM1391.16 174.7C1388.81 174.7 1386.84 174.205 1385.24 173.253C1383.64 172.303 1382.34 170.86 1381.36 168.861L1379.57 169.739C1380.69 172.04 1382.24 173.797 1384.22 174.972C1386.19 176.145 1388.52 176.7 1391.16 176.7V174.7ZM1379.96 168.439L1367.76 175.639L1368.77 177.361L1380.97 170.161L1379.96 168.439ZM1367.36 176.926C1369.45 181.361 1372.57 184.7 1376.7 186.919C1380.83 189.13 1385.9 190.2 1391.86 190.2V188.2C1386.13 188.2 1381.4 187.17 1377.65 185.156C1373.91 183.15 1371.08 180.139 1369.17 176.074L1367.36 176.926ZM1391.86 190.2C1399.21 190.2 1404.99 188.464 1409.13 184.744L1407.8 183.256C1404.14 186.536 1398.92 188.2 1391.86 188.2V190.2ZM1409.13 184.744C1413.22 181.072 1415.36 176.609 1415.36 171.3H1413.36C1413.36 175.991 1411.51 179.928 1407.8 183.256L1409.13 184.744Z" fill="url(#paint0_linear_1_1850)" fill-opacity="0.2"/>
<defs>
<linearGradient id="paint0_linear_1_1850" x1="959.581" y1="17.6569" x2="959.581" y2="115.847" gradientUnits="userSpaceOnUse">
<stop stop-color="#2662FA"/>
<stop offset="1" stop-color="#2662FA" stop-opacity="0"/>
</linearGradient>
</defs>
</svg>
