<svg width="1902" height="1374" viewBox="0 0 1902 1374" fill="none" xmlns="http://www.w3.org/2000/svg">
<g opacity="0.24">
<path fill-rule="evenodd" clip-rule="evenodd" d="M1809.77 1315.68C1801.59 1310.69 1790.82 1313.5 1785.71 1321.96C1783.88 1324.98 1783.02 1328.31 1783.05 1331.58L1752.63 1313.01L1806.32 1224.22L1837.48 1243.24C1837.13 1239.49 1837.94 1235.57 1840.06 1232.07C1845.18 1223.61 1855.95 1220.8 1864.13 1225.79C1872.3 1230.78 1874.78 1241.68 1869.67 1250.14C1867.55 1253.64 1864.46 1256.18 1860.98 1257.59L1892.14 1276.61L1838.46 1365.4L1808.04 1346.83C1810.94 1345.35 1813.49 1343.05 1815.31 1340.03C1820.43 1331.57 1817.95 1320.67 1809.77 1315.68Z" fill="#FFB900"/>
<path fill-rule="evenodd" clip-rule="evenodd" d="M1806.13 1223.53L1807.27 1222.92L1806.81 1222.64L1806.59 1222.75L1806.13 1223.53Z" fill="white"/>
<path fill-rule="evenodd" clip-rule="evenodd" d="M1838.87 1241.61C1838.87 1241.77 1838.87 1241.92 1838.88 1242.07L1853.77 1233.08L1853.61 1232.71L1838.87 1241.61Z" fill="white"/>
<path fill-rule="evenodd" clip-rule="evenodd" d="M1867.03 1226.85C1866.91 1226.75 1866.8 1226.66 1866.69 1226.56L1853.63 1232.87L1853.83 1233.23L1867.03 1226.85Z" fill="white"/>
<path fill-rule="evenodd" clip-rule="evenodd" d="M1776.35 1271.34L1775.96 1271.92L1799.38 1261.48L1799.19 1261.16L1776.35 1271.34Z" fill="white"/>
<path fill-rule="evenodd" clip-rule="evenodd" d="M1837.32 1241.98L1836.92 1241.74L1827.24 1246.68L1827.42 1247.03L1837.32 1241.98Z" fill="white"/>
<path fill-rule="evenodd" clip-rule="evenodd" d="M1827.89 1247.08L1827.69 1246.72L1799.85 1260.33L1800.04 1260.7L1827.89 1247.08Z" fill="white"/>
<path fill-rule="evenodd" clip-rule="evenodd" d="M1785.75 1302.42L1785.95 1302.78L1813.79 1289.17L1813.59 1288.8L1785.75 1302.42Z" fill="white"/>
<path fill-rule="evenodd" clip-rule="evenodd" d="M1758.51 1314.34L1758.71 1314.71L1786.56 1301.1L1786.36 1300.73L1758.51 1314.34Z" fill="white"/>
<path fill-rule="evenodd" clip-rule="evenodd" d="M1841.61 1273.81L1813.77 1287.43L1813.97 1287.79L1841.81 1274.18L1841.61 1273.81Z" fill="white"/>
<path fill-rule="evenodd" clip-rule="evenodd" d="M1869.99 1261.12L1869.87 1260.9L1869.69 1260.8L1841.93 1274.43L1842.13 1274.8L1869.99 1261.12Z" fill="white"/>
<path fill-rule="evenodd" clip-rule="evenodd" d="M1757.57 1315.64L1758.45 1316.34L1758.09 1315.25L1757.57 1315.64Z" fill="white"/>
<path fill-rule="evenodd" clip-rule="evenodd" d="M1853.79 1300.67L1853.99 1301.03L1881.83 1287.42L1881.63 1287.05L1853.79 1300.67Z" fill="white"/>
<path fill-rule="evenodd" clip-rule="evenodd" d="M1886.83 1284.96L1887.34 1284.04L1880.38 1288.35L1880.59 1288.84L1886.83 1284.96Z" fill="white"/>
<path fill-rule="evenodd" clip-rule="evenodd" d="M1814.75 1321.77C1814.82 1321.9 1814.9 1322.04 1814.98 1322.17L1828.11 1315.91L1827.89 1315.51L1814.75 1321.77Z" fill="white"/>
<path fill-rule="evenodd" clip-rule="evenodd" d="M1826.7 1314.59L1826.89 1314.96L1854.74 1301.34L1854.54 1300.98L1826.7 1314.59Z" fill="white"/>
<path fill-rule="evenodd" clip-rule="evenodd" d="M1856.82 1332.79L1841.83 1341.76L1842 1342.13L1856.42 1333.51L1856.82 1332.79Z" fill="white"/>
<path fill-rule="evenodd" clip-rule="evenodd" d="M1820 1353.2L1820.42 1353.43L1841.05 1344.48L1840.86 1344.16L1820 1353.2Z" fill="white"/>
<path fill-rule="evenodd" clip-rule="evenodd" d="M1754.44 1307.78L1754.18 1308.22L1758.55 1317.11L1758.73 1317.48L1759.43 1317.91L1759.12 1317.3L1758.93 1316.9L1754.44 1307.78Z" fill="white"/>
<path fill-rule="evenodd" clip-rule="evenodd" d="M1772.66 1277.36L1772.42 1277.76L1785.24 1301.74L1785.43 1302.09L1791.6 1313.64C1791.72 1313.58 1791.84 1313.53 1791.96 1313.47L1785.79 1301.92L1785.6 1301.57L1772.66 1277.36Z" fill="white"/>
<path fill-rule="evenodd" clip-rule="evenodd" d="M1807.98 1346L1808.65 1347.34L1809.64 1347.96L1808.51 1345.7C1808.34 1345.81 1808.16 1345.9 1807.98 1346Z" fill="white"/>
<path fill-rule="evenodd" clip-rule="evenodd" d="M1826.65 1315.08L1826.47 1314.72L1812.6 1288.17L1812.41 1287.81L1790.75 1246.35L1790.51 1246.76L1797.99 1261.08L1798.17 1261.44L1812.04 1287.99L1812.23 1288.35L1826.1 1314.9L1826.29 1315.26L1840.16 1341.81L1840.35 1342.18L1845.32 1351.7L1845.57 1351.29L1840.71 1341.99L1840.52 1341.63L1826.65 1315.08Z" fill="white"/>
<path fill-rule="evenodd" clip-rule="evenodd" d="M1840.51 1274.07L1840.7 1274.43L1854.19 1301.15L1854.38 1301.52L1864.51 1321.57L1864.76 1321.16L1854.74 1301.33L1854.55 1300.96L1827.37 1247.16L1827.19 1246.8L1818.94 1230.47L1818.28 1230.07L1826.83 1246.98L1827.01 1247.35L1840.51 1274.07Z" fill="white"/>
<path fill-rule="evenodd" clip-rule="evenodd" d="M1848.88 1225.17L1863.92 1256.39C1864.03 1256.31 1864.15 1256.24 1864.25 1256.16L1849.25 1225.01C1849.13 1225.07 1849.01 1225.12 1848.88 1225.17Z" fill="white"/>
<path fill-rule="evenodd" clip-rule="evenodd" d="M1881.64 1287.25L1883.51 1291.14L1883.76 1290.72L1869.05 1260.09L1868.4 1259.68L1868.5 1259.9L1881.64 1287.25Z" fill="white"/>
<path fill-rule="evenodd" clip-rule="evenodd" d="M106.555 130.622L17.6497 176.766L-30.106 85.1431L1.39801 68.7927C-1.38904 67.1239 -3.78049 64.6728 -5.40516 61.5562C-9.95637 52.8241 -6.78139 42.1873 1.69116 37.7905C10.1627 33.3921 20.7128 36.9049 25.265 45.6385C26.8887 48.7536 27.5335 52.1105 27.2963 55.3505L58.7991 38.9987L75.6421 71.3134C77.2035 68.6339 79.5009 66.3683 82.4261 64.8507C90.8913 60.4573 101.452 63.9734 106 72.6988C110.552 81.4325 107.37 92.0727 98.9046 96.4661C95.9795 97.9836 92.8025 98.5616 89.7105 98.3053L106.555 130.622" fill="#007BFF"/>
<path fill-rule="evenodd" clip-rule="evenodd" d="M66.6685 137.035C63.1611 133.338 59.5352 129.516 55.1523 127.006C45.0337 121.209 30.6576 122.99 20.1919 131.336C13.3504 136.79 8.16469 144.685 5.11648 154.095L5.37983 154.608C8.38286 145.099 13.5663 137.124 20.4391 131.646C30.7754 123.403 44.9637 121.639 54.9412 127.354C59.2756 129.837 62.8826 133.639 66.3696 137.315C69.1194 140.213 71.923 143.162 75.0932 145.449L75.4763 145.247C72.3419 143.011 69.5482 140.07 66.6685 137.035" fill="white"/>
<path fill-rule="evenodd" clip-rule="evenodd" d="M-7.55453 56.2857C-0.225836 57.7946 6.02489 61.6258 9.61163 67.1394C11.7705 70.4577 13.0194 74.362 14.2258 78.136C15.7333 82.8474 17.289 87.7156 20.6341 91.4478C25.5505 96.9295 33.3027 98.8114 39.5308 100.322L98.8924 114.727L98.6412 114.245L39.6241 99.9252C32.0428 98.085 25.4043 96.1571 20.9356 91.1738C17.6561 87.5201 16.1094 82.6857 14.6153 78.0143C13.4 74.2136 12.1423 70.2825 9.95334 66.9181C6.27859 61.2714 -0.146191 57.3551 -7.66468 55.848C-7.63041 55.9942 -7.59247 56.1399 -7.55453 56.2857" fill="white"/>
</g>
</svg>
