<svg width="647" height="358" viewBox="0 0 647 358" fill="none" xmlns="http://www.w3.org/2000/svg">
<g opacity="0.4">
<path d="M52.0778 16.5646C55.0055 21.6444 57.4578 27.0049 59.4078 32.5869C59.8591 33.8629 61.897 32.8611 61.4737 31.5749C59.5213 25.994 57.069 20.6337 54.1436 15.5525C53.4814 14.4072 51.4347 15.3899 52.0992 16.5466L52.0778 16.5646Z" fill="#10100E"/>
<path d="M22.1218 129.133L38.0138 126.043C39.2825 125.797 38.6444 123.794 37.3703 124.013L21.4783 127.103C20.2096 127.348 20.8504 129.356 22.1218 129.133Z" fill="#10100E"/>
<path d="M1.49327 90.5325L16.0534 89.7778C17.4207 89.7072 17.3671 87.5424 15.9997 87.613L1.43961 88.3676C0.0722577 88.4382 0.123179 90.5985 1.49327 90.5325Z" fill="#10100E"/>
<path d="M18.5927 46.2898L29.4488 55.3202C30.4512 56.1614 31.9197 54.7019 30.9023 53.8557L20.0412 44.8253C19.0388 43.9841 17.5702 45.4436 18.5927 46.2898Z" fill="#10100E"/>
<path fill-rule="evenodd" clip-rule="evenodd" d="M187.503 130.622L98.5982 176.766L50.8425 85.1431L82.3465 68.7927C79.5594 67.1239 77.168 64.6728 75.5433 61.5562C70.9921 52.8241 74.1671 42.1873 82.6396 37.7905C91.1112 33.3921 101.661 36.9049 106.214 45.6385C107.837 48.7536 108.482 52.1105 108.245 55.3505L139.748 38.9987L156.591 71.3134C158.152 68.6339 160.449 66.3683 163.375 64.8507C171.84 60.4573 182.401 63.9734 186.948 72.6988C191.501 81.4325 188.318 92.0727 179.853 96.4661C176.928 97.9836 173.751 98.5616 170.659 98.3053L187.503 130.622Z" fill="#007BFF"/>
<path fill-rule="evenodd" clip-rule="evenodd" d="M147.617 137.035C144.11 133.338 140.484 129.516 136.101 127.006C125.982 121.209 111.606 122.99 101.14 131.336C94.2989 136.79 89.1132 144.685 86.065 154.095L86.3283 154.608C89.3314 145.099 94.5148 137.124 101.388 131.646C111.724 123.403 125.912 121.639 135.89 127.354C140.224 129.837 143.831 133.639 147.318 137.315C150.068 140.213 152.872 143.162 156.042 145.449L156.425 145.247C153.29 143.011 150.497 140.07 147.617 137.035Z" fill="white"/>
<path fill-rule="evenodd" clip-rule="evenodd" d="M73.394 56.2859C80.7226 57.7948 86.9734 61.626 90.5601 67.1397C92.7189 70.458 93.9678 74.3622 95.1743 78.1362C96.6817 82.8476 98.2375 87.7159 101.583 91.4481C106.499 96.9297 114.251 98.8117 120.479 100.323L179.841 114.727L179.59 114.245L120.573 99.9254C112.991 98.0853 106.353 96.1573 101.884 91.1741C98.6046 87.5204 97.0579 82.6859 95.5638 78.0145C94.3484 74.2138 93.0908 70.2828 90.9018 66.9184C87.2271 61.2716 80.8023 57.3554 73.2838 55.8482C73.3181 55.9944 73.356 56.1402 73.394 56.2859Z" fill="white"/>
<path fill-rule="evenodd" clip-rule="evenodd" d="M68.0074 100.568C66.8928 93.4749 63.9366 86.5824 59.6414 80.6486L59.2971 80.823C63.5692 86.7092 66.5105 93.5552 67.619 100.602C68.5061 106.25 68.2011 111.962 66.8475 117.321L67.1318 117.848C68.587 112.325 68.9264 106.412 68.0074 100.568Z" fill="white"/>
<path fill-rule="evenodd" clip-rule="evenodd" d="M560.074 304.576C551.648 300.02 541.036 303.391 536.372 312.104C534.706 315.217 534.023 318.59 534.22 321.849L502.878 304.901L551.845 213.428L583.957 230.791C583.407 227.064 584.016 223.103 585.949 219.492C590.613 210.779 601.225 207.408 609.651 211.965C618.078 216.521 621.127 227.278 616.462 235.991C614.529 239.602 611.576 242.296 608.178 243.888L640.29 261.251L591.323 352.724L559.98 335.778C562.794 334.147 565.219 331.716 566.885 328.603C571.55 319.89 568.501 309.134 560.074 304.576Z" fill="#FFB900"/>
<path fill-rule="evenodd" clip-rule="evenodd" d="M551.617 212.741L552.72 212.081L552.245 211.82L552.037 211.945L551.617 212.741Z" fill="white"/>
<path fill-rule="evenodd" clip-rule="evenodd" d="M585.257 229.088C585.268 229.241 585.279 229.395 585.293 229.548L599.692 219.791L599.512 219.429L585.257 229.088Z" fill="white"/>
<path fill-rule="evenodd" clip-rule="evenodd" d="M612.604 212.874C612.486 212.783 612.37 212.692 612.25 212.603L599.542 219.589L599.756 219.936L612.604 212.874Z" fill="white"/>
<path fill-rule="evenodd" clip-rule="evenodd" d="M524.377 262.047L524.023 262.65L546.866 250.998L546.659 250.684L524.377 262.047Z" fill="white"/>
<path fill-rule="evenodd" clip-rule="evenodd" d="M583.727 229.538L583.318 229.32L573.905 234.753L574.105 235.093L583.727 229.538Z" fill="white"/>
<path fill-rule="evenodd" clip-rule="evenodd" d="M574.578 235.127L574.36 234.771L547.267 249.824L547.484 250.18L574.578 235.127Z" fill="white"/>
<path fill-rule="evenodd" clip-rule="evenodd" d="M535.39 292.591L535.608 292.947L562.701 277.895L562.484 277.537L535.39 292.591Z" fill="white"/>
<path fill-rule="evenodd" clip-rule="evenodd" d="M508.818 305.927L509.035 306.284L536.129 291.231L535.911 290.875L508.818 305.927Z" fill="white"/>
<path fill-rule="evenodd" clip-rule="evenodd" d="M589.683 261.1L562.59 276.153L562.807 276.509L589.901 261.457L589.683 261.1Z" fill="white"/>
<path fill-rule="evenodd" clip-rule="evenodd" d="M617.353 246.941L617.225 246.731L617.042 246.636L590.033 261.699L590.25 262.057L617.353 246.941Z" fill="white"/>
<path fill-rule="evenodd" clip-rule="evenodd" d="M507.945 307.271L508.864 307.92L508.446 306.852L507.945 307.271Z" fill="white"/>
<path fill-rule="evenodd" clip-rule="evenodd" d="M603.249 287.279L603.466 287.637L630.56 272.584L630.343 272.228L603.249 287.279Z" fill="white"/>
<path fill-rule="evenodd" clip-rule="evenodd" d="M635.426 269.868L635.878 268.917L629.162 273.587L629.392 274.064L635.426 269.868Z" fill="white"/>
<path fill-rule="evenodd" clip-rule="evenodd" d="M565.363 310.399C565.449 310.526 565.531 310.656 565.613 310.785L578.401 303.85L578.158 303.459L565.363 310.399Z" fill="white"/>
<path fill-rule="evenodd" clip-rule="evenodd" d="M576.92 302.602L577.137 302.96L604.231 287.908L604.014 287.551L576.92 302.602Z" fill="white"/>
<path fill-rule="evenodd" clip-rule="evenodd" d="M607.955 319.202L593.459 328.939L593.644 329.309L607.598 319.937L607.955 319.202Z" fill="white"/>
<path fill-rule="evenodd" clip-rule="evenodd" d="M572.255 341.512L572.682 341.719L592.82 331.706L592.608 331.391L572.255 341.512Z" fill="white"/>
<path fill-rule="evenodd" clip-rule="evenodd" d="M504.412 299.58L504.173 300.036L509.002 308.685L509.204 309.048L509.92 309.443L509.584 308.843L509.371 308.461L504.412 299.58Z" fill="white"/>
<path fill-rule="evenodd" clip-rule="evenodd" d="M521.01 268.255L520.786 268.66L534.847 291.945L535.053 292.284L541.822 303.495C541.938 303.427 542.056 303.367 542.173 303.301L535.403 292.089L535.197 291.749L521.01 268.255Z" fill="white"/>
<path fill-rule="evenodd" clip-rule="evenodd" d="M559.874 334.954L560.61 336.258L561.632 336.817L560.392 334.623C560.221 334.739 560.047 334.845 559.874 334.954Z" fill="white"/>
<path fill-rule="evenodd" clip-rule="evenodd" d="M576.904 303.095L576.697 302.743L561.458 276.954L561.25 276.604L537.457 236.341L537.23 236.76L545.449 250.669L545.657 251.02L560.895 276.807L561.103 277.159L576.342 302.946L576.549 303.298L591.788 329.084L591.995 329.436L597.463 338.688L597.691 338.269L592.35 329.233L592.143 328.881L576.904 303.095Z" fill="white"/>
<path fill-rule="evenodd" clip-rule="evenodd" d="M588.596 261.413L588.799 261.767L603.678 287.743L603.88 288.097L615.048 307.595L615.273 307.171L604.23 287.891L604.027 287.536L574.068 235.23L573.865 234.876L564.776 219.008L564.097 218.638L573.515 235.083L573.718 235.437L588.596 261.413Z" fill="white"/>
<path fill-rule="evenodd" clip-rule="evenodd" d="M594.399 212.146L611.049 242.535C611.155 242.451 611.265 242.374 611.369 242.287L594.758 211.97C594.638 212.028 594.518 212.085 594.399 212.146Z" fill="white"/>
<path fill-rule="evenodd" clip-rule="evenodd" d="M630.357 272.421L632.429 276.211L632.654 275.776L616.36 245.96L615.691 245.584L615.807 245.796L630.357 272.421Z" fill="white"/>
</g>
</svg>
