<svg width="1648" height="293" viewBox="0 0 1648 293" fill="none" xmlns="http://www.w3.org/2000/svg">
<g opacity="0.36">
<path d="M63.9239 288.684C70.0397 292.621 78.4142 287.771 79.4921 280.606C80.6581 272.847 72.6943 267.623 66.0065 268.423C58.5927 269.314 53.8335 277.826 56.3635 285.075C58.8934 292.324 67.8911 294.418 73.5376 289.781C75.0556 288.54 72.9143 286.347 71.4184 287.58C67.1652 291.068 60.338 288.753 58.9521 283.293C57.5661 277.834 61.3353 271.827 66.8792 271.461C71.213 271.172 76.5809 274.149 76.5882 279.197C76.5882 284.725 69.9884 288.92 65.4199 285.997C63.7699 284.938 62.2666 287.634 63.9092 288.684H63.9239Z" fill="#10100E"/>
<path d="M157.15 197.185C160.763 199.511 165.711 196.645 166.348 192.412C167.037 187.827 162.332 184.741 158.38 185.214C154 185.74 151.188 190.77 152.683 195.053C154.177 199.335 159.494 200.573 162.83 197.833C163.727 197.1 162.462 195.804 161.578 196.533C159.065 198.593 155.031 197.226 154.212 194C153.393 190.774 155.62 187.225 158.896 187.009C161.456 186.838 164.628 188.597 164.632 191.58C164.632 194.846 160.733 197.325 158.034 195.597C157.059 194.972 156.17 196.564 157.141 197.185H157.15Z" fill="#10100E"/>
<path d="M106.343 140.741C111.107 143.808 117.63 140.03 118.47 134.449C119.378 128.405 113.175 124.336 107.966 124.959C102.191 125.653 98.4836 132.284 100.454 137.93C102.425 143.576 109.434 145.207 113.832 141.595C115.014 140.629 113.346 138.921 112.181 139.881C108.868 142.598 103.55 140.795 102.471 136.542C101.391 132.29 104.327 127.61 108.645 127.325C112.021 127.1 116.202 129.419 116.208 133.351C116.208 137.657 111.067 140.925 107.509 138.648C106.223 137.823 105.052 139.923 106.332 140.741H106.343Z" fill="#10100E"/>
<path d="M53.463 38.3147C57.7667 41.0848 63.6598 37.6717 64.4184 32.6297C65.2389 27.1697 59.6348 23.494 54.9285 24.0566C49.7114 24.6835 46.3624 30.6739 48.1427 35.7749C49.923 40.8759 56.2547 42.3493 60.2282 39.0862C61.2964 38.2129 59.7896 36.6697 58.7369 37.5377C55.7439 39.9918 50.9396 38.3629 49.9643 34.5211C48.989 30.6793 51.6414 26.4517 55.5426 26.1945C58.5924 25.9909 62.3698 28.086 62.3749 31.6384C62.3749 35.5284 57.7306 38.4808 54.5157 36.4232C53.3546 35.6785 52.2968 37.5752 53.4527 38.3147H53.463Z" fill="#10100E"/>
<path d="M5.12657 175.038L18.2349 167.47C19.2047 166.91 18.4762 165.64 17.5028 166.202L4.39446 173.77C3.42102 174.332 4.15312 175.6 5.12657 175.038Z" fill="#10100E"/>
<path d="M14.8993 176.856L7.69697 164.381C7.13086 163.401 5.86415 164.132 6.43027 165.113L13.6326 177.587C14.2009 178.572 15.4676 177.84 14.8993 176.856Z" fill="#10100E"/>
<path d="M155.143 186.862C155.143 186.862 134.172 155.462 113.88 140.007" stroke="black" stroke-width="2"/>
<path d="M1555.69 3.06809C1550.42 -0.323558 1543.21 3.85532 1542.28 10.0285C1541.28 16.7134 1548.13 21.2137 1553.9 20.5249C1560.28 19.7574 1564.38 12.423 1562.2 6.17765C1560.02 -0.0677087 1552.27 -1.87178 1547.41 2.12341C1546.1 3.19274 1547.95 5.08209 1549.23 4.01933C1552.9 1.01473 1558.78 3.00905 1559.97 7.71275C1561.16 12.4164 1557.92 17.5925 1553.14 17.9074C1549.41 18.1567 1544.79 15.5916 1544.78 11.2422C1544.78 6.47942 1550.47 2.86472 1554.4 5.38386C1555.82 6.29573 1557.12 3.9734 1555.7 3.06809H1555.69Z" fill="#10100E"/>
<path d="M1491.68 127.412C1487.9 124.982 1482.74 127.976 1482.07 132.398C1481.35 137.186 1486.26 140.41 1490.39 139.916C1494.97 139.367 1497.9 134.113 1496.34 129.639C1494.78 125.165 1489.23 123.873 1485.74 126.735C1484.81 127.501 1486.13 128.854 1487.05 128.093C1489.68 125.941 1493.89 127.369 1494.74 130.739C1495.6 134.108 1493.27 137.816 1489.85 138.041C1487.18 138.22 1483.87 136.383 1483.86 133.267C1483.86 129.855 1487.93 127.266 1490.75 129.07C1491.77 129.724 1492.7 128.06 1491.69 127.412H1491.68Z" fill="#10100E"/>
<path d="M1623.32 85.2301C1619.97 83.0719 1615.38 85.7311 1614.79 89.6592C1614.15 93.913 1618.52 96.7767 1622.18 96.3383C1626.25 95.8499 1628.85 91.1829 1627.47 87.2088C1626.08 83.2347 1621.15 82.0868 1618.05 84.629C1617.22 85.3094 1618.4 86.5117 1619.22 85.8354C1621.55 83.9235 1625.29 85.1926 1626.05 88.1856C1626.81 91.1787 1624.74 94.4724 1621.7 94.6727C1619.33 94.8314 1616.39 93.1992 1616.38 90.4315C1616.38 87.4008 1620 85.1007 1622.5 86.7037C1623.41 87.284 1624.23 85.8062 1623.33 85.2301H1623.32Z" fill="#2662FA"/>
<path d="M1557.96 259.928C1554.38 257.622 1549.47 260.463 1548.84 264.661C1548.16 269.207 1552.82 272.267 1556.74 271.799C1561.08 271.277 1563.87 266.289 1562.39 262.043C1560.91 257.796 1555.64 256.569 1552.33 259.286C1551.44 260.013 1552.7 261.298 1553.57 260.575C1556.06 258.532 1560.06 259.888 1560.87 263.086C1561.69 266.285 1559.48 269.805 1556.23 270.019C1553.69 270.188 1550.55 268.444 1550.54 265.486C1550.54 262.248 1554.41 259.79 1557.09 261.503C1558.05 262.123 1558.93 260.544 1557.97 259.928H1557.96Z" fill="#10100E"/>
<path d="M1575.76 152.873C1570.7 149.617 1563.78 153.628 1562.89 159.555C1561.92 165.972 1568.51 170.292 1574.04 169.631C1580.17 168.894 1584.1 161.853 1582.01 155.858C1579.92 149.862 1572.48 148.13 1567.81 151.966C1566.55 152.992 1568.32 154.806 1569.56 153.786C1573.08 150.901 1578.72 152.816 1579.87 157.331C1581.02 161.847 1577.9 166.816 1573.31 167.118C1569.73 167.358 1565.29 164.895 1565.29 160.72C1565.29 156.147 1570.74 152.677 1574.52 155.096C1575.89 155.971 1577.13 153.742 1575.77 152.873H1575.76Z" fill="#2662FA"/>
<path d="M1641.48 192.318L1626.72 200.843C1625.63 201.473 1626.45 202.904 1627.54 202.271L1642.31 193.746C1643.4 193.113 1642.58 191.685 1641.48 192.318Z" fill="#2662FA"/>
<path d="M1631.39 190.272L1639.5 204.32C1640.14 205.424 1641.57 204.6 1640.93 203.496L1632.82 189.448C1632.18 188.34 1630.75 189.164 1631.39 190.272Z" fill="#2662FA"/>
<path d="M1577.63 152.398C1577.63 152.398 1604.84 129.333 1619.67 94.7341" stroke="#2662FA" stroke-width="3"/>
</g>
</svg>
