<svg width="128" height="46" viewBox="0 0 128 46" fill="none" xmlns="http://www.w3.org/2000/svg">
<path d="M1 11.861C1 5.86259 5.92485 1 12 1C18.0752 1 23 5.86259 23 11.861V14.7998C21.1579 14.0719 19.1471 13.6711 17.0417 13.6711C8.18205 13.6711 1 20.7624 1 29.51V11.861Z" fill="#2662FA"/>
<path fill-rule="evenodd" clip-rule="evenodd" d="M17 45.5088C25.8366 45.5088 33 38.3454 33 29.5088C33 20.6723 25.8366 13.5088 17 13.5088C8.16344 13.5088 1 20.6723 1 29.5088C1 38.3454 8.16344 45.5088 17 45.5088ZM17 37.7374C21.5445 37.7374 25.2286 34.0533 25.2286 29.5088C25.2286 24.9643 21.5445 21.2802 17 21.2802C12.4555 21.2802 8.77143 24.9643 8.77143 29.5088C8.77143 34.0533 12.4555 37.7374 17 37.7374Z" fill="#04091E"/>
<path d="M53.656 28.408C53.656 30.296 52.376 31.352 50.2 31.352H45.688V25.336H50.104C52.28 25.336 53.656 26.488 53.656 28.408ZM53.112 19.096C53.112 20.92 51.896 21.88 49.784 21.88H45.688V16.28H49.784C51.896 16.28 53.112 17.304 53.112 19.096ZM58.2 28.952C58.2 26.328 56.408 23.992 53.88 23.544C56.056 22.84 57.688 21.144 57.688 18.424C57.688 15.096 55.096 12.664 50.424 12.664H41.208V35H50.84C55.48 35 58.2 32.504 58.2 28.952ZM61.7705 35H66.2505V17.272H61.7705V35ZM64.0425 15.16C65.6105 15.16 66.7945 14.008 66.7945 12.536C66.7945 11.064 65.6105 9.912 64.0425 9.912C62.4425 9.912 61.2905 11.064 61.2905 12.536C61.2905 14.008 62.4425 15.16 64.0425 15.16ZM82.5808 17.272H69.7168V20.952H77.4288L69.6848 31.384V35H82.6768V31.32H74.7728L82.5808 20.888V17.272Z" fill="#04091E"/>
<path d="M90.6255 19.832V17.272H86.1455V43.448H90.6255V32.472C91.7135 33.912 93.6975 35.288 96.4815 35.288C101.026 35.288 104.578 31.608 104.578 26.072C104.578 20.536 101.026 16.984 96.4815 16.984C93.7295 16.984 91.6815 18.328 90.6255 19.832ZM100.002 26.072C100.002 29.432 97.7295 31.352 95.2975 31.352C92.8975 31.352 90.6255 29.496 90.6255 26.136C90.6255 22.776 92.8975 20.92 95.2975 20.92C97.7295 20.92 100.002 22.712 100.002 26.072ZM106.681 26.072C106.681 31.608 110.265 35.288 114.745 35.288C117.561 35.288 119.577 33.944 120.633 32.408V35H125.145V17.272H120.633V19.8C119.577 18.328 117.625 16.984 114.777 16.984C110.265 16.984 106.681 20.536 106.681 26.072ZM120.633 26.136C120.633 29.496 118.393 31.352 115.929 31.352C113.529 31.352 111.257 29.432 111.257 26.072C111.257 22.712 113.529 20.92 115.929 20.92C118.393 20.92 120.633 22.776 120.633 26.136Z" fill="#2662FA"/>
</svg>
