<svg width="62" height="95" viewBox="0 0 62 95" fill="none" xmlns="http://www.w3.org/2000/svg">
<g opacity="0.2">
<path d="M25.2574 13.7611L37.9491 5.29527C39.0564 4.56321 38.1902 2.64278 37.0652 3.39647L24.3685 11.8772C23.2612 12.6092 24.1274 14.5297 25.2524 13.776L25.2574 13.7611Z" fill="#10100E"/>
<path d="M32.7668 49.9128L46.288 52.7611C47.5568 53.0266 48.0719 51.084 46.803 50.8184L33.2776 47.9727C32.0155 47.7088 31.4979 49.6473 32.7693 49.917L32.7668 49.9128Z" fill="#10100E"/>
<path d="M15.3883 76.6304L25.8068 87.7887C26.732 88.7794 28.0268 87.1282 27.113 86.1521L16.6945 74.9938C15.7693 74.003 14.4746 75.6542 15.3883 76.6304Z" fill="#10100E"/>
</g>
</svg>
